<svg width="16" height="16" viewBox="0 0 16 16" fill="none" xmlns="http://www.w3.org/2000/svg">
<g opacity="0.5">
<path d="M2.87996 2.56006H13.12C13.3721 2.56006 13.6218 2.60972 13.8547 2.70621C14.0877 2.8027 14.2993 2.94413 14.4776 3.12241C14.6559 3.3007 14.7973 3.51236 14.8938 3.74531C14.9903 3.97825 15.04 4.22792 15.04 4.48006V11.5201C15.04 12.0293 14.8377 12.5176 14.4776 12.8777C14.1175 13.2378 13.6292 13.4401 13.12 13.4401H2.87996C2.37075 13.4401 1.88239 13.2378 1.52232 12.8777C1.16225 12.5176 0.959961 12.0293 0.959961 11.5201V4.48006C0.959961 3.97084 1.16225 3.48248 1.52232 3.12241C1.88239 2.76234 2.37075 2.56006 2.87996 2.56006Z" fill="black"/>
<path d="M13.2351 4.68603C13.3466 4.63351 13.474 4.62588 13.591 4.66473C13.7079 4.70358 13.8055 4.78592 13.8634 4.89471C13.9213 5.0035 13.9351 5.13039 13.9021 5.24911C13.869 5.36783 13.7915 5.46927 13.6857 5.53243L13.6447 5.55387L8.22198 8.11387C8.10952 8.16707 7.9808 8.17453 7.86294 8.13467L7.81366 8.11451L2.35638 5.55835C2.24439 5.50625 2.1568 5.41298 2.11182 5.29795C2.06684 5.18291 2.06793 5.05496 2.11488 4.94072C2.16182 4.82647 2.251 4.73472 2.36386 4.68454C2.47673 4.63436 2.60459 4.62962 2.72086 4.67131L2.76342 4.68891L8.01622 7.14939L13.2351 4.68603Z" fill="white"/>
</g>
</svg>
