<svg width="121" height="31" viewBox="0 0 121 31" fill="none" xmlns="http://www.w3.org/2000/svg">
<path d="M111.307 21.797C112.772 20.2175 113.504 18.1067 113.504 15.4647C113.504 12.8226 112.772 10.7118 111.307 9.13234C109.872 7.55285 107.933 6.7631 105.492 6.7631C103.08 6.7631 101.141 7.55285 99.6766 9.13234C98.2407 10.7118 97.5228 12.8226 97.5228 15.4647C97.5228 18.1067 98.2407 20.2175 99.6766 21.797C101.141 23.3765 103.08 24.1662 105.492 24.1662C107.933 24.1662 109.872 23.3765 111.307 21.797ZM94.5074 26.5786C91.5207 23.6493 90.0273 19.9447 90.0273 15.4647C90.0273 10.9847 91.5207 7.29438 94.5074 4.39386C97.5228 1.46462 101.199 0 105.535 0C109.9 0 113.562 1.46462 116.52 4.39386C119.506 7.29438 121 10.9847 121 15.4647C121 19.9447 119.506 23.6493 116.52 26.5786C113.533 29.5078 109.872 30.9724 105.535 30.9724C101.199 30.9724 97.5228 29.5078 94.5074 26.5786Z" fill="#07C160"/>
<path d="M61.6109 26.5786C58.6242 23.6493 57.1309 19.9447 57.1309 15.4647C57.1309 10.9847 58.6242 7.29438 61.6109 4.39386C64.6263 1.46462 68.3022 0 72.6386 0C75.9986 0 78.9853 0.890258 81.5986 2.67078C84.212 4.4513 86.0356 6.92105 87.0694 10.08H78.2817C77.133 7.86875 75.295 6.7631 72.7678 6.7631C70.2407 6.7631 68.2447 7.55285 66.7801 9.13234C65.3442 10.7118 64.6263 12.8226 64.6263 15.4647C64.6263 18.1067 65.3442 20.2175 66.7801 21.797C68.2447 23.3765 70.2407 24.1662 72.7678 24.1662C75.295 24.1662 77.133 23.0606 78.2817 20.8493H87.0694C86.0356 24.0083 84.212 26.478 81.5986 28.2586C78.9853 30.0391 75.9986 30.9293 72.6386 30.9293C68.3022 30.9293 64.6263 29.4791 61.6109 26.5786Z" fill="#07C160"/>
<path d="M52.5539 0.344727V5.94475H41.6123V12.4494H51.2615V18.0494H41.6123V25.071H52.5539V30.671H34.2461V0.344727H52.5539Z" fill="#07C160"/>
<path d="M20.4045 0.344727H27.7707V30.671H20.4045L8.08444 11.5878V30.671H0.718262V0.344727H8.08444L20.4045 19.4279V0.344727Z" fill="#07C160"/>
</svg>
