<svg width="15" height="15" viewBox="0 0 15 15" fill="none" xmlns="http://www.w3.org/2000/svg">
<g opacity="0.5">
<path d="M12.3374 6.50995C12.2174 6.50995 11.5424 6.51745 11.4149 6.51745V4.38745C11.4149 2.02495 9.89244 0.457451 7.51494 0.449951C5.13744 0.449951 3.58494 2.09995 3.58494 4.38745V6.49495C3.50244 6.49495 2.63994 6.50245 2.56494 6.50245C1.99494 6.50245 1.62744 6.98995 1.62744 7.51495V13.5075C1.62744 14.1 1.94244 14.5425 2.54994 14.5425H12.3674C12.8399 14.5425 13.3799 14.115 13.3799 13.3425V7.64995C13.3799 7.06495 13.1849 6.50995 12.3374 6.50995ZM8.81244 11.8875C8.81244 12.63 8.22744 13.23 7.50744 13.23C6.78744 13.23 6.20244 12.63 6.20244 11.8875V11.865C6.20244 11.37 6.46494 10.935 6.85494 10.7025V8.22745C6.85494 7.87495 7.13244 7.83745 7.47744 7.83745C7.82244 7.83745 8.15994 7.87495 8.15994 8.22745V10.7025C8.54994 10.935 8.81244 11.37 8.81244 11.865V11.8875ZM10.1249 6.49495H4.89744V3.79495C4.89744 2.49745 6.34494 1.79245 7.43244 1.79245H7.67244C8.75994 1.79245 10.1249 2.44495 10.1249 3.79495V6.49495Z" fill="black"/>
</g>
</svg>
