<svg width="16" height="16" viewBox="0 0 16 16" fill="none" xmlns="http://www.w3.org/2000/svg">
<g opacity="0.5">
<path d="M14 12.3487V14.4821C14 15.3204 13.3506 16 12.5494 16H3.45057C2.64943 16 2 15.3204 2 14.4821V12.3487H14ZM8 13.2103C7.50186 13.2103 7.09804 13.6327 7.09804 14.1538C7.09804 14.675 7.50185 15.0974 8 15.0974C8.49814 15.0974 8.90196 14.675 8.90196 14.1538C8.90196 13.6327 8.49815 13.2103 8 13.2103ZM12.5494 0C13.3506 0 14 0.679599 14 1.51795V11.241H2V1.51795C2 0.679599 2.64943 0 3.45057 0H12.5494ZM10.0479 1.23077H5.96078L5.94875 1.23091C5.67275 1.2376 5.45099 1.47377 5.45099 1.7641C5.45099 2.05865 5.67923 2.29744 5.96078 2.29744H10.0479L10.06 2.29729C10.336 2.2906 10.5577 2.05444 10.5577 1.7641C10.5577 1.46956 10.3295 1.23077 10.0479 1.23077Z" fill="black"/>
</g>
</svg>
