<svg width="32" height="19" viewBox="0 0 32 19" fill="none" xmlns="http://www.w3.org/2000/svg">
<rect width="32" height="19" rx="9.5" fill="#07C160" fill-opacity="0.1"/>
<path d="M9.83594 8.8C9.44934 8.8 9.13594 9.1134 9.13594 9.5C9.13594 9.8866 9.44934 10.2 9.83594 10.2V8.8ZM22.659 9.99497C22.9323 9.72161 22.9323 9.27839 22.659 9.00503L18.2042 4.55025C17.9308 4.27689 17.4876 4.27689 17.2143 4.55025C16.9409 4.82362 16.9409 5.26684 17.2143 5.5402L21.1741 9.5L17.2143 13.4598C16.9409 13.7332 16.9409 14.1764 17.2143 14.4497C17.4876 14.7231 17.9308 14.7231 18.2042 14.4497L22.659 9.99497ZM9.83594 9.5V10.2H22.164V9.5V8.8H9.83594V9.5Z" fill="#07C160"/>
</svg>
