<svg width="14" height="16" viewBox="0 0 14 16" fill="none" xmlns="http://www.w3.org/2000/svg">
<g clip-path="url(#clip0_1607_451)">
<path d="M6.81264 15.6875L6.57826 15.5586C6.51576 15.5234 5.01967 14.6895 3.50795 13.2969C2.61146 12.4707 1.89467 11.6172 1.381 10.7598C0.720839 9.66016 0.39076 8.55273 0.398573 7.46484C0.410292 5.75 1.08217 4.14062 2.28725 2.93164C3.49623 1.71875 5.10365 1.05273 6.81654 1.05273C8.52748 1.05273 10.1329 1.7207 11.3419 2.93359C12.5431 4.14062 13.215 5.75 13.2345 7.46484C13.2462 8.56445 12.9181 9.68164 12.2599 10.7832C11.7462 11.6426 11.0294 12.4961 10.131 13.3203C8.61537 14.707 7.11537 15.5273 7.05287 15.5625L6.81264 15.6875ZM6.81459 2.0293C3.83607 2.0293 1.39662 4.4707 1.37514 7.47266C1.34974 11.0273 5.74428 13.9141 6.81654 14.5664C7.28725 14.2852 8.39271 13.584 9.48061 12.5859C10.7579 11.4121 12.2755 9.57422 12.254 7.47461C12.2228 4.4707 9.78139 2.0293 6.81459 2.0293Z" fill="black"/>
<path d="M6.93555 10.7168L5.08594 8.86719C4.5918 8.37305 4.32031 7.7168 4.32031 7.01758C4.32031 6.31836 4.5918 5.66211 5.08594 5.16797C6.10547 4.14844 7.76563 4.14844 8.78516 5.16797C9.80469 6.1875 9.80469 7.84766 8.78516 8.86719L6.93555 10.7168ZM6.93555 5.37891C6.51563 5.37891 6.0957 5.53906 5.77734 5.85742C5.13867 6.49609 5.13867 7.53711 5.77734 8.17578L6.93555 9.33398L8.09375 8.17578C8.73242 7.53711 8.73242 6.49609 8.09375 5.85742C7.77344 5.53906 7.35547 5.37891 6.93555 5.37891Z" fill="black"/>
<path d="M6.58984 10.3708L7.28037 9.68024L10.1778 12.5777L9.4873 13.2682L6.58984 10.3708Z" fill="black"/>
</g>
<defs>
<clipPath id="clip0_1607_451">
<rect width="14" height="15" fill="white" transform="translate(0 0.5)"/>
</clipPath>
</defs>
</svg>
