<svg width="30" height="24" viewBox="0 0 30 24" fill="none" xmlns="http://www.w3.org/2000/svg">
<g clip-path="url(#clip0_94_130)">
<path d="M26.6356 8.17601H1.75363C1.43463 8.17601 1.22197 7.96481 1.0093 7.75361C0.902965 7.43681 0.902965 7.12001 1.11563 6.90881L4.30563 2.79041C4.8373 1.84001 5.7943 1.31201 6.96396 1.31201H21.4253C22.4886 1.31201 23.552 1.84001 24.19 2.79041L27.38 6.90881C27.4863 7.12001 27.4863 7.43681 27.38 7.75361C27.2736 7.96481 26.9546 8.17601 26.6356 8.17601ZM3.34863 6.59201H25.147L22.914 3.74081C22.595 3.21281 22.0633 2.89601 21.5316 2.89601H6.96396C6.4323 2.89601 5.90063 3.21281 5.58163 3.63521L3.34863 6.59201Z" fill="black"/>
<path d="M23.2323 24.016H5.15568C2.81634 24.016 0.902344 22.1152 0.902344 19.792V7.43684C0.902344 6.90884 1.22134 6.59204 1.75301 6.59204H26.7413C27.1667 6.59204 27.4857 6.90884 27.4857 7.43684V19.792C27.4857 22.1152 25.5717 24.016 23.2323 24.016ZM2.49734 8.17604V19.792C2.49734 21.2704 3.66701 22.432 5.15568 22.432H23.2323C24.721 22.432 25.8907 21.2704 25.8907 19.792V8.17604H2.49734Z" fill="black"/>
<path d="M17.3844 20.1088H10.4727C10.0474 20.1088 9.62207 19.792 9.62207 19.264C9.62207 18.736 9.94107 18.4192 10.4727 18.4192H17.3844C18.4477 18.4192 19.2984 17.5744 19.2984 16.5184C19.2984 15.4624 18.4477 14.7232 17.3844 14.7232H10.4727C10.1537 14.7232 9.83474 14.512 9.7284 14.1952C9.62207 13.8784 9.7284 13.5616 9.94107 13.3504L13.1311 10.7104C13.4501 10.3936 13.9817 10.4992 14.3007 10.816C14.6197 11.1328 14.5134 11.6608 14.1944 11.9776L12.7057 13.2448H17.3844C19.2984 13.2448 20.7871 14.8288 20.7871 16.624C20.7871 18.4192 19.2984 20.1088 17.3844 20.1088Z" fill="black"/>
<path d="M14.7262 6.06403C14.0882 6.06403 13.6628 5.64163 13.6628 5.00803C13.6628 4.37443 14.0882 3.95203 14.7262 3.95203C15.3642 3.95203 15.7895 4.37443 15.7895 5.00803C15.7895 5.64163 15.3642 6.06403 14.7262 6.06403Z" fill="black"/>
</g>
<defs>
<clipPath id="clip0_94_130">
<rect width="29" height="24" fill="white" transform="translate(0.5)"/>
</clipPath>
</defs>
</svg>
