<svg width="24" height="24" viewBox="0 0 24 24" fill="none" xmlns="http://www.w3.org/2000/svg">
<path d="M15.4371 5.592H8.54426C7.61786 5.592 6.86426 4.8384 6.86426 3.912V2.0928C6.86426 1.6944 7.18586 1.3728 7.58426 1.3728C7.98266 1.3728 8.30426 1.6944 8.30426 2.0928V3.912C8.30426 4.0464 8.40986 4.152 8.54426 4.152H15.4323C15.5667 4.152 15.6723 4.0464 15.6723 3.912V2.0928C15.6723 1.6944 15.9939 1.3728 16.3923 1.3728C16.7907 1.3728 17.1123 1.6944 17.1123 2.0928V3.912C17.1171 4.8384 16.3635 5.592 15.4371 5.592Z" fill="black"/>
<path d="M15.5899 10.3824H8.38992C7.99152 10.3824 7.66992 10.0608 7.66992 9.66238C7.66992 9.26398 7.99152 8.94238 8.38992 8.94238H15.5899C15.9883 8.94238 16.3099 9.26398 16.3099 9.66238C16.3099 10.0608 15.9883 10.3824 15.5899 10.3824ZM15.5899 14.2224H8.38992C7.99152 14.2224 7.66992 13.9008 7.66992 13.5024C7.66992 13.104 7.99152 12.7824 8.38992 12.7824H15.5899C15.9883 12.7824 16.3099 13.104 16.3099 13.5024C16.3099 13.9008 15.9883 14.2224 15.5899 14.2224Z" fill="black"/>
<path d="M18.2735 23.4H5.48154C3.54714 23.4 1.97754 21.8256 1.97754 19.896V4.10398C1.97754 2.16958 3.55194 0.599976 5.48154 0.599976H18.5135C20.4479 0.599976 22.0175 2.17438 22.0175 4.10398V10.6704L21.8687 19.8576C21.8447 21.8112 20.2271 23.4 18.2735 23.4ZM5.48154 2.03998C4.34394 2.03998 3.41754 2.96638 3.41754 4.10398V19.8912C3.41754 21.0288 4.34394 21.9552 5.48154 21.9552H18.2735C19.4447 21.9552 20.4143 21 20.4335 19.8288L20.5823 10.6464V4.10398C20.5823 2.96638 19.6559 2.03998 18.5183 2.03998H5.48154Z" fill="black"/>
</svg>
