<svg width="20" height="20" viewBox="0 0 20 20" fill="none" xmlns="http://www.w3.org/2000/svg">
<g clip-path="url(#clip0_922_1798)">
<path d="M4.47169 5.76498C4.47169 2.76507 6.88367 0.324829 9.84887 0.324829C12.814 0.324829 15.226 2.76507 15.226 5.76498C15.226 8.76507 12.814 11.205 9.84887 11.205C6.88367 11.205 4.47169 8.76507 4.47169 5.76498ZM0 19.8065C0.115771 18.491 0.739968 13.8299 5.53759 11.3336C6.72749 12.2785 8.22232 12.8475 9.84889 12.8475C11.4843 12.8475 12.9873 12.2728 14.1803 11.3181C18.9987 13.8039 19.5804 18.4324 19.6977 19.8063C19.6691 19.8343 0.0284414 19.8087 0 19.8065Z" fill="#07C160"/>
</g>
<defs>
<clipPath id="clip0_922_1798">
<rect width="20" height="20" fill="white"/>
</clipPath>
</defs>
</svg>
