<svg width="19" height="18" viewBox="0 0 19 18" fill="none" xmlns="http://www.w3.org/2000/svg">
<path d="M6.90352 0.199707L5.31564 1.97302H2.56463C1.61059 1.97302 0.830811 2.77123 0.830811 3.74633V14.3819C0.830811 15.357 1.61059 16.1552 2.56463 16.1552H16.4439C17.3979 16.1552 18.1777 15.357 18.1777 14.3819V3.74633C18.1777 2.77123 17.3979 1.97302 16.4439 1.97302H13.695L12.1071 0.199707H6.90352ZM9.50424 13.4952C7.11044 13.4952 5.16753 11.5105 5.16753 9.06412C5.16753 6.61772 7.11044 4.63299 9.50424 4.63299C11.898 4.63299 13.841 6.61772 13.841 9.06412C13.841 11.5105 11.898 13.4952 9.50424 13.4952ZM9.50424 11.8988C11.0377 11.8988 12.2792 10.6282 12.2792 9.06196C12.2792 7.49575 11.0355 6.22509 9.50424 6.22509C7.97299 6.22509 6.72926 7.49575 6.72926 9.06196C6.72926 10.6282 7.97082 11.8988 9.50424 11.8988Z" fill="white"/>
</svg>
