<svg width="20" height="20" viewBox="0 0 20 20" fill="none" xmlns="http://www.w3.org/2000/svg">
<g clip-path="url(#clip0_922_1792)">
<path opacity="0.01" d="M0 0H20V20H0V0Z" fill="#202425"/>
<path d="M12.4713 0.471314C12.3462 0.346333 12.1767 0.276123 11.9999 0.276123C11.8231 0.276123 11.6536 0.346333 11.5286 0.471314L7.99992 3.99998H15.9999L12.4713 0.471314ZM5.99992 18C5.99994 18.1751 5.96547 18.3485 5.89847 18.5103C5.83147 18.6721 5.73326 18.8191 5.60945 18.9429C5.48564 19.0667 5.33864 19.165 5.17687 19.232C5.01509 19.299 4.84169 19.3335 4.66659 19.3335C4.49148 19.3335 4.31808 19.299 4.1563 19.232C3.99453 19.165 3.84753 19.0667 3.72372 18.9429C3.59991 18.8191 3.5017 18.6721 3.4347 18.5103C3.3677 18.3485 3.33323 18.1751 3.33325 18C3.33329 17.6464 3.47379 17.3073 3.72383 17.0573C3.97388 16.8073 4.31299 16.6668 4.66659 16.6668C5.02018 16.6668 5.35929 16.8073 5.60934 17.0573C5.85938 17.3073 5.99988 17.6464 5.99992 18ZM17.9999 18C17.9999 18.1751 17.9655 18.3485 17.8985 18.5103C17.8315 18.6721 17.7333 18.8191 17.6095 18.9429C17.4856 19.0667 17.3386 19.165 17.1769 19.232C17.0151 19.299 16.8417 19.3335 16.6666 19.3335C16.4915 19.3335 16.3181 19.299 16.1563 19.232C15.9945 19.165 15.8475 19.0667 15.7237 18.9429C15.5999 18.8191 15.5017 18.6721 15.4347 18.5103C15.3677 18.3485 15.3332 18.1751 15.3333 18C15.3333 17.6464 15.4738 17.3073 15.7238 17.0573C15.9739 16.8073 16.313 16.6668 16.6666 16.6668C17.0202 16.6668 17.3593 16.8073 17.6093 17.0573C17.8594 17.3073 17.9999 17.6464 17.9999 18Z" fill="#FFAA44"/>
<path d="M0.666667 2C0.489856 2 0.320286 2.07024 0.195262 2.19526C0.0702379 2.32029 0 2.48986 0 2.66667C0 2.84348 0.0702379 3.01305 0.195262 3.13807C0.320286 3.2631 0.489856 3.33333 0.666667 3.33333H1.45933L4.01333 15.4707C4.04488 15.6205 4.12704 15.7549 4.24602 15.8513C4.365 15.9477 4.51354 16.0002 4.66667 16H16.6667C16.8435 16 17.013 15.9298 17.1381 15.8047C17.2631 15.6797 17.3333 15.5101 17.3333 15.3333C17.3333 15.1565 17.2631 14.987 17.1381 14.8619C17.013 14.7369 16.8435 14.6667 16.6667 14.6667H5.20733L5.06733 14H16.8307C16.9755 13.9999 17.1163 13.9527 17.2319 13.8655C17.3475 13.7783 17.4315 13.6559 17.4713 13.5167L19.7573 5.51667C19.7857 5.41741 19.7907 5.31292 19.7718 5.21143C19.7529 5.10993 19.7107 5.01421 19.6485 4.9318C19.5864 4.84939 19.5059 4.78255 19.4135 4.73654C19.3211 4.69053 19.2192 4.66661 19.116 4.66667H3.10267L2.65267 2.52933C2.62115 2.3796 2.53908 2.24527 2.42024 2.14889C2.30139 2.0525 2.15301 1.99993 2 2H0.666667Z" fill="#07C160"/>
</g>
<defs>
<clipPath id="clip0_922_1792">
<rect width="20" height="20" fill="white"/>
</clipPath>
</defs>
</svg>
