<svg width="17" height="16" viewBox="0 0 17 16" fill="none" xmlns="http://www.w3.org/2000/svg">
  <path
    d="M13.9767 2.34287C10.8558 -0.781041 5.79539 -0.781041 2.67403 2.34337C-0.447339 5.46779 -0.44684 10.5321 2.67453 13.6561C5.79589 16.7805 10.8558 16.7805 13.9767 13.6571C17.0975 10.5336 17.098 5.46729 13.9767 2.34287ZM10.141 10.0012C9.33034 10.8126 8.68799 11.6606 8.27241 12.4191C7.85682 11.6606 7.21447 10.8126 6.40378 10.0012C5.5931 9.18969 4.74595 8.5467 3.98821 8.13072C4.74595 7.71473 5.5931 7.07174 6.40378 6.26027C7.21447 5.44879 7.85682 4.60081 8.27241 3.84233C8.68799 4.60081 9.33034 5.44879 10.141 6.26027C10.9517 7.07174 11.7989 7.71473 12.5566 8.13072C11.7994 8.5467 10.9517 9.19019 10.141 10.0012Z"
    fill="#07C160 " />
</svg>