<svg width="16" height="16" viewBox="0 0 16 16" fill="none" xmlns="http://www.w3.org/2000/svg">
  <path opacity="0.5"
    d="M13.6434 2.34287C10.5226 -0.781041 5.46214 -0.781041 2.34078 2.34337C-0.780591 5.46779 -0.780092 10.5321 2.34127 13.6561C5.46264 16.7805 10.5226 16.7805 13.6434 13.6571C16.7643 10.5336 16.7648 5.46729 13.6434 2.34287ZM9.80778 10.0012C8.99709 10.8126 8.35474 11.6606 7.93916 12.4191C7.52357 11.6606 6.88122 10.8126 6.07053 10.0012C5.25984 9.18969 4.4127 8.5467 3.65496 8.13072C4.4127 7.71473 5.25984 7.07174 6.07053 6.26027C6.88122 5.44879 7.52357 4.60081 7.93916 3.84233C8.35474 4.60081 8.99709 5.44879 9.80778 6.26027C10.6185 7.07174 11.4656 7.71473 12.2234 8.13072C11.4661 8.5467 10.6185 9.19019 9.80778 10.0012Z"
    fill="#07C160 " />
</svg>