<svg width="12" height="13" viewBox="0 0 12 13" fill="none" xmlns="http://www.w3.org/2000/svg">
<g clip-path="url(#clip0_96_873)">
<path d="M8.2424 10.9912C8.24229 11.0895 8.22282 11.1869 8.18509 11.2777C8.14737 11.3685 8.09212 11.451 8.02252 11.5204C7.95291 11.5899 7.8703 11.6449 7.77941 11.6825C7.68853 11.72 7.59113 11.7393 7.4928 11.7392H1.4992C1.40087 11.7393 1.30347 11.72 1.21259 11.6825C1.1217 11.6449 1.03909 11.5899 0.969484 11.5204C0.899877 11.451 0.844633 11.3685 0.806905 11.2777C0.769177 11.1869 0.749705 11.0895 0.7496 10.9912V5.00317C0.7496 4.58957 1.0856 4.25517 1.4992 4.25517H2.248V3.50637H1.4992C1.3024 3.50616 1.10748 3.54474 0.925602 3.61991C0.74372 3.69508 0.578437 3.80535 0.439203 3.94444C0.299968 4.08353 0.189513 4.24869 0.114151 4.43049C0.0387896 4.61229 1.02639e-07 4.80717 2.14957e-07 5.00397V10.992C-0.00010524 11.1887 0.0385917 11.3835 0.113876 11.5653C0.18916 11.747 0.299552 11.9121 0.438733 12.0512C0.577915 12.1902 0.743151 12.3004 0.924984 12.3755C1.10682 12.4506 1.30167 12.4891 1.4984 12.4888H7.4912C7.68786 12.4891 7.88265 12.4506 8.06443 12.3756C8.24621 12.3005 8.41141 12.1904 8.55058 12.0515C8.68975 11.9125 8.80016 11.7475 8.87549 11.5658C8.95082 11.3842 8.9896 11.1894 8.9896 10.9928V10.244H8.2408V10.992L8.2424 10.9912ZM10.4896 0.51117H4.496C4.29926 0.511065 4.10444 0.549724 3.92265 0.624938C3.74086 0.700152 3.57567 0.810448 3.43652 0.949524C3.29737 1.0886 3.18699 1.25373 3.11167 1.43548C3.03636 1.61723 2.9976 1.81203 2.9976 2.00877V7.99597C2.9976 8.82237 3.668 9.49197 4.496 9.49197H10.4904C11.3184 9.49197 11.988 8.82157 11.988 7.99597V2.00877C11.9879 1.8121 11.9491 1.61738 11.8737 1.43572C11.7983 1.25407 11.6879 1.08903 11.5488 0.950041C11.4097 0.81105 11.2445 0.700826 11.0628 0.625661C10.881 0.550497 10.6863 0.511865 10.4896 0.51197V0.51117ZM11.2392 7.99677C11.2392 8.09507 11.2198 8.1924 11.1822 8.2832C11.1445 8.37401 11.0894 8.4565 11.0198 8.52597C10.9503 8.59544 10.8677 8.65052 10.7769 8.68806C10.686 8.72561 10.5887 8.74487 10.4904 8.74477H4.496C4.29754 8.74477 4.10721 8.66599 3.9668 8.52573C3.8264 8.38548 3.74741 8.19523 3.7472 7.99677V2.00877C3.7472 1.59597 4.0832 1.26077 4.496 1.26077H10.4904C10.904 1.26077 11.2392 1.59597 11.2392 2.00877V7.99677Z" fill="#5F6269"/>
</g>
<defs>
<clipPath id="clip0_96_873">
<rect width="12" height="12" fill="white" transform="translate(0 0.5)"/>
</clipPath>
</defs>
</svg>
