<svg width="23" height="24" viewBox="0 0 23 24" fill="none" xmlns="http://www.w3.org/2000/svg">
  <path
    d="M19.9334 13.5333H16.8668C16.2568 13.5333 15.6718 13.7756 15.2404 14.207C14.8091 14.6383 14.5668 15.2233 14.5668 15.8333V19.2833C14.5668 19.8933 14.8091 20.4783 15.2404 20.9097C15.6718 21.341 16.2568 21.5833 16.8668 21.5833H19.9334C20.3401 21.5833 20.7301 21.4218 21.0177 21.1342C21.3052 20.8467 21.4668 20.4567 21.4668 20.05V15.0667C21.4668 14.66 21.3052 14.27 21.0177 13.9824C20.7301 13.6949 20.3401 13.5333 19.9334 13.5333ZM16.8668 15.0667H19.9334V20.05H16.8668C16.6634 20.05 16.4684 19.9692 16.3247 19.8254C16.1809 19.6817 16.1001 19.4867 16.1001 19.2833V15.8333C16.1001 15.7326 16.1199 15.633 16.1585 15.5399C16.197 15.4469 16.2535 15.3624 16.3247 15.2912C16.3959 15.22 16.4804 15.1635 16.5734 15.125C16.6664 15.0865 16.7661 15.0667 16.8668 15.0667ZM6.13345 13.5333H3.06678C2.66012 13.5333 2.27011 13.6949 1.98255 13.9824C1.69499 14.27 1.53345 14.66 1.53345 15.0667V20.05C1.53345 20.4567 1.69499 20.8467 1.98255 21.1342C2.27011 21.4218 2.66012 21.5833 3.06678 21.5833H6.13345C6.74345 21.5833 7.32846 21.341 7.75979 20.9097C8.19113 20.4783 8.43345 19.8933 8.43345 19.2833V15.8333C8.43345 15.2233 8.19113 14.6383 7.75979 14.207C7.32846 13.7756 6.74345 13.5333 6.13345 13.5333ZM3.06678 15.0667H6.13345C6.23413 15.0667 6.33382 15.0865 6.42684 15.125C6.51985 15.1635 6.60437 15.22 6.67556 15.2912C6.74675 15.3624 6.80323 15.4469 6.84175 15.5399C6.88028 15.633 6.90011 15.7326 6.90011 15.8333V19.2833C6.90011 19.4867 6.81934 19.6817 6.67556 19.8254C6.53178 19.9692 6.33678 20.05 6.13345 20.05H3.06678V15.0667Z"
    fill="#333333" />
  <path
    d="M11.5001 2.41663C16.9289 2.41663 21.3771 6.81078 21.4656 12.2192L21.4668 12.3833V16.9833C21.4677 17.1822 21.3912 17.3737 21.2535 17.5173C21.1158 17.6609 20.9277 17.7454 20.7289 17.7528C20.5301 17.7603 20.3362 17.6902 20.1881 17.5573C20.04 17.4245 19.9494 17.2392 19.9354 17.0408L19.9334 16.9833V12.3833C19.9334 7.74688 16.1365 3.94996 11.5001 3.94996C6.91008 3.94996 3.14268 7.67098 3.06793 12.2445L3.06678 12.3833V16.9833C3.06767 17.1822 2.99119 17.3737 2.8535 17.5173C2.71581 17.6609 2.52769 17.7454 2.32889 17.7528C2.13008 17.7603 1.93616 17.6902 1.78809 17.5573C1.64002 17.4245 1.54939 17.2392 1.53536 17.0408L1.53345 16.9833V12.3833C1.53345 6.89971 6.01653 2.41663 11.5001 2.41663Z"
    fill="#333333" />
  <path
    d="M15.3329 7.0166C15.487 7.0166 15.6304 7.06184 15.7504 7.14004L15.7933 7.17032C17.3401 8.33144 18.1922 10.1638 18.2344 12.2372L18.2359 12.3932L16.7026 12.394C16.7014 10.7687 16.0919 9.36988 14.9784 8.47863L14.8726 8.39622C14.744 8.2996 14.649 8.16499 14.6011 8.01144C14.5533 7.85788 14.5549 7.69316 14.6058 7.54058C14.6567 7.38801 14.7544 7.25531 14.8848 7.16128C15.0153 7.06724 15.1721 7.01663 15.3329 7.0166Z"
    fill="#07C160 " />
</svg>