<svg width="20" height="20" viewBox="0 0 20 20" fill="none" xmlns="http://www.w3.org/2000/svg">
<path d="M4.96888 15.7169L4.96829 15.6234C4.96829 15.6552 4.96853 15.6863 4.96888 15.7169ZM11.9961 5.05933C11.5641 5.05933 11.2139 5.40915 11.2139 5.8415L11.2212 15.6493C11.2212 16.0809 11.5714 16.4315 12.0033 16.4315C12.4353 16.4315 12.7855 16.0809 12.7855 15.6493L12.7787 5.8415C12.7787 5.40917 12.4284 5.05933 11.9961 5.05933ZM17.4461 2.73646L11.2178 2.73936L11.2143 1.93063C11.2143 1.49828 10.864 1.14844 10.4317 1.14844C10.2893 1.14844 10.1558 1.18669 10.0408 1.25321C9.92564 1.18669 9.79214 1.14844 9.64953 1.14844C9.21758 1.14844 8.86736 1.49828 8.86736 1.93063L8.87104 2.74046L4.37659 2.74254C4.31353 2.72615 4.24741 2.71739 4.17924 2.71739C4.11083 2.71739 4.04449 2.72623 3.98125 2.74272L2.55416 2.74338C2.12222 2.74338 1.77197 3.09398 1.77197 3.52555C1.77197 3.95789 2.1222 4.30774 2.55416 4.30774L3.39745 4.30734L3.40317 16.3758H3.40433V17.2068C3.40433 18.0708 4.10477 18.7712 4.96869 18.7712H5.75087V18.7771L14.3548 18.7721V18.7712H15.137C15.9898 18.7712 16.6829 18.0886 16.7006 17.24L16.6942 5.84609C16.6942 5.41377 16.344 5.06392 15.912 5.06392C15.48 5.06392 15.1298 5.41377 15.1298 5.84609L15.1354 15.7938C15.1079 16.9718 14.7722 17.1877 13.573 17.1877L14.3851 17.2077L5.50924 17.2129L6.53264 17.1877C5.30773 17.1877 4.98372 16.9627 4.96888 15.7169L4.97852 17.2132H4.96791L4.96179 4.30658L9.58723 4.30444C9.61016 4.30646 9.63334 4.30769 9.65679 4.30769C9.68053 4.30769 9.70397 4.30646 9.72718 4.30438L10.3647 4.30408C10.3891 4.3064 10.4139 4.30769 10.439 4.30769C10.4644 4.30769 10.4894 4.30638 10.5142 4.30402L17.4461 4.30082C17.8781 4.30082 18.2284 3.95098 18.2284 3.51865C18.2284 3.0863 17.8781 2.73646 17.4461 2.73646ZM15.1355 15.9237L15.1362 17.2072H15.1272L15.1355 15.9237ZM8.08519 5.05933C7.65323 5.05933 7.303 5.40915 7.303 5.8415L7.31026 15.6493C7.31026 16.0809 7.66048 16.4315 8.09247 16.4315C8.52441 16.4315 8.87464 16.0809 8.87464 15.6493L8.86738 5.8415C8.86736 5.40917 8.51714 5.05933 8.08519 5.05933Z" fill="#272636"/>
</svg>
