<svg width="14" height="14" viewBox="0 0 14 14" fill="none" xmlns="http://www.w3.org/2000/svg">
<rect x="3" y="3" width="8" height="8" fill="white"/>
<path d="M13.0375 2.45C13.0375 2.1875 12.8625 1.925 12.6 1.925H12.075C12.075 1.925 10.9375 1.925 9.8 1.4C8.575 1.05 7.7875 0.4375 7.7875 0.4375L7.4375 0.175C7.2625 0.0875 7 0.0875 6.825 0.175L6.5625 0.4375C6.5625 0.4375 5.775 0.9625 4.55 1.4875C3.4125 1.925 2.3625 2.0125 2.275 2.0125H1.75C1.4875 2.0125 1.3125 2.275 1.3125 2.5375V7.875C1.3125 9.275 2.1 10.7625 3.4125 12.075C4.6375 13.3 6.125 14 7.175 14C8.225 14 9.7125 13.3 10.9375 12.075C12.3375 10.7625 13.0375 9.275 13.0375 7.875V2.45ZM10.15 5.775L6.9125 9.0125C6.825 9.1 6.65 9.1875 6.475 9.1875C6.3 9.1875 6.125 9.1 6.0375 9.0125L4.4625 7.35C4.375 7.2625 4.2875 7.0875 4.2875 6.9125C4.2875 6.7375 4.375 6.5625 4.4625 6.475C4.725 6.2125 5.075 6.2125 5.3375 6.475L6.475 7.6125L9.275 4.8125C9.5375 4.55 9.8875 4.55 10.15 4.8125C10.2375 4.9 10.325 5.075 10.325 5.25C10.325 5.5125 10.325 5.6875 10.15 5.775Z" fill="#1E94E8"/>
</svg>
