<svg width="28" height="28" viewBox="0 0 28 28" fill="none" xmlns="http://www.w3.org/2000/svg">
  <path
    d="M13.9603 1.74487C7.2143 1.74487 1.74561 7.2136 1.74561 13.9596C1.74561 20.7055 7.2143 26.1743 13.9603 26.1743C20.7063 26.1743 26.175 20.7056 26.175 13.9596C26.175 7.21362 20.7063 1.74487 13.9603 1.74487ZM20.6353 12.0825L10.9432 21.774C10.8332 21.884 10.6866 21.9411 10.5395 21.9411C10.4341 21.9411 10.3274 21.912 10.2334 21.8527C10.0076 21.709 9.9124 21.428 10.0036 21.1771L12.0059 15.672H7.68892C7.45858 15.672 7.25048 15.5329 7.16212 15.3196C7.07375 15.1064 7.12278 14.8601 7.28585 14.6971L15.8377 6.14517C16.0167 5.965 16.2927 5.92681 16.515 6.04883C16.7374 6.17083 16.852 6.42512 16.7972 6.67256L15.8115 11.111H20.2317C20.462 11.111 20.6707 11.249 20.7585 11.4616C20.8469 11.6748 20.7978 11.9194 20.6353 12.0825Z"
    fill="#07C160 " />
</svg>