<svg width="12" height="12" viewBox="0 0 12 12" fill="none" xmlns="http://www.w3.org/2000/svg">
<path d="M11.145 3.40064H10.545C10.92 3.05032 11.16 2.5879 11.16 2.02739C11.16 1.32676 10.7325 0.570068 9.54 0.570068C7.965 0.570068 6.6525 2.1465 6.03 3.0293C5.4075 2.1465 4.05 0.577075 2.475 0.577075C1.275 0.577075 0.855 1.33376 0.855 2.0344C0.855 2.60192 1.1025 3.05733 1.485 3.40765H0.855C0.3825 3.40765 0 3.76497 0 4.21338V5.24332C0 5.67771 0.3675 6.02803 0.825 6.04204H11.175C11.6325 6.02803 12 5.67771 12 5.24332V4.20637C12 3.76497 11.6175 3.40064 11.145 3.40064ZM3.81 3.40064C2.8125 3.40064 1.71 2.90319 1.71 2.01338C1.71 1.57198 1.95 1.3758 2.475 1.3758C3.54 1.3758 4.6575 2.55287 5.265 3.40064H3.81ZM8.235 3.40064H6.7875C7.395 2.55287 8.4675 1.3758 9.5325 1.3758C10.065 1.3758 10.2975 1.58599 10.2975 2.02739C10.2975 2.92421 9.24 3.40064 8.235 3.40064ZM0.9225 10.6803C0.9225 11.1287 1.32 11.493 1.8075 11.493H5.535V6.89682H0.9225V10.6803ZM6.465 11.493H10.2525C10.71 11.493 11.085 11.1287 11.085 10.6733V6.89682H6.4725V11.493H6.465Z" fill="white"/>
</svg>
