<svg width="14" height="14" viewBox="0 0 14 14" fill="none" xmlns="http://www.w3.org/2000/svg">
  <path
    d="M1.53296 3.88403C1.53296 4.25298 1.67437 4.61831 1.94911 4.95918C2.22385 5.30004 2.62655 5.60976 3.13421 5.87065C3.64187 6.13154 4.24455 6.33848 4.90784 6.47967C5.57113 6.62086 6.28204 6.69353 6.99998 6.69353C7.71792 6.69353 8.42882 6.62086 9.09211 6.47967C9.7554 6.33848 10.3581 6.13154 10.8657 5.87065C11.3734 5.60976 11.7761 5.30004 12.0508 4.95918C12.3256 4.61831 12.467 4.25298 12.467 3.88403C12.467 3.1389 11.891 2.42429 10.8657 1.89741C9.84048 1.37052 8.44992 1.07452 6.99998 1.07452C5.55003 1.07452 4.15948 1.37052 3.13421 1.89741C2.10895 2.42429 1.53296 3.1389 1.53296 3.88403Z"
    fill="#07C160 " />
  <path
    d="M6.99998 7.53877C4.76688 7.53877 2.84657 6.8507 1.99785 5.86462C1.69903 6.21181 1.53296 6.59592 1.53296 6.99998C1.53296 8.55163 3.98063 9.80949 6.99998 9.80949C10.0193 9.80949 12.467 8.55163 12.467 6.99998C12.467 6.59592 12.3009 6.21181 12.0021 5.86462C11.1534 6.8507 9.23307 7.53877 6.99998 7.53877Z"
    fill="#07C160 " />
  <path
    d="M6.99998 10.7322C4.73774 10.7322 2.79647 10.0261 1.96513 9.01935C1.6869 9.35628 1.53296 9.72689 1.53296 10.116C1.53296 11.6676 3.98063 12.9255 6.99998 12.9255C10.0193 12.9255 12.467 11.6676 12.467 10.116C12.467 9.72688 12.3131 9.35628 12.0348 9.01935C11.2035 10.0261 9.26221 10.7322 6.99998 10.7322Z"
    fill="#07C160 " />
</svg>