<svg width="14" height="14" viewBox="0 0 14 14" fill="none" xmlns="http://www.w3.org/2000/svg">
<path d="M12 2H1V4.75H1.01228V6.76339H1V7.54911H1.01228V9.51339H1V10.2991H1.01228V12.9963H4.38839V13H5.17411V12.9963H7.82589V13H8.61161V12.9963H11.9877V4.75H12V2ZM7.82589 6.76339H5.17411V4.75H7.82589V6.76339ZM7.82589 9.51339H5.17411V7.54911H7.82589V9.51339ZM8.61161 7.54911H11.202V9.51339H8.61161V7.54911ZM1.79799 4.75H4.38839V6.76339H1.79799V4.75ZM1.79799 7.54911H4.38839V9.51339H1.79799V7.54911ZM1.79799 12.2106V10.2991H4.38839V12.2106H1.79799ZM5.17411 12.2106V10.2991H7.82589V12.2106H5.17411ZM8.61161 12.2106V10.2991H11.202V12.2106H8.61161ZM11.202 6.76339H8.61161V4.75H11.202V6.76339Z" fill="#07C160"/>
</svg>
