<svg width="12" height="13" viewBox="0 0 12 13" fill="none" xmlns="http://www.w3.org/2000/svg">
<g clip-path="url(#clip0_2_1175)">
<path d="M11.6001 11.2L10.7001 8.2C10.5501 7.8 10.2001 7.5 9.7501 7.5H8.9501C8.9501 7.5 8.9501 7.55 8.9001 7.55C9.5001 6.65 9.9501 5.55 10.0001 4.5C10.0001 2.3 8.2001 0.5 6.0001 0.5C3.8001 0.5 2.0001 2.3 2.0001 4.5C1.9501 5.55 2.4001 6.65 3.0001 7.55V7.5H2.2501C1.8001 7.5 1.4001 7.8 1.3001 8.2L0.400098 11.2C0.350098 11.3 0.350098 11.4 0.350098 11.5C0.350098 12.05 0.800098 12.5 1.3501 12.5H10.6501C10.7501 12.5 10.8501 12.5 10.9501 12.45C11.4501 12.3 11.7501 11.75 11.6001 11.2ZM6.0001 1.25C7.8001 1.25 9.2501 2.7 9.2501 4.5C9.2001 5.55 8.6501 6.75 7.8001 7.8C7.1001 8.65 6.2501 9.25 6.0001 9.25C5.7001 9.25 4.8501 8.65 4.1501 7.8C3.2501 6.75 2.7001 5.55 2.7501 4.5C2.7501 2.7 4.2001 1.25 6.0001 1.25ZM10.7501 11.75H1.3501C1.2001 11.75 1.1001 11.65 1.1001 11.5V11.45L2.0001 8.45C2.0501 8.35 2.1501 8.25 2.2501 8.25H3.5501V8.2C4.4501 9.25 5.5001 10 6.0501 10C6.6001 10 7.6001 9.3 8.4501 8.2V8.25H9.8001C9.9001 8.25 10.0001 8.3 10.0501 8.45L10.9501 11.45C10.9501 11.55 10.8501 11.7 10.7501 11.75Z" fill="black"/>
<path d="M6 6C6.85 6 7.5 5.35 7.5 4.5C7.5 3.65 6.85 3 6 3C5.15 3 4.5 3.65 4.5 4.5C4.5 5.35 5.15 6 6 6ZM6 3.75C6.4 3.75 6.75 4.1 6.75 4.5C6.75 4.9 6.4 5.25 6 5.25C5.6 5.25 5.25 4.9 5.25 4.5C5.25 4.1 5.6 3.75 6 3.75Z" fill="black"/>
</g>
<defs>
<clipPath id="clip0_2_1175">
<rect width="12" height="12" fill="white" transform="translate(0 0.5)"/>
</clipPath>
</defs>
</svg>
