<svg width="26" height="26" viewBox="0 0 26 26" fill="none" xmlns="http://www.w3.org/2000/svg">
<path d="M20.8541 20.3125H13.9035L11.7081 22.7519C11.6367 22.8312 11.5504 22.8956 11.4541 22.9416C11.3578 22.9876 11.2534 23.0141 11.1468 23.0197C11.0403 23.0253 10.9337 23.0099 10.8331 22.9743C10.7325 22.9387 10.6399 22.8836 10.5606 22.8123C10.4812 22.7409 10.4168 22.6546 10.3708 22.5583C10.3249 22.462 10.2983 22.3576 10.2927 22.251C10.2871 22.1444 10.3025 22.0378 10.3381 21.9372C10.3737 21.8366 10.4288 21.744 10.5002 21.6647L12.9377 18.9564C13.0139 18.8717 13.107 18.8041 13.2111 18.7577C13.3151 18.7114 13.4277 18.6875 13.5416 18.6875H20.8541C21.032 18.6875 21.208 18.6524 21.3723 18.5844C21.5366 18.5163 21.6859 18.4166 21.8117 18.2908C21.9374 18.1651 22.0372 18.0158 22.1052 17.8515C22.1733 17.6872 22.2083 17.5111 22.2083 17.3333V5.95829C22.2083 5.78046 22.1733 5.60437 22.1052 5.44008C22.0372 5.27578 21.9374 5.1265 21.8117 5.00075C21.6859 4.87501 21.5366 4.77526 21.3723 4.70721C21.208 4.63915 21.032 4.60413 20.8541 4.60413H5.14579C4.96796 4.60413 4.79187 4.63915 4.62758 4.70721C4.46328 4.77526 4.314 4.87501 4.18825 5.00075C4.06251 5.1265 3.96276 5.27578 3.89471 5.44008C3.82665 5.60437 3.79163 5.78046 3.79163 5.95829V17.3333C3.79163 17.5111 3.82665 17.6872 3.89471 17.8515C3.96276 18.0158 4.06251 18.1651 4.18825 18.2908C4.314 18.4166 4.46328 18.5163 4.62758 18.5844C4.79187 18.6524 4.96796 18.6875 5.14579 18.6875H8.66663C8.88211 18.6875 9.08878 18.7731 9.24115 18.9254C9.39352 19.0778 9.47913 19.2845 9.47913 19.5C9.47913 19.7154 9.39352 19.9221 9.24115 20.0745C9.08878 20.2269 8.88211 20.3125 8.66663 20.3125H5.14579C3.50048 20.3125 2.16663 18.9786 2.16663 17.3333V5.95829C2.16663 4.31298 3.50048 2.97913 5.14579 2.97913H20.8541C22.4994 2.97913 23.8333 4.31298 23.8333 5.95829V17.3333C23.8333 18.9786 22.4994 20.3125 20.8541 20.3125ZM17.875 8.66663C18.0904 8.66663 18.2971 8.75223 18.4495 8.9046C18.6019 9.05697 18.6875 9.26364 18.6875 9.47913C18.6875 9.69461 18.6019 9.90128 18.4495 10.0536C18.2971 10.206 18.0904 10.2916 17.875 10.2916H8.12496C7.90947 10.2916 7.70281 10.206 7.55044 10.0536C7.39806 9.90128 7.31246 9.69461 7.31246 9.47913C7.31246 9.26364 7.39806 9.05697 7.55044 8.9046C7.70281 8.75223 7.90947 8.66663 8.12496 8.66663H17.875Z" fill="black"/>
<path d="M13.5745 13.238C13.4222 13.0856 13.2155 13 13 13H8.125C7.90951 13 7.70285 13.0856 7.55048 13.238C7.3981 13.3903 7.3125 13.597 7.3125 13.8125C7.3125 14.028 7.3981 14.2347 7.55048 14.387C7.70285 14.5394 7.90951 14.625 8.125 14.625H13C13.2155 14.625 13.4222 14.5394 13.5745 14.387C13.7269 14.2347 13.8125 14.028 13.8125 13.8125C13.8125 13.597 13.7269 13.3903 13.5745 13.238Z" fill="#07C160"/>
</svg>
