<svg width="32" height="24" viewBox="0 0 32 24" fill="none" xmlns="http://www.w3.org/2000/svg">
<path d="M19.7059 12.5157C19.7059 13.8437 17.8413 15.2615 16.6155 16.4923C16.3472 16.7618 15.6739 17.48 14.5976 18.6462V20.784H22.1576V1.90585H14.4425C13.9459 1.90585 13.5256 2.288 13.5256 2.74031V10.4609L13.7478 10.3138C13.9225 10.1988 14.9416 9.504 16.2401 9.45969C17.5385 9.41539 18.6136 10.176 19.077 10.6462C19.5404 11.1163 19.7059 11.8769 19.7059 12.5157ZM23.5213 20.784H25.9816C26.4788 20.784 26.8985 20.4025 26.8985 19.9495V2.74031C26.8985 2.288 26.4788 1.90585 25.9816 1.90585H23.5213V20.784ZM3.69238 22.6246V11.5034C3.69238 11.2412 3.85238 11.0092 4.101 10.9132L4.11331 10.9089L4.13361 10.8966L12.1164 4.01046V2.74031C12.117 1.50092 13.1601 0.49231 14.4432 0.49231H25.9816C27.2641 0.49231 28.3078 1.50092 28.3078 2.74031V19.9495C28.3078 21.1895 27.2641 22.1982 25.9816 22.1982H14.4432C14.037 22.1982 13.2308 22.1858 13.2308 21.7231L13.1853 19.3637L9.55884 23.712C9.49569 23.7664 9.4224 23.8078 9.34319 23.8338C9.26397 23.8597 9.18041 23.8698 9.0973 23.8633C9.01419 23.8569 8.93317 23.834 8.85893 23.7961C8.78468 23.7582 8.71867 23.706 8.66469 23.6425C8.61008 23.5789 8.56858 23.5052 8.5426 23.4256C8.51661 23.346 8.50666 23.262 8.51331 23.1785C8.51956 23.0951 8.54225 23.0138 8.58006 22.9392C8.61787 22.8647 8.67005 22.7983 8.73361 22.744C11.0272 20.1182 12.4235 18.5471 12.9232 18.0308C13.6727 17.2566 14.0216 16.8 15.3847 15.5692C16.7478 14.3385 16.9232 14.3385 17.5385 13.7231C18.1539 13.1077 18.4616 12.1846 17.8462 11.5692C17.2308 10.9538 16.8752 10.8935 16.2604 10.8935C15.0948 10.8935 14.0653 11.8406 14.0216 11.8812L13.3896 12.4462L9.57546 16.4111C9.45546 16.5354 9.293 16.6043 9.11946 16.6043C8.95392 16.6043 8.797 16.5409 8.67823 16.4258C8.55732 16.3081 8.48781 16.1474 8.48481 15.9787C8.48182 15.81 8.54558 15.6469 8.66223 15.5249L12.1164 11.9366V5.69046L4.96192 11.8609V23.24C4.96192 23.5908 4.677 23.8769 4.32684 23.8769C3.97731 23.8769 3.69238 22.976 3.69238 22.6246Z" fill="black"/>
</svg>
