<svg width="13" height="13" viewBox="0 0 13 13" fill="none" xmlns="http://www.w3.org/2000/svg">
<path d="M10.5449 2.88891H8.3421L9.29303 1.99817C9.43747 1.85372 9.43747 1.62502 9.29303 1.49261C9.2208 1.42039 9.12451 1.38428 9.01617 1.38428C8.91988 1.38428 8.82358 1.42039 8.73932 1.49261L7.24673 2.88891H5.79025L4.29766 1.49261C4.22543 1.42039 4.12914 1.38428 4.0208 1.38428C3.92451 1.38428 3.82821 1.42039 3.74395 1.49261C3.59951 1.63706 3.59951 1.86576 3.74395 1.99817L4.69488 2.88891H2.45599C1.49303 2.88891 0.722656 3.75557 0.722656 4.83891V9.06391C0.722656 10.1472 1.49303 11.0139 2.45599 11.0139H2.99766C2.99766 11.3389 3.28655 11.6158 3.63562 11.6158C3.98469 11.6158 4.27358 11.3509 4.27358 11.0139H8.7634C8.7634 11.3389 9.05229 11.6158 9.40136 11.6158C9.75043 11.6158 10.0393 11.3509 10.0393 11.0139H10.5328C11.4958 11.0139 12.2662 10.1352 12.2662 9.06391V4.83891C12.2782 3.75557 11.5078 2.88891 10.5449 2.88891ZM8.87173 7.29446L5.40506 9.31668C5.11617 9.4852 4.87543 9.3528 4.87543 9.00372V4.94724C4.87543 4.6102 5.11617 4.46576 5.40506 4.63428L8.87173 6.66854C9.16062 6.84909 9.16062 7.11391 8.87173 7.29446Z" fill="white"/>
</svg>
