<svg width="14" height="16" viewBox="0 0 14 16" fill="none" xmlns="http://www.w3.org/2000/svg">
<g clip-path="url(#clip0_922_1774)">
<path d="M6.81239 15.6875L6.57802 15.5586C6.51552 15.5234 5.01942 14.6895 3.5077 13.2969C2.61122 12.4707 1.89442 11.6172 1.38075 10.7598C0.720595 9.66016 0.390516 8.55273 0.398329 7.46484C0.410048 5.75 1.08192 4.14062 2.287 2.93164C3.49599 1.71875 5.10341 1.05273 6.8163 1.05273C8.52724 1.05273 10.1327 1.7207 11.3417 2.93359C12.5429 4.14062 13.2147 5.75 13.2343 7.46484C13.246 8.56445 12.9179 9.68164 12.2597 10.7832C11.746 11.6426 11.0292 12.4961 10.1308 13.3203C8.61513 14.707 7.11513 15.5273 7.05263 15.5625L6.81239 15.6875ZM6.81434 2.0293C3.83583 2.0293 1.39638 4.4707 1.37489 7.47266C1.3495 11.0273 5.74403 13.9141 6.8163 14.5664C7.287 14.2852 8.39247 13.584 9.48036 12.5859C10.7577 11.4121 12.2753 9.57422 12.2538 7.47461C12.2225 4.4707 9.78114 2.0293 6.81434 2.0293Z" fill="#FFFEFE"/>
<path d="M6.93555 10.7168L5.08594 8.86719C4.5918 8.37305 4.32031 7.7168 4.32031 7.01758C4.32031 6.31836 4.5918 5.66211 5.08594 5.16797C6.10547 4.14844 7.76563 4.14844 8.78516 5.16797C9.80469 6.1875 9.80469 7.84766 8.78516 8.86719L6.93555 10.7168ZM6.93555 5.37891C6.51563 5.37891 6.0957 5.53906 5.77734 5.85742C5.13867 6.49609 5.13867 7.53711 5.77734 8.17578L6.93555 9.33398L8.09375 8.17578C8.73242 7.53711 8.73242 6.49609 8.09375 5.85742C7.77344 5.53906 7.35547 5.37891 6.93555 5.37891Z" fill="white"/>
<path d="M6.5896 10.3707L7.28013 9.68018L10.1776 12.5776L9.48706 13.2682L6.5896 10.3707Z" fill="white"/>
</g>
<defs>
<clipPath id="clip0_922_1774">
<rect width="14" height="15" fill="white" transform="translate(0 0.5)"/>
</clipPath>
</defs>
</svg>
