<svg width="28" height="24" viewBox="0 0 28 24" fill="none" xmlns="http://www.w3.org/2000/svg">
<path d="M26.0553 8.44666C26.0553 8.42092 26.0529 8.39584 26.0516 8.37036C26.0602 8.27787 26.0496 8.18455 26.0204 8.0966L23.5182 0.606521C23.4236 0.323381 23.1601 0.152309 22.8835 0.164585C22.8711 0.163925 22.8596 0.160889 22.8471 0.160889H3.59701C3.58456 0.160889 3.57288 0.163925 3.56069 0.164585C3.284 0.152309 3.02066 0.323513 2.92608 0.606521L0.423707 8.09673C0.394645 8.18456 0.383973 8.27773 0.392394 8.3701C0.390982 8.39558 0.388672 8.42079 0.388672 8.44666V21.6467C0.388672 22.3756 0.96322 22.9667 1.67201 22.9667H24.772C25.4807 22.9667 26.0553 22.3756 26.0553 21.6467V8.44666ZM3.99086 1.48089H22.4531L24.3393 7.12666H2.10475L3.99086 1.48089ZM23.4887 21.6467H2.95534C2.24655 21.6467 1.67201 21.0556 1.67201 20.3267V9.76666C1.67201 9.03762 2.24655 8.44666 2.95534 8.44666H23.4887C24.1973 8.44666 24.772 9.03762 24.772 9.76666V10.9877H16.4303C16.0759 10.9877 15.7887 11.2831 15.7887 11.6477C15.7887 12.0122 16.0759 12.3077 16.4303 12.3077H24.772V16.2347H11.297C10.9425 16.2347 10.6553 16.5301 10.6553 16.8947C10.6553 17.2592 10.9425 17.5547 11.297 17.5547H24.772V20.3267C24.772 21.0556 24.1973 21.6467 23.4887 21.6467ZM9.27575 11.4167V18.0167C9.27572 18.1917 9.20811 18.3595 9.08778 18.4833C8.96745 18.6071 8.80426 18.6766 8.63409 18.6767H3.50076C3.33057 18.6767 3.16736 18.6071 3.04703 18.4833C2.92669 18.3596 2.85909 18.1917 2.85909 18.0167C2.85909 17.8416 2.92669 17.6737 3.04703 17.55C3.16736 17.4262 3.33057 17.3567 3.50076 17.3567H7.99242V11.4167C7.99242 11.0521 8.27963 10.7567 8.63409 10.7567C8.98854 10.7567 9.27575 11.0521 9.27575 11.4167Z" fill="black"/>
</svg>
