<svg width="18" height="18" viewBox="0 0 18 18" fill="none" xmlns="http://www.w3.org/2000/svg">
  <g clip-path="url(#clip0_2_200)">
    <path
      d="M14.625 8.25V9C14.625 9.19891 14.546 9.38968 14.4053 9.53033C14.2647 9.67098 14.0739 9.75 13.875 9.75H4.125C3.92609 9.75 3.73532 9.67098 3.59467 9.53033C3.45402 9.38968 3.375 9.19891 3.375 9V8.25H14.625Z"
      fill="#07C160 " />
    <path
      d="M16.875 11.2654C17.0642 11.2653 17.2465 11.3368 17.3852 11.4654C17.524 11.5941 17.6089 11.7704 17.6231 11.9591L17.625 12.0154V16.125C17.625 16.5098 17.4771 16.88 17.2119 17.1588C16.9466 17.4376 16.5844 17.6039 16.2 17.6231L16.125 17.625H1.87501C1.49017 17.625 1.12005 17.4771 0.841203 17.2119C0.562359 16.9466 0.396125 16.5844 0.376883 16.2L0.375008 16.125V12.0154C0.374137 11.8208 0.448953 11.6334 0.58365 11.4929C0.718347 11.3525 0.902376 11.2698 1.09686 11.2625C1.29134 11.2552 1.48105 11.3238 1.6259 11.4538C1.77075 11.5838 1.85941 11.765 1.87313 11.9591L1.87501 12.0154V16.125H16.125V12.0154C16.125 11.9169 16.1444 11.8194 16.1821 11.7284C16.2198 11.6374 16.275 11.5547 16.3447 11.485C16.4143 11.4154 16.497 11.3602 16.588 11.3225C16.679 11.2848 16.7765 11.2654 16.875 11.2654ZM16.125 0.375C16.5099 0.375 16.88 0.522913 17.1588 0.788146C17.4377 1.05338 17.6039 1.41564 17.6231 1.8L17.625 1.875V5.98463C17.6259 6.17924 17.5511 6.36658 17.4164 6.50706C17.2817 6.64753 17.0976 6.73015 16.9032 6.73745C16.7087 6.74476 16.519 6.67617 16.3741 6.54619C16.2293 6.41621 16.1406 6.23501 16.1269 6.04087L16.125 5.98463V1.875H1.87501V5.98463C1.87588 6.17924 1.80106 6.36658 1.66637 6.50706C1.53167 6.64753 1.34764 6.73015 1.15316 6.73745C0.958672 6.74476 0.768966 6.67617 0.624114 6.54619C0.479261 6.41621 0.390608 6.23501 0.376883 6.04087L0.375008 5.98425V1.875C0.375007 1.49016 0.522921 1.12004 0.788154 0.841196C1.05339 0.562352 1.41565 0.396117 1.80001 0.376875L1.87501 0.375H16.125Z"
      fill="#333333" />
  </g>
  <defs>
    <clipPath id="clip0_2_200">
      <rect width="18" height="18" fill="white" />
    </clipPath>
  </defs>
</svg>