<svg width="24" height="22" viewBox="0 0 24 22" fill="none" xmlns="http://www.w3.org/2000/svg">
<path d="M22.9809 12.0274L18.3507 20.4232C18.1895 20.7173 17.9524 20.9627 17.664 21.1339C17.3757 21.305 17.0467 21.3957 16.7113 21.3963H7.51655C7.18122 21.3957 6.85221 21.305 6.56386 21.1339C6.2755 20.9627 6.03837 20.7173 5.8772 20.4232L1.24703 12.0274C1.09139 11.7447 1.00977 11.4273 1.00977 11.1047C1.00977 10.782 1.09139 10.4646 1.24703 10.1819L5.8772 1.78609C6.03837 1.49203 6.2755 1.24662 6.56386 1.07545C6.85221 0.904286 7.18122 0.813646 7.51655 0.812988H16.7113C17.0467 0.813646 17.3757 0.904286 17.664 1.07545C17.9524 1.24662 18.1895 1.49203 18.3507 1.78609L22.9809 10.1819C23.1365 10.4646 23.2181 10.782 23.2181 11.1047C23.2181 11.4273 23.1365 11.7447 22.9809 12.0274ZM21.5593 11.2366C21.5814 11.1962 21.5931 11.1509 21.5931 11.1048C21.5931 11.0587 21.5814 11.0134 21.5593 10.973L16.9372 2.5772C16.9143 2.53518 16.8805 2.50009 16.8394 2.4756C16.7983 2.45111 16.7513 2.43812 16.7035 2.43799H7.52441C7.47655 2.43812 7.4296 2.45111 7.38848 2.4756C7.34737 2.50009 7.31359 2.53518 7.29068 2.5772L2.66863 10.973C2.64644 11.0134 2.63481 11.0587 2.63481 11.1048C2.63481 11.1509 2.64644 11.1962 2.66863 11.2366L7.29068 19.6324C7.31362 19.6744 7.34742 19.7094 7.38853 19.7338C7.42965 19.7583 7.47657 19.7712 7.52441 19.7713H16.7035C16.7513 19.7712 16.7982 19.7583 16.8394 19.7338C16.8805 19.7094 16.9143 19.6744 16.9372 19.6324L21.5593 11.2366ZM12.0441 15.3334C9.65072 15.3334 7.71074 13.3935 7.71074 11.0001C7.71074 8.60676 9.65072 6.66678 12.0441 6.66678C14.4372 6.66678 16.3774 8.60676 16.3774 11.0001C16.3774 13.3935 14.4372 15.3334 12.0441 15.3334ZM12.0441 13.7084C13.5399 13.7084 14.7524 12.4959 14.7524 11.0001C14.7524 9.5043 13.5399 8.29178 12.0441 8.29178C10.5483 8.29178 9.33574 9.5043 9.33574 11.0001C9.33574 12.4959 10.5483 13.7084 12.0441 13.7084Z" fill="black"/>
</svg>
