<svg width="14" height="15" viewBox="0 0 14 15" fill="none" xmlns="http://www.w3.org/2000/svg">
<path d="M6.98933 1.29956L3.8829 4.40736H1.68121C1.1091 4.40736 0.645142 4.87131 0.645142 5.44342V9.58733C0.645142 10.1599 1.1091 10.6234 1.68121 10.6234H3.88289L6.98932 13.7321C7.56141 13.7321 8.02493 13.2681 8.02493 12.696V2.33563C8.02495 1.76352 7.56144 1.29956 6.98934 1.29956H6.98933ZM6.98933 12.6601L4.27095 9.6609H1.68121V5.51705H4.27095L6.98933 2.51741V12.6601Z" fill="#FA3B3B"/>
<path d="M13.1292 7.97022C13.2315 7.97022 13.3142 7.76662 13.3142 7.51578C13.3142 7.26494 13.2315 7.06134 13.1292 7.06134H11.8337C11.7314 7.06134 11.6487 7.2649 11.6487 7.51578C11.6487 7.76662 11.7314 7.97022 11.8337 7.97022H13.1292Z" fill="#FA3B3B"/>
<path d="M13.2697 2.09747C13.3583 2.0463 13.3282 1.82864 13.2027 1.61141C13.0773 1.39418 12.9039 1.25923 12.8153 1.3104L11.6933 1.95811C11.6047 2.00929 11.6349 2.22694 11.7603 2.44418C11.8857 2.66141 12.0592 2.79634 12.1478 2.74518L13.2697 2.09747Z" fill="#FA3B3B"/>
<path d="M13.2697 12.9342C13.3583 12.9853 13.3282 13.203 13.2027 13.4203C13.0773 13.6375 12.9039 13.7724 12.8153 13.7213L11.6933 13.0735C11.6047 13.0224 11.6349 12.8047 11.7603 12.5875C11.8857 12.3702 12.0592 12.2353 12.1478 12.2865L13.2697 12.9342Z" fill="#FA3B3B"/>
<path d="M8.7539 9.84352C8.66154 9.59488 8.68706 9.35905 8.93573 9.26665C9.56368 8.97675 9.8634 8.41265 9.94005 7.70512C10.0295 6.87962 9.63441 6.12097 8.95239 5.80849C8.72931 5.66499 8.63694 5.41642 8.78041 5.19332C8.92393 4.97025 9.17256 4.87787 9.39558 5.02134C10.4058 5.60802 11.0112 6.62809 10.8835 7.80736C10.7812 8.75074 10.2074 9.64306 9.33076 10.0253C9.12592 10.1413 8.85129 10.0652 8.7539 9.84359V9.84352Z" fill="#FA3B3B"/>
</svg>
