<svg width="14" height="14" viewBox="0 0 14 14" fill="none" xmlns="http://www.w3.org/2000/svg">
  <path
    d="M12.3101 5.80876C12.5763 5.80876 12.8164 5.64839 12.9184 5.4023C13.0204 5.15647 12.9639 4.87319 12.7758 4.6848L9.76127 1.67056C9.66146 1.57075 9.49986 1.57075 9.40006 1.67056L8.83008 2.24054C8.73027 2.34034 8.73027 2.50208 8.83008 2.60175L10.7206 4.49216H1.18012C1.0408 4.49216 0.927734 4.60509 0.927734 4.74454V5.55651C0.927734 5.69583 1.04066 5.8089 1.18012 5.8089H12.3101V5.80876ZM12.8194 8.18561H1.69254C1.42635 8.18561 1.18627 8.34599 1.08428 8.59208C0.982285 8.8379 1.03875 9.12118 1.22687 9.30958L4.24139 12.324C4.34119 12.4238 4.50279 12.4238 4.6026 12.324L5.17258 11.754C5.27238 11.6542 5.27238 11.4924 5.17258 11.3928L3.28203 9.50222H12.8194C12.9605 9.50222 13.0748 9.38778 13.0748 9.24683V8.44114C13.0748 8.30005 12.9605 8.18561 12.8194 8.18561Z"
    fill="#07C160 " />
</svg>