<svg width="14" height="12" viewBox="0 0 14 12" fill="none" xmlns="http://www.w3.org/2000/svg">
<path d="M8.11895 5.4573C9.62559 5.79199 11.3783 6.88183 11.3783 10.0248C11.3783 10.8629 10.3598 10.8629 7.06074 10.8629C3.7207 10.8629 2.74316 10.8629 2.74316 10.0248C2.74316 6.92402 4.49453 5.79339 6.00254 5.4573C4.82129 4.78652 4.41387 3.23683 4.98398 1.97964C5.5541 0.722456 6.98008 0.261206 8.0793 0.931987C9.17852 1.60277 9.62695 3.15246 9.01582 4.36746C8.81074 4.87089 8.48535 5.20558 8.11895 5.4573Z" fill="#1E94E8"/>
<path d="M4.71147 5.40659C4.83999 5.36721 4.8728 5.19565 4.76616 5.11127C3.82007 4.36596 3.53022 2.9794 4.04839 1.83612C4.12495 1.66737 4.21655 1.51268 4.32183 1.37346C4.40933 1.25815 4.31909 1.0908 4.1769 1.10346C3.5644 1.1569 2.98608 1.54502 2.69077 2.19612C2.27788 3.10596 2.49663 4.20424 3.22944 4.81737C3.33062 4.90315 3.30054 5.06909 3.17476 5.10987C2.04409 5.47268 0.873779 6.43877 0.873779 8.72112C0.873779 9.07127 1.08296 9.24002 1.65581 9.32299C1.74741 9.33565 1.83218 9.26815 1.84175 9.17252C2.06733 6.82127 3.42085 5.79893 4.71147 5.40659ZM9.29018 5.40659C9.16167 5.36721 9.12886 5.19565 9.2355 5.11127C10.1816 4.36596 10.4714 2.9794 9.95327 1.83612C9.87671 1.66737 9.78511 1.51268 9.67983 1.37346C9.59233 1.25815 9.68257 1.0908 9.82475 1.10346C10.4373 1.1569 11.0156 1.54502 11.3109 2.19612C11.7238 3.10596 11.505 4.20424 10.7722 4.81737C10.671 4.90315 10.7011 5.06909 10.8269 5.10987C11.9576 5.47268 13.1279 6.43877 13.1279 8.72112C13.1279 9.07127 12.9187 9.24002 12.3458 9.32299C12.2542 9.33565 12.1695 9.26815 12.1599 9.17252C11.9343 6.82127 10.5808 5.79893 9.29018 5.40659Z" fill="#1E94E8"/>
</svg>
