<svg width="16" height="16" viewBox="0 0 16 16" fill="none" xmlns="http://www.w3.org/2000/svg">
<g clip-path="url(#clip0_481_62)">
<path d="M8.00015 0.000488281C3.58204 0.000488281 0.000488281 3.58204 0.000488281 8.00015C0.000488281 12.4183 3.58204 15.9998 8.00015 15.9998C12.4182 15.9998 15.9998 12.4183 15.9998 8.00015C15.9998 3.58204 12.4182 0.000488281 8.00015 0.000488281ZM10.1648 12.4899C9.69428 12.6525 9.3246 12.7778 9.04321 12.8667C8.76571 12.9555 8.43993 12.9999 8.07025 12.9999C7.50337 12.9999 7.06089 12.874 6.7475 12.6299C6.42981 12.3785 6.27302 12.0682 6.27302 11.6835C6.27302 11.5356 6.28501 11.3876 6.30892 11.2324C6.33341 11.0772 6.37332 10.8995 6.42181 10.7071L7.00849 8.8507C7.06089 8.6735 7.03119 8.51091 7.06768 8.34792C7.10388 8.19273 7.11977 8.04483 7.11977 7.91933C7.11977 7.67484 7.14217 7.51224 7.03338 7.42334C6.92058 7.32725 6.716 7.35485 6.40621 7.35485C6.25302 7.35485 6.09632 7.37685 5.93973 7.41385C5.77894 7.45834 5.64234 7.42334 5.52954 7.46784L5.68673 6.89087C6.06841 6.75028 6.43809 6.63209 6.78829 6.53588C7.13818 6.43248 7.47146 6.38809 7.78125 6.38809C8.34803 6.38809 8.78271 6.50659 9.08799 6.75068C9.39348 6.99477 9.73127 7.31255 9.73127 7.69724C9.73127 7.77873 9.71876 7.91933 9.69876 8.12632C9.67885 8.32592 9.63847 8.51091 9.58207 8.68079L8.81021 10.5295C8.76571 10.6774 8.72181 10.8477 8.68542 11.0401C8.64501 11.2251 8.62512 11.373 8.62512 11.4691C8.62512 11.7132 8.68941 11.8831 8.81021 11.972C8.93491 12.0604 9.148 12.1048 9.44928 12.1048C9.59008 12.1048 9.75117 12.0828 9.93176 12.0388C10.1124 11.9944 10.2411 11.9573 10.3215 11.9202L10.1648 12.4899ZM10.0605 4.99008C9.79108 5.21948 9.46179 5.33027 9.07971 5.33027C8.69792 5.33027 8.36814 5.21948 8.09056 4.99008C7.81717 4.76799 7.68058 4.49461 7.68058 4.16902C7.68058 3.85074 7.81717 3.57694 8.09056 3.34796C8.36814 3.11897 8.69794 3.00037 9.07971 3.00037C9.46129 3.00037 9.79108 3.11847 10.0605 3.34796C10.3338 3.57736 10.4707 3.85124 10.4707 4.16902C10.4707 4.49459 10.3338 4.76799 10.0605 4.99008Z" fill="black" fill-opacity="0.2"/>
</g>
<defs>
<clipPath id="clip0_481_62">
<rect width="16" height="16" fill="white"/>
</clipPath>
</defs>
</svg>
