<svg width="29" height="28" viewBox="0 0 29 28" fill="none" xmlns="http://www.w3.org/2000/svg">
  <rect x="1" y="4" width="27" height="20" rx="2" fill="#07C160 " />
  <path d="M4.94702 10.8294H24.0529V9.18237H4.94702V10.8294ZM4.94702 18.4059H11.7V16.7588H4.94702V18.4059Z"
    fill="white" />
  <path
    d="M27.5115 7.53526C27.5115 5.8882 26.1938 4.57056 24.5468 4.57056H4.28795C2.64089 4.57056 1.32324 5.8882 1.32324 7.53526V20.547C1.32324 22.1941 2.64089 23.5117 4.28795 23.5117H24.5468C26.1938 23.5117 27.5115 22.1941 27.5115 20.547V19.3941H25.8644V20.547C25.8644 21.2058 25.3703 21.8647 24.5468 21.8647H4.28795C3.62912 21.8647 2.9703 21.3706 2.9703 20.547V7.53526C2.9703 6.87644 3.46442 6.21762 4.28795 6.21762H24.5468C25.2056 6.21762 25.8644 6.71173 25.8644 7.53526V13.6294H27.5115V7.53526Z"
    fill="#07C160 " />
  <path d="M27.8582 15.7999H17.6465V17.447H27.8582V15.7999Z" fill="white" />
  <path d="M20.7765 14.1529L19.6235 13L16 16.6235L19.6235 20.2471L20.7765 19.0941L18.3059 16.6235L20.7765 14.1529Z"
    fill="white" />
</svg>