<svg width="30" height="30" viewBox="0 0 30 30" fill="none" xmlns="http://www.w3.org/2000/svg">
  <g clip-path="url(#clip0_94_137)">
    <path
      d="M0.0595703 15.0601C0.0595703 23.3101 6.74957 30.0001 14.9996 30.0001C23.2496 30.0001 29.9396 23.3101 29.9396 15.0601C29.9396 6.81012 23.2496 0.120117 14.9996 0.120117C6.74957 0.120117 0.0595703 6.81012 0.0595703 15.0601Z"
      fill="#07C160 " />
    <path
      d="M10.0349 19.245C10.0349 20.22 10.8299 21.015 11.8049 21.015C12.7799 21.015 13.5749 20.22 13.5749 19.245C13.5749 18.27 12.7799 17.46 11.8049 17.46C10.8299 17.475 10.0349 18.27 10.0349 19.245ZM10.9199 19.26C10.9199 18.765 11.3099 18.375 11.8049 18.375C12.2999 18.375 12.6899 18.765 12.6899 19.26C12.6899 19.755 12.2999 20.145 11.8049 20.145C11.3249 20.145 10.9199 19.74 10.9199 19.26Z"
      fill="white" />
    <path
      d="M25.2004 16.155H7.48535V18.045C7.48535 18.51 7.86035 18.9 8.34035 18.9H9.48035C9.64535 17.76 10.6204 16.89 11.8054 16.89C12.9904 16.89 13.9654 17.76 14.1304 18.9H18.7804C18.9454 17.76 19.9204 16.89 21.1054 16.89C22.2904 16.89 23.2654 17.76 23.4304 18.9H24.3454C24.8104 18.9 25.2004 18.525 25.2004 18.045V16.155Z"
      fill="white" />
    <path
      d="M19.3197 19.245C19.3197 20.22 20.1147 21.015 21.1047 21.015C22.0797 21.015 22.8747 20.22 22.8747 19.245C22.8747 18.27 22.0797 17.46 21.1047 17.46C20.1297 17.475 19.3197 18.27 19.3197 19.245ZM20.2197 19.26C20.2197 18.765 20.6097 18.375 21.1047 18.375C21.5997 18.375 21.9897 18.765 21.9897 19.26C21.9897 19.755 21.5847 20.145 21.1047 20.145C20.6097 20.145 20.2197 19.74 20.2197 19.26ZM3.92969 13.335L7.48469 14.01V15.69H25.1997V15.06C25.1997 14.76 25.0797 14.46 24.8697 14.25L21.5097 10.92C21.2997 10.71 20.9997 10.59 20.7147 10.59H19.0197V9.95998C19.0197 9.47998 18.6447 9.10498 18.1647 9.10498H8.33969C7.87469 9.10498 7.48469 9.47998 7.48469 9.95998V10.095L4.01969 10.5L10.1697 11.295L3.92969 11.91L10.1397 12.795C10.1547 12.795 3.92969 13.335 3.92969 13.335ZM20.0097 11.715C20.0097 11.64 20.0697 11.58 20.1447 11.58H20.7597C20.7897 11.58 20.8347 11.595 20.8497 11.61L23.4897 14.13C23.5797 14.22 23.5197 14.355 23.3997 14.355H20.1447C20.0697 14.355 20.0097 14.295 20.0097 14.22V11.715Z"
      fill="white" />
  </g>
  <defs>
    <clipPath id="clip0_94_137">
      <rect width="30" height="30" fill="white" />
    </clipPath>
  </defs>
</svg>