<svg width="30" height="30" viewBox="0 0 30 30" fill="none" xmlns="http://www.w3.org/2000/svg">
  <rect x="4" y="4" width="22" height="22" rx="2" fill="#07C160 " />
  <path
    d="M23.3011 26.7525H6.87012C4.80162 26.7525 3.12012 25.071 3.12012 23.0025V6.57153C3.12012 4.50303 4.80162 2.82153 6.87012 2.82153H23.3011C25.3696 2.82153 27.0511 4.50303 27.0511 6.57153V23.0025C27.0511 25.071 25.3696 26.7525 23.3011 26.7525ZM6.87012 4.32153C5.62962 4.32153 4.62012 5.33103 4.62012 6.57153V23.0025C4.62012 24.243 5.62962 25.2525 6.87012 25.2525H23.3011C24.5416 25.2525 25.5511 24.243 25.5511 23.0025V6.57153C25.5511 5.33103 24.5416 4.32153 23.3011 4.32153H6.87012Z"
    fill="#07C160 " />
  <path
    d="M20.1136 13.728H20.1106L10.0561 13.6935C9.9104 13.6928 9.76804 13.6497 9.64635 13.5695C9.52465 13.4894 9.42886 13.3756 9.37062 13.242C9.25212 12.969 9.30612 12.651 9.50862 12.4335L12.0226 9.71852C12.0895 9.64614 12.1701 9.58767 12.2596 9.54646C12.3492 9.50524 12.446 9.48209 12.5445 9.47833C12.643 9.47457 12.7413 9.49027 12.8337 9.52453C12.9261 9.5588 13.0109 9.61096 13.0831 9.67802C13.1555 9.74494 13.214 9.82548 13.2552 9.91503C13.2964 10.0046 13.3196 10.1014 13.3233 10.1999C13.3271 10.2984 13.3114 10.3967 13.2771 10.4891C13.2428 10.5815 13.1907 10.6663 13.1236 10.7385L11.7706 12.1995L20.1166 12.228C20.5306 12.2295 20.8651 12.567 20.8636 12.981C20.8627 13.1794 20.7833 13.3693 20.6427 13.5092C20.5022 13.6492 20.312 13.7279 20.1136 13.728ZM17.5981 20.286C17.4521 20.2861 17.3093 20.2436 17.1871 20.1638C17.0649 20.0839 16.9687 19.9701 16.9103 19.8363C16.8518 19.7025 16.8337 19.5546 16.8581 19.4107C16.8825 19.2667 16.9484 19.1331 17.0476 19.026L18.4006 17.565L10.0546 17.5365C9.85573 17.5356 9.66533 17.4558 9.52526 17.3146C9.38518 17.1734 9.3069 16.9824 9.30762 16.7835C9.30857 16.5852 9.38799 16.3953 9.52852 16.2553C9.66906 16.1153 9.85928 16.0367 10.0576 16.0365H10.0606L20.1151 16.071C20.4121 16.0725 20.6821 16.2495 20.8006 16.5225C20.9191 16.7955 20.8651 17.1135 20.6626 17.331L18.1486 20.046C18.0785 20.1219 17.9933 20.1825 17.8985 20.2238C17.8038 20.2651 17.7015 20.2863 17.5981 20.286Z"
    fill="white" />
</svg>