<svg width="58" height="58" viewBox="0 0 58 58" fill="none" xmlns="http://www.w3.org/2000/svg">
<path opacity="0.5" d="M50.0809 6.11365C49.3375 5.79504 48.541 5.63574 47.7445 5.63574H10.2555C9.40588 5.63574 8.60938 5.79504 7.86597 6.06055C5.31714 7.06946 3.51172 9.45898 3.51172 12.3264V45.7267C3.51172 48.5941 5.31714 50.9836 7.91907 51.9395C8.66248 52.205 9.45898 52.3643 10.3086 52.3643H47.7445C51.4615 52.3643 54.4883 49.3375 54.4883 45.6205V12.3264C54.4883 9.45898 52.6829 7.06946 50.0809 6.11365ZM23.9023 20.6632C23.9023 23.4244 21.619 25.6547 18.8047 25.6547C15.9904 25.6547 13.707 23.4244 13.707 20.6632C13.707 17.902 15.9904 15.6718 18.8047 15.6718C21.619 15.6718 23.9023 17.902 23.9023 20.6632ZM47.7445 48.9658H10.2555C8.66248 48.9658 7.28186 47.8507 6.96326 46.3108C6.91016 46.0984 6.91016 45.886 6.91016 45.6736V43.1248L16.9462 34.6287L20.557 38.0802C22.4155 39.8856 25.3892 39.9918 27.407 38.3457L44.3461 24.3271C47.5852 27.8318 49.8154 30.1682 51.196 31.3895V45.6205C51.0898 47.479 49.603 48.9658 47.7445 48.9658Z" fill="#07C160"/>
</svg>
