<svg width="18" height="18" viewBox="0 0 18 18" fill="none" xmlns="http://www.w3.org/2000/svg">
<g clip-path="url(#clip0_925_2061)">
<path d="M2.88 3.9276L11.6554 0L13.68 3.9276L6.25464 7.2L2.88 3.9276Z" fill="#76FF81"/>
<path d="M16.56 7.19998H13.68C13.4909 7.19998 13.3036 7.23722 13.1289 7.30959C12.9542 7.38196 12.7955 7.48803 12.6618 7.62174C12.5281 7.75546 12.422 7.9142 12.3496 8.08891C12.2772 8.26362 12.24 8.45087 12.24 8.63998V12.96C12.24 13.3419 12.3917 13.7082 12.6618 13.9782C12.9318 14.2483 13.2981 14.4 13.68 14.4H16.56V16.56C16.56 16.9419 16.4083 17.3082 16.1382 17.5782C15.8682 17.8483 15.5019 18 15.12 18H1.44C1.05809 18 0.691819 17.8483 0.421766 17.5782C0.151714 17.3082 0 16.9419 0 16.56L0 5.03998C0 4.85087 0.0372467 4.66362 0.109613 4.48891C0.18198 4.3142 0.28805 4.15546 0.421766 4.02174C0.691819 3.75169 1.05809 3.59998 1.44 3.59998H15.12C15.3091 3.59998 15.4964 3.63722 15.6711 3.70959C15.8458 3.78196 16.0045 3.88803 16.1382 4.02174C16.2719 4.15546 16.378 4.3142 16.4504 4.48891C16.5228 4.66362 16.56 4.85087 16.56 5.03998V7.19998Z" fill="#07C160"/>
<path d="M13.68 7.92004H17.28C17.4709 7.92004 17.6541 7.9959 17.7891 8.13093C17.9241 8.26595 18 8.44909 18 8.64004V12.96C18 13.151 17.9241 13.3341 17.7891 13.4692C17.6541 13.6042 17.4709 13.68 17.28 13.68H13.68C13.489 13.68 13.3059 13.6042 13.1708 13.4692C13.0358 13.3341 12.96 13.151 12.96 12.96V8.64004C12.96 8.44909 13.0358 8.26595 13.1708 8.13093C13.3059 7.9959 13.489 7.92004 13.68 7.92004ZM15.12 11.52C15.2145 11.52 15.3081 11.5014 15.3955 11.4652C15.4828 11.4291 15.5622 11.376 15.6291 11.3092C15.6959 11.2423 15.749 11.1629 15.7852 11.0756C15.8213 10.9882 15.84 10.8946 15.84 10.8C15.84 10.7055 15.8213 10.6119 15.7852 10.5245C15.749 10.4372 15.6959 10.3578 15.6291 10.2909C15.5622 10.2241 15.4828 10.171 15.3955 10.1349C15.3081 10.0987 15.2145 10.08 15.12 10.08C14.929 10.08 14.7459 10.1559 14.6108 10.2909C14.4758 10.426 14.4 10.6091 14.4 10.8C14.4 10.991 14.4758 11.1741 14.6108 11.3092C14.7459 11.4442 14.929 11.52 15.12 11.52Z" fill="#07C160"/>
</g>
<defs>
<clipPath id="clip0_925_2061">
<rect width="18" height="18" fill="white"/>
</clipPath>
</defs>
</svg>
