<svg width="29" height="29" viewBox="0 0 29 29" fill="none" xmlns="http://www.w3.org/2000/svg">
  <path
    d="M24.7705 7.85413H4.22884C3.5615 7.85413 3.02051 8.39512 3.02051 9.06246V22.3541C3.02051 23.0215 3.5615 23.5625 4.22884 23.5625H24.7705C25.4379 23.5625 25.9788 23.0215 25.9788 22.3541V9.06246C25.9788 8.39512 25.4379 7.85413 24.7705 7.85413Z"
    fill="#07C160 " stroke="#07C160 " stroke-width="1.5" stroke-linecap="round" stroke-linejoin="round" />
  <path d="M25.9795 12.0834H15.1045V18.7292H25.9795V12.0834Z" stroke="white" stroke-width="1.5" stroke-linecap="round"
    stroke-linejoin="round" />
  <path
    d="M19.333 7.85413C19.333 4.83329 17.2184 4.22913 16.3122 4.22913C14.2983 4.22913 9.72676 4.22913 7.55176 4.22913C5.37676 4.22913 4.83301 5.96047 4.83301 6.82614V7.85413"
    stroke="#07C160 " stroke-width="1.5" stroke-linecap="round" stroke-linejoin="round" />
  <path
    d="M20.5 14.292C21.1673 14.292 21.708 14.8327 21.708 15.5C21.708 16.1673 21.1673 16.708 20.5 16.708C19.8327 16.708 19.292 16.1673 19.292 15.5C19.292 14.8327 19.8327 14.292 20.5 14.292Z"
    fill="white" stroke="white" stroke-width="0.583333" />
</svg>