<svg width="18" height="18" viewBox="0 0 18 18" fill="none" xmlns="http://www.w3.org/2000/svg">
<circle cx="9" cy="9" r="9" fill="#07C160"/>
<g clip-path="url(#clip0_2039_1150)">
<path d="M9.07824 3.10205C5.83224 3.10205 3.19824 5.73605 3.19824 8.98205C3.19824 12.2281 5.83224 14.8621 9.07824 14.8621C12.3242 14.8621 14.9582 12.2281 14.9582 8.98205C14.9582 5.73005 12.3302 3.10205 9.07824 3.10205ZM11.1482 9.81005C11.5082 11.7121 10.8002 12.2041 9.04824 11.2921C7.26024 12.2701 6.57024 11.7841 6.97224 9.87605C5.52024 8.58005 5.80224 7.78805 7.80624 7.51205C8.68824 5.74805 9.54624 5.73005 10.3862 7.47005C12.3782 7.68005 12.6362 8.46005 11.1482 9.81005Z" fill="white"/>
</g>
<defs>
<clipPath id="clip0_2039_1150">
<rect width="12" height="12" fill="white" transform="translate(3 3)"/>
</clipPath>
</defs>
</svg>
