<svg width="18" height="18" viewBox="0 0 18 18" fill="none" xmlns="http://www.w3.org/2000/svg">
<circle cx="9" cy="9" r="9" fill="#07C160"/>
<path d="M6.48373 4.53062C6.79333 4.20782 7.36933 4.23782 7.67053 4.55822C9.66013 6.56822 11.6401 8.58782 13.6273 10.6014C14.0653 11.0142 13.8829 11.7138 13.4329 12.0402C12.0409 12.0342 10.6501 12.045 9.25813 12.0354C7.57093 10.3002 5.85253 8.59382 4.16053 6.86342C4.93933 6.08942 5.70013 5.29862 6.48373 4.53062ZM6.87133 5.52062C6.57133 5.73302 6.25213 6.06062 6.33253 6.46262C6.42373 6.78182 6.68653 7.03862 6.97333 7.19102C7.51213 7.38062 8.03413 6.84422 8.10253 6.34262C8.06773 5.79422 7.41973 5.19302 6.87133 5.52062ZM3.13813 8.13302C3.17653 7.80302 3.45373 7.58822 3.67213 7.36982C5.21893 8.91662 6.74173 10.4874 8.28853 12.0342C7.67653 12.045 7.06573 12.0342 6.45373 12.0426C5.44333 11.001 4.42333 9.96902 3.40453 8.93582C3.29474 8.83628 3.21253 8.71007 3.16585 8.56942C3.11918 8.42877 3.10963 8.27844 3.13813 8.13302Z" fill="white"/>
<path d="M3.24461 11.2959C3.84341 11.2959 4.44341 11.2959 5.04221 11.2923C5.42981 11.2599 5.63861 11.6679 5.90861 11.8731C5.51741 11.8743 5.12621 11.8731 4.73381 11.8731C4.73261 12.0951 4.73021 12.3171 4.72661 12.5391C7.63541 12.5463 10.5442 12.5415 13.453 12.5415L13.4578 12.2319C13.7842 11.9211 14.1106 11.6091 14.4358 11.2971C14.5138 11.2959 14.6698 11.2923 14.7478 11.2911C14.755 11.9175 14.749 12.5439 14.7526 13.1703C10.9126 13.1691 7.07141 13.1763 3.23141 13.1655C3.23381 12.5427 3.21701 11.9187 3.24461 11.2959Z" fill="white"/>
</svg>
