<svg width="18" height="18" viewBox="0 0 18 18" fill="none" xmlns="http://www.w3.org/2000/svg">
<circle cx="9" cy="9" r="9" fill="#07C160"/>
<g clip-path="url(#clip0_2039_1172)">
<path d="M11.895 7.61572H6.10522C5.77756 7.61712 5.46373 7.7479 5.23203 7.97959C5.00034 8.21128 4.86956 8.52512 4.86816 8.85278V12.7604C4.86957 13.0878 5.00043 13.4014 5.2322 13.6326C5.46396 13.8639 5.77781 13.9941 6.10522 13.9948H11.895C12.2224 13.9941 12.5362 13.8639 12.768 13.6326C12.9998 13.4014 13.1306 13.0878 13.132 12.7604V8.85278C13.1306 8.52512 12.9999 8.21128 12.7682 7.97959C12.5365 7.7479 12.2226 7.61712 11.895 7.61572ZM9.50581 11.0137V12.2958H8.48643V11.011C8.289 10.8978 8.13449 10.7225 8.04693 10.5125C7.95937 10.3024 7.94366 10.0693 8.00224 9.84938C8.06082 9.62946 8.1904 9.43505 8.37085 9.29638C8.55131 9.1577 8.77252 9.08252 9.0001 9.08252C9.22768 9.08252 9.44889 9.1577 9.62935 9.29638C9.8098 9.43505 9.93938 9.62946 9.99796 9.84938C10.0565 10.0693 10.0408 10.3024 9.95326 10.5125C9.8657 10.7225 9.7112 10.8978 9.51377 11.011L9.50581 11.0137Z" fill="white"/>
<path d="M11.7223 7.65012H10.9259V6.721C10.9259 6.21056 10.7231 5.72103 10.3622 5.36009C10.0012 4.99916 9.51171 4.79639 9.00127 4.79639C8.49083 4.79639 8.0013 4.99916 7.64037 5.36009C7.27943 5.72103 7.07666 6.21056 7.07666 6.721V7.65012H6.28027V6.721C6.28027 5.99934 6.56695 5.30725 7.07724 4.79696C7.58752 4.28668 8.27962 4 9.00127 4C9.72293 4 10.415 4.28668 10.9253 4.79696C11.4356 5.30725 11.7223 5.99934 11.7223 6.721V7.65012Z" fill="white"/>
</g>
<defs>
<clipPath id="clip0_2039_1172">
<rect width="10" height="10" fill="white" transform="translate(4 4)"/>
</clipPath>
</defs>
</svg>
