<svg width="9" height="16" viewBox="0 0 9 16" fill="none" xmlns="http://www.w3.org/2000/svg">
<path d="M8.42948 10.65C8.42948 11.525 8.1402 12.325 7.58573 12.975C7.00716 13.625 6.30805 14 5.39198 14.15V15.675C5.39198 15.775 5.34377 15.825 5.29555 15.875C5.24734 15.925 5.19912 15.975 5.1027 15.975H3.96966C3.87323 15.975 3.82502 15.925 3.7768 15.875C3.72859 15.825 3.68037 15.775 3.68037 15.675V14.15C3.29466 14.1 2.95716 14 2.59555 13.85C2.25805 13.7 1.96877 13.6 1.7518 13.45C1.51073 13.3 1.31787 13.15 1.12502 13C0.93216 12.85 0.787517 12.75 0.739303 12.65L0.59466 12.5C0.498232 12.4 0.498232 12.25 0.59466 12.15L1.43841 10.975C1.48662 10.925 1.53484 10.875 1.63127 10.875C1.7277 10.875 1.77591 10.875 1.82412 10.975C2.45091 11.575 3.15002 11.9 3.87323 12.05C4.06609 12.1 4.30716 12.1 4.50002 12.1C4.98216 12.1 5.34377 11.95 5.68127 11.7C6.01877 11.45 6.21162 11.1 6.21162 10.625C6.21162 10.475 6.16341 10.325 6.06698 10.175C5.97055 10.025 5.87413 9.92496 5.7777 9.77496C5.68127 9.67496 5.48841 9.57496 5.29555 9.42496C5.1027 9.27496 4.86163 9.22496 4.71698 9.12496C4.57234 9.02496 4.33127 8.97496 4.04198 8.82496C3.80091 8.72496 3.65627 8.67496 3.51162 8.62496C3.36698 8.57496 3.22234 8.47496 2.98127 8.37496C2.7402 8.27496 2.59555 8.17496 2.45091 8.07496C2.30627 7.97496 2.16162 7.87496 1.96877 7.77496C1.77591 7.67496 1.63127 7.52496 1.48662 7.37496C1.3902 7.27496 1.24555 7.12496 1.10091 6.92496C0.956267 6.77496 0.859839 6.57496 0.811625 6.42496C0.76341 6.27496 0.666982 6.07496 0.618767 5.82496C0.570553 5.62496 0.522339 5.37496 0.522339 5.12496C0.522339 4.32496 0.811625 3.59996 1.36609 2.99996C1.92055 2.39996 2.64377 2.02496 3.55984 1.82496V0.324963C3.55984 0.224963 3.60805 0.174963 3.65627 0.124963C3.70448 0.0749634 3.7527 0.0249634 3.84912 0.0249634H4.98216C5.07859 0.0249634 5.1268 0.0749634 5.17502 0.124963C5.22323 0.174963 5.27145 0.224963 5.27145 0.324963V1.84996C5.60895 1.89996 5.89823 1.94996 6.21162 2.04996C6.54912 2.14996 6.7902 2.24996 6.98305 2.34996C7.17591 2.44996 7.36877 2.54996 7.51341 2.69996C7.65805 2.84996 7.8027 2.89996 7.85091 2.94996C7.89913 2.99996 7.94734 3.04996 7.99555 3.04996C8.09198 3.14996 8.09198 3.24996 8.04377 3.39996L7.36877 4.67496C7.32055 4.77496 7.27234 4.82496 7.17591 4.82496C7.07948 4.82496 7.03127 4.82496 6.93484 4.77496C6.93484 4.77496 6.88663 4.72496 6.7902 4.67496C6.74198 4.62496 6.59734 4.52496 6.4527 4.42496C6.30805 4.32496 6.1152 4.22496 5.97055 4.12496C5.7777 4.02496 5.58484 3.97496 5.34377 3.87496C5.1027 3.82496 4.86162 3.77496 4.62055 3.77496C4.0902 3.77496 3.63216 3.92496 3.29466 4.17496C2.95716 4.42496 2.7643 4.77496 2.7643 5.14996C2.7643 5.29996 2.81252 5.44996 2.86073 5.59996C2.90895 5.74996 3.00537 5.84996 3.1018 5.94996C3.24645 6.04996 3.34288 6.14996 3.4393 6.24996C3.53573 6.34996 3.72859 6.39996 3.92145 6.54996C4.1143 6.69996 4.30716 6.74996 4.4518 6.79996C4.59645 6.84996 4.7893 6.94996 5.03038 7.04996C5.31966 7.14996 5.56073 7.24996 5.70538 7.34996C5.85002 7.39996 6.09109 7.49996 6.38037 7.64996C6.66966 7.79996 6.86252 7.89996 7.00716 8.04996C7.1518 8.14996 7.34466 8.29996 7.53752 8.49996C7.73037 8.69996 7.87502 8.84996 7.97145 9.04996C8.06788 9.24996 8.1643 9.44996 8.26073 9.74996C8.38127 9.99996 8.42948 10.35 8.42948 10.65Z" fill="#F3C200"/>
</svg>
