<svg width="25" height="27" viewBox="0 0 25 27" fill="none" xmlns="http://www.w3.org/2000/svg">
<path d="M24.23 24.1511L18.7241 11.5966H22.7356C23.6008 11.5966 24.3087 10.8676 24.3087 9.97664C24.3087 9.40966 23.9941 8.92368 23.6008 8.59969L13.2968 0.823988C13.0609 0.580997 12.6676 0.5 12.3529 0.5C12.0383 0.5 11.645 0.580997 11.4091 0.823988L1.02644 8.68069C0.47585 9.08567 0.239882 9.89564 0.475851 10.5436C0.71182 11.1916 1.26241 11.6776 1.97032 11.6776H5.98179L0.475851 24.2321C0.239882 24.7181 0.318538 25.366 0.554507 25.771C0.869132 26.257 1.34107 26.5 1.89166 26.5H22.7356C23.2862 26.5 23.7581 26.176 24.0727 25.771C24.3874 25.2041 24.3874 24.6371 24.23 24.1511ZM14.7913 14.2695C14.5553 14.6745 14.0834 14.4315 14.0834 14.4315C13.7688 14.2695 13.2182 13.9455 12.2743 13.9455C11.1731 13.9455 10.7798 14.5935 10.7798 15.2414C10.7798 16.0514 11.3304 16.3754 12.5889 16.9424C14.0834 17.5903 14.8699 18.3193 14.8699 19.6963C14.8699 20.9112 14.0834 21.9642 12.5889 22.2072V23.0981C12.5889 23.3411 12.3529 23.5841 12.117 23.5841C11.881 23.5841 11.645 23.3411 11.645 23.0981V22.2882C10.7798 22.2882 9.9146 22.0452 9.44267 21.6402C9.44267 21.6402 8.81341 21.2352 9.12804 20.7492C9.36401 20.2632 9.83595 20.5872 9.83595 20.5872C10.3865 20.9112 11.0944 21.2352 11.881 21.2352C12.9035 21.2352 13.6114 20.5872 13.6114 19.7773C13.6114 18.9673 13.0609 18.4813 11.9597 17.9953C10.4652 17.4283 9.59998 16.6994 9.59998 15.4034C9.59998 14.1885 10.4652 13.2165 11.8024 12.9735V12.1636C11.8024 11.9206 12.0383 11.6776 12.2743 11.6776C12.5103 11.6776 12.7462 11.9206 12.7462 12.1636V12.8925C13.6114 12.8925 14.162 13.1355 14.634 13.3785C14.4767 13.4595 15.1059 13.7835 14.7913 14.2695Z" fill="#07C160"/>
</svg>
