<svg width="26" height="27" viewBox="0 0 26 27" fill="none" xmlns="http://www.w3.org/2000/svg">
<path d="M13 0.5C5.82029 0.5 0 6.32027 0 13.5C0 20.6797 5.82029 26.5 13 26.5C20.1797 26.5 26 20.6797 26 13.5C26 6.32024 20.1798 0.5 13 0.5ZM11.914 16.9963H8.62084C8.01704 16.9963 7.52753 16.2739 7.52753 15.7104V11.2895C7.52753 10.7261 8.01704 9.92566 8.62084 9.92566H11.9141V16.9963L11.914 16.9963ZM18.4726 19.2744C18.4726 19.8378 17.6073 20.2946 17.0034 20.2946L12.4239 17.1035V9.86236L17.0034 6.70543C17.6073 6.70543 18.4726 7.16213 18.4726 7.72559V19.2744Z" fill="#07C160"/>
</svg>
