<svg width="26" height="27" viewBox="0 0 26 27" fill="none" xmlns="http://www.w3.org/2000/svg">
<path d="M26 23.801C26 24.1767 25.938 24.5276 25.8139 24.8539C25.6898 25.1801 25.5132 25.4669 25.2841 25.714C25.0551 25.9612 24.7878 26.154 24.4824 26.2924C24.1769 26.4308 23.8429 26.5 23.4802 26.5H2.69163C2.32893 26.5 1.98532 26.4308 1.66079 26.2924C1.33627 26.154 1.04993 25.9612 0.801762 25.714C0.553598 25.4669 0.35793 25.1801 0.214758 24.8539C0.0715859 24.5276 0 24.1767 0 23.801V9.00076C0 8.24939 0.252937 7.6117 0.758811 7.08771C1.26468 6.56372 1.88032 6.30173 2.60573 6.30173H23.3943C24.1197 6.30173 24.7353 6.56372 25.2412 7.08771C25.7471 7.6117 26 8.24939 26 9.00076V13.0345H19.5C18.7746 13.0345 18.159 13.2915 17.6531 13.8056C17.1472 14.3197 16.8943 14.9525 16.8943 15.7039C16.9134 16.218 17.0184 16.6727 17.2093 17.0682C17.362 17.4044 17.6149 17.7108 17.9681 17.9877C18.3212 18.2645 18.8319 18.4029 19.5 18.4029H26V23.801ZM22.1057 4.93738H9.10573C10.1366 4.38374 11.1101 3.84986 12.0264 3.33576C12.8282 2.90075 13.6204 2.46574 14.4031 2.03073C15.1858 1.59572 15.7966 1.25958 16.2357 1.0223C16.9038 0.646611 17.5004 0.473596 18.0253 0.503255C18.5503 0.532915 18.9941 0.626837 19.3568 0.785023C19.7768 1.00253 20.1395 1.28924 20.4449 1.64515L22.1057 4.93738ZM18.2115 15.7039C18.2115 15.3282 18.3355 15.0118 18.5837 14.7548C18.8319 14.4977 19.1373 14.3692 19.5 14.3692C19.8627 14.3692 20.1681 14.4977 20.4163 14.7548C20.6645 15.0118 20.7885 15.3282 20.7885 15.7039C20.7885 16.0796 20.6645 16.4009 20.4163 16.6678C20.1681 16.9347 19.8627 17.0682 19.5 17.0682C19.1373 17.0682 18.8319 16.9347 18.5837 16.6678C18.3355 16.4009 18.2115 16.0796 18.2115 15.7039Z" fill="#07C160"/>
</svg>
