<svg width="27" height="27" viewBox="0 0 27 27" fill="none" xmlns="http://www.w3.org/2000/svg">
<path d="M4.20899 2.35737C5.62274 1.865 7.50936 1.58387 9.54224 1.58387C11.5735 1.58387 13.4585 1.86662 14.8755 2.35737C15.5775 2.60113 16.2242 2.91475 16.7166 3.31612C17.1992 3.71263 17.6672 4.31062 17.6672 5.10362V7.00487C17.6672 7.19987 17.6672 7.29737 17.6282 7.3705C17.5981 7.42722 17.5517 7.47363 17.495 7.50375C17.4235 7.54112 17.3244 7.54113 17.1245 7.54113C14.9632 7.54113 12.8881 7.84175 11.2599 8.404C10.4587 8.68187 9.61699 9.0735 8.92149 9.64225C8.39231 10.067 7.96899 10.6088 7.68486 11.225C7.61499 11.3826 7.57924 11.4606 7.52074 11.4964C7.46061 11.5305 7.38261 11.524 7.22824 11.5126C5.32699 11.3501 3.71986 10.9796 2.51411 10.3979C2.28451 10.288 2.0615 10.1648 1.84624 10.029C1.64961 9.90387 1.55049 9.84375 1.48386 9.72025C1.41724 9.6 1.41724 9.46675 1.41724 9.20025V5.10525C1.41724 4.31063 1.88361 3.71262 2.36786 3.31775C2.85861 2.91475 3.50536 2.5995 4.20899 2.35737ZM3.73936 4.99312C3.96036 4.81437 4.34549 4.60313 4.91749 4.40488C6.05011 4.01 7.68486 3.75 9.54224 3.75C11.398 3.75 13.0344 4.01163 14.167 4.40488C14.739 4.6015 15.1225 4.81275 15.3435 4.99312C15.415 5.05163 15.415 5.15562 15.3435 5.21412C15.1225 5.39612 14.739 5.60575 14.167 5.804C13.0344 6.19562 11.398 6.45887 9.54224 6.45887C7.68486 6.45887 6.04849 6.19562 4.91749 5.804C4.34549 5.60575 3.96036 5.39612 3.73936 5.21412C3.72277 5.20088 3.70937 5.18407 3.70016 5.16494C3.69095 5.14581 3.68617 5.12486 3.68617 5.10362C3.68617 5.08239 3.69095 5.06144 3.70016 5.04231C3.70937 5.02318 3.72277 5.00637 3.73936 4.99312ZM7.37449 13.5553C7.37449 13.3651 7.37449 13.2709 7.31761 13.2075C7.26236 13.1458 7.16649 13.1376 6.97474 13.1198C4.98574 12.941 3.21449 12.5396 1.80886 11.862C1.76922 11.8403 1.72792 11.8219 1.68536 11.8068C1.65715 11.7991 1.62764 11.7973 1.59872 11.8017C1.5698 11.806 1.54209 11.8162 1.51734 11.8318C1.4926 11.8474 1.47136 11.868 1.45496 11.8922C1.43857 11.9164 1.42738 11.9437 1.42211 11.9725C1.41724 11.9952 1.41724 12.031 1.41724 12.1025V15.4825C1.41724 15.7701 1.41724 15.9131 1.49524 16.0431C1.57324 16.1731 1.68374 16.23 1.90636 16.347C2.08024 16.438 2.26711 16.5257 2.46861 16.607C3.61749 17.075 5.12711 17.3512 6.91786 17.478C7.13074 17.4926 7.23799 17.5007 7.30624 17.4358C7.37449 17.3707 7.37449 17.2635 7.37449 17.0474V13.5569V13.5553ZM7.31599 19.1907C7.37449 19.2541 7.37449 19.3516 7.37449 19.545V21.95C7.37449 22.5301 7.51099 23.0371 7.71574 23.471C7.90424 23.874 7.99849 24.0755 7.92699 24.1795C7.85386 24.2819 7.65561 24.2624 7.26074 24.2234C6.23917 24.1314 5.22904 23.9398 4.24474 23.6514C3.54924 23.4369 2.90736 23.1606 2.41661 22.8031C1.94861 22.4619 1.41724 21.8947 1.41724 21.0839V18.3978C1.41724 18.2742 1.41724 18.2125 1.43349 18.1735C1.44906 18.1333 1.47656 18.0989 1.51229 18.0747C1.54802 18.0506 1.59026 18.038 1.63336 18.0386C1.67561 18.0386 1.73574 18.063 1.85436 18.1118C3.24861 18.6805 5.00199 18.9811 6.96499 19.1095C7.15999 19.1225 7.25749 19.129 7.31599 19.1907ZM17.1245 9.16613C15.0932 9.16613 13.2082 9.4505 11.7912 9.93963C11.0892 10.1834 10.4425 10.497 9.95011 10.9C9.46586 11.2965 8.99949 11.8945 8.99949 12.6875V15.5377C8.99949 16.0285 8.99949 16.2739 9.13436 16.5176C9.26924 16.7614 9.43661 16.867 9.77136 17.0783C11.411 18.1101 13.9379 18.6447 17.1245 18.6447C20.3111 18.6447 22.8396 18.1085 24.4792 17.0783C24.8124 16.867 24.9797 16.7614 25.1146 16.5176C25.2495 16.2739 25.2495 16.0285 25.2495 15.5377V12.6875C25.2495 11.8945 24.7831 11.2965 24.2989 10.9C23.8081 10.497 23.1614 10.1834 22.4594 9.94125C21.0424 9.4505 19.1574 9.16613 17.1245 9.16613ZM12.4997 11.9888C13.6324 11.5971 15.2687 11.3355 17.1245 11.3355C18.9819 11.3355 20.6182 11.5955 21.7492 11.9888C22.3212 12.187 22.7064 12.3983 22.9274 12.5786C22.9989 12.6371 22.9989 12.7411 22.9274 12.7996C22.7064 12.98 22.3212 13.1896 21.7492 13.3895C20.6166 13.7795 18.9819 14.0427 17.1245 14.0427C15.2687 14.0427 13.6324 13.7811 12.4997 13.3895C11.9277 13.1913 11.5442 12.98 11.3232 12.7996C11.3066 12.7864 11.2932 12.7696 11.284 12.7504C11.2748 12.7313 11.27 12.7104 11.27 12.6891C11.27 12.6679 11.2748 12.6469 11.284 12.6278C11.2932 12.6087 11.3066 12.5919 11.3232 12.5786C11.5442 12.3983 11.9277 12.187 12.4997 11.9888Z" fill="#07C160"/>
<path d="M24.9164 18.7049C22.9274 19.7953 20.2104 20.2698 17.1245 20.2698C14.0403 20.2698 11.3233 19.7953 9.33426 18.7049C9.18151 18.622 9.10676 18.5798 9.05314 18.6106C8.99951 18.6431 8.99951 18.7276 8.99951 18.8982V21.95C8.99951 22.7463 9.47889 23.3377 9.95826 23.7245C10.4523 24.1178 11.0958 24.4233 11.7978 24.6621C13.2115 25.1399 15.0949 25.4161 17.1245 25.4161C19.1558 25.4161 21.0375 25.1399 22.4513 24.6621C23.1533 24.4249 23.7984 24.1178 24.2908 23.7245C24.7718 23.3377 25.2495 22.7463 25.2495 21.95V18.8982C25.2495 18.7276 25.2495 18.6431 25.1959 18.6106C25.1439 18.5798 25.0675 18.622 24.9164 18.7049Z" fill="#07C160"/>
</svg>
