<svg width="27" height="27" viewBox="0 0 27 27" fill="none" xmlns="http://www.w3.org/2000/svg">
<path d="M26.6667 20.9666C26.6667 22.5628 26.1469 22.882 24.1543 22.882C23.6345 16.7101 21.122 13.7306 18.5229 12.2408C20.2556 9.36773 20.3423 5.21768 18.6962 2.13173C20.6888 1.38686 22.7681 3.08944 23.2879 5.74975C23.7211 8.09079 22.8547 10.6447 21.122 11.6024C24.4142 12.6665 26.6667 16.4973 26.6667 20.9666ZM16.0104 12.7729C19.216 13.6242 22.9414 16.3909 22.9414 24.3718C22.9414 26.5 20.7755 26.5 13.7579 26.5C6.6537 26.5 4.57442 26.5 4.57442 24.3718C4.57442 16.4973 8.29979 13.6242 11.5053 12.7729C8.99289 11.0703 8.1265 7.13309 9.33945 3.94074C10.5524 0.748393 13.5846 -0.422145 15.9238 1.28046C18.263 2.98307 19.216 6.92025 17.9165 10.0062C17.4833 11.2831 16.7902 12.1344 16.0104 12.7729ZM8.81961 12.2408C6.22051 13.7306 3.70804 16.8165 3.18822 22.882C1.1956 22.882 0.675776 22.5628 0.675776 20.9666C0.502495 16.4973 2.84168 12.5601 6.13388 11.6024C4.22786 10.4318 3.3615 7.55872 4.22786 5.00484C5.00759 2.7702 6.82696 1.5997 8.64632 2.23816C7.00024 5.21768 7.08687 9.26133 8.81961 12.2408Z" fill="#07C160"/>
</svg>
