<svg width="28" height="27" viewBox="0 0 28 27" fill="none" xmlns="http://www.w3.org/2000/svg">
<path d="M26.2279 10.2035L24.4673 9.95616C24.0764 9.9005 23.7594 9.63455 23.6055 9.27275C23.2577 8.44709 22.8144 7.674 22.285 6.96894C22.048 6.65352 21.9772 6.24224 22.125 5.87734L22.7929 4.22293C22.9991 3.71578 22.799 3.13133 22.325 2.8592L18.5176 0.648164C18.0436 0.372944 17.4434 0.490454 17.1079 0.923384L16.0183 2.32422C15.7751 2.63964 15.3811 2.78498 14.9872 2.7355C14.5562 2.67984 14.1161 2.64892 13.6698 2.64892C13.2235 2.64892 12.7833 2.67984 12.3524 2.7355C11.9584 2.78498 11.5645 2.63964 11.3213 2.32422L10.2317 0.923384C9.8962 0.490454 9.296 0.372944 8.82199 0.648164L5.01455 2.85611C4.54054 3.13133 4.34355 3.71269 4.5467 4.21984L5.21461 5.87425C5.36236 6.24224 5.29156 6.65043 5.05456 6.96585C4.52515 7.67091 4.07884 8.444 3.73411 9.26965C3.58021 9.63455 3.26318 9.9005 2.87228 9.95307L1.11168 10.2005C0.569962 10.2778 0.166748 10.7416 0.166748 11.2921V15.711C0.166748 16.2584 0.569962 16.7222 1.10861 16.7995L2.8692 17.0469C3.26011 17.1026 3.57714 17.3685 3.73103 17.7303C4.07884 18.556 4.52207 19.3291 5.05148 20.0342C5.28849 20.3496 5.35928 20.7609 5.21154 21.1258L4.54362 22.7802C4.33739 23.2873 4.53746 23.8718 5.01147 24.1439L8.81891 26.3518C9.29292 26.6271 9.89313 26.5095 10.2286 26.0766L11.3182 24.6758C11.5614 24.3604 11.9554 24.215 12.3493 24.2645C12.7803 24.3202 13.2204 24.3511 13.6667 24.3511C14.113 24.3511 14.5532 24.3202 14.9841 24.2645C15.3781 24.215 15.772 24.3604 16.0152 24.6758L17.1048 26.0766C17.4403 26.5095 18.0405 26.6271 18.5145 26.3518L22.322 24.1439C22.796 23.8687 22.993 23.2873 22.7898 22.7802L22.1219 21.1258C21.9741 20.7609 22.0449 20.3496 22.2819 20.0342C22.8114 19.3291 23.2577 18.556 23.6024 17.7303C23.7563 17.3654 24.0733 17.0995 24.4642 17.0469L26.2248 16.7995C26.7665 16.7222 27.1667 16.2584 27.1667 15.711V11.2921C27.1728 10.7416 26.7696 10.2778 26.2279 10.2035ZM13.6698 17.7953C11.309 17.7953 9.3945 15.8718 9.3945 13.5C9.3945 11.1282 11.309 9.20471 13.6698 9.20471C16.0306 9.20471 17.9451 11.1282 17.9451 13.5C17.9451 15.8718 16.0306 17.7953 13.6698 17.7953Z" fill="#07C160"/>
</svg>
