<svg width="8" height="12" viewBox="0 0 8 12" fill="none" xmlns="http://www.w3.org/2000/svg">
<path d="M7.90642 4.24168C7.84683 4.15951 7.76191 4.0914 7.66007 4.04408C7.55822 3.99676 7.44297 3.97186 7.32568 3.97185H5.2598L7.65411 0.838077C7.71759 0.755019 7.7526 0.659664 7.75552 0.561895C7.75844 0.464126 7.72916 0.367501 7.67072 0.282033C7.61233 0.196533 7.52688 0.125294 7.42324 0.0757025C7.3196 0.0261115 7.20153 -2.59942e-05 7.08129 1.93987e-08H2.02323C1.86601 -1.44862e-06 1.71373 0.0446766 1.59271 0.126311C1.47169 0.207946 1.38954 0.321408 1.36046 0.447084L0.0116418 6.27351C-0.00669886 6.35275 -0.00333521 6.4343 0.0214938 6.51236C0.0463229 6.59042 0.0920061 6.66306 0.15529 6.72512C0.218552 6.78722 0.297874 6.83721 0.387605 6.87152C0.477335 6.90583 0.575264 6.92363 0.674416 6.92363H2.59454L1.95014 11.3875C1.93192 11.5138 1.96819 11.6413 2.05275 11.7482C2.1373 11.8551 2.2649 11.9348 2.41372 11.9737C2.56254 12.0126 2.72334 12.0082 2.86864 11.9613C3.01393 11.9145 3.13469 11.828 3.21027 11.7167L7.91578 4.78572C7.97257 4.70222 8.00158 4.6081 7.99993 4.51269C7.99829 4.41727 7.96606 4.32385 7.90642 4.24168Z" fill="white"/>
</svg>
