<svg width="12" height="13" viewBox="0 0 12 13" fill="none" xmlns="http://www.w3.org/2000/svg">
<path d="M9.46167 9.17656V2.91172C9.46167 1.99765 8.72573 1.24883 7.8269 1.24883H2.37769C1.47886 1.24883 0.74292 1.99648 0.74292 2.91172V8.45351C0.74292 9.36757 1.47886 10.1164 2.37769 10.1164H8.53823C9.04565 10.1164 9.46167 9.69336 9.46167 9.17656ZM7.03706 6.13672H5.62612V7.51601C5.62612 7.75742 5.43276 7.95429 5.19604 7.95429C4.95815 7.95429 4.76597 7.75859 4.76597 7.51601V6.13672H3.46519C3.2273 6.13672 3.03511 5.94101 3.03511 5.69843C3.03511 5.45703 3.22847 5.26015 3.46519 5.26015H4.7648V3.81406C4.7648 3.57265 4.95815 3.37578 5.19487 3.37578C5.43276 3.37578 5.62495 3.57148 5.62495 3.81406V5.26132H7.03589C7.27378 5.26132 7.46597 5.45703 7.46597 5.69961C7.46831 5.94101 7.27495 6.13672 7.03706 6.13672Z" fill="#07C160"/>
<path d="M7.03711 5.26133H5.62617V3.81406C5.62617 3.57265 5.43281 3.37578 5.19609 3.37578C4.9582 3.37578 4.76602 3.57148 4.76602 3.81406V5.26133H3.46523C3.22734 5.26133 3.03516 5.45703 3.03516 5.69961C3.03516 5.94101 3.22852 6.13789 3.46523 6.13789H4.76484V7.51718C4.76484 7.75859 4.9582 7.95547 5.19492 7.95547C5.43281 7.95547 5.625 7.75976 5.625 7.51718V6.13672H7.03594C7.27383 6.13672 7.46602 5.94101 7.46602 5.69843C7.46836 5.45703 7.275 5.26133 7.03711 5.26133Z" fill="white"/>
<path d="M10.8234 3.99922C10.5855 3.99922 10.3934 4.19492 10.3934 4.4375V9.55508C10.3934 10.2793 9.81445 10.8688 9.10195 10.8688H4.03945C3.80156 10.8688 3.60938 11.0645 3.60938 11.307C3.60938 11.5496 3.80273 11.7453 4.03945 11.7453H9.10195C10.2891 11.7453 11.2547 10.7633 11.2547 9.55625V4.4375C11.2547 4.1961 11.0613 3.99922 10.8234 3.99922Z" fill="#ACE001"/>
</svg>
