<svg width="8" height="8" viewBox="0 0 8 8" fill="none" xmlns="http://www.w3.org/2000/svg">
<path d="M0.822432 7.66191C2.98403 7.5136 3.67887 6.1367 3.6337 3.3887L2.2284 3.39601C2.17957 3.39771 2.13134 3.38493 2.08976 3.35928C2.04818 3.33363 2.01512 3.29626 1.99474 3.25186C1.98133 3.2226 1.97415 3.19087 1.97364 3.15869C1.97323 3.12675 1.97932 3.09505 1.99154 3.06553C2.00376 3.03601 2.02185 3.00928 2.04472 2.98697L4.34266 0.0734013C4.39018 0.0276804 4.45338 0.00187874 4.51932 0.00129197C4.58525 0.000705199 4.64891 0.0253778 4.69723 0.070246L7.10079 2.9599C7.13593 2.99277 7.16037 3.03546 7.17091 3.08241C7.18146 3.12935 7.17762 3.17839 7.15991 3.22313C7.14052 3.26743 7.10835 3.30496 7.06753 3.3309C7.02671 3.35684 6.97908 3.37003 6.93073 3.36877L5.50019 3.3784C5.54569 6.17855 4.69391 8.53296 0.959773 7.89441L0.822266 7.66191H0.822432Z" fill="#07C160"/>
</svg>
