<svg width="13" height="11" viewBox="0 0 13 11" fill="none" xmlns="http://www.w3.org/2000/svg">
<path d="M10.749 0C10.8948 2.98815e-05 11.038 0.0384999 11.1644 0.111578C11.2908 0.184656 11.396 0.289792 11.4695 0.416514L12.8862 2.86143C12.9712 3.00791 13.0101 3.17685 12.9978 3.346C12.9855 3.51516 12.9226 3.6766 12.8174 3.80909L7.47746 10.5271C7.36021 10.6746 7.21148 10.7938 7.04227 10.8756C6.87307 10.9575 6.68774 11 6.5 11C6.31226 11 6.12693 10.9575 5.95773 10.8756C5.78853 10.7938 5.63979 10.6746 5.52254 10.5271L0.182619 3.80909C0.0774005 3.6766 0.0145082 3.51516 0.00222122 3.346C-0.0100658 3.17685 0.0288285 3.00791 0.113784 2.86143L1.53053 0.416514C1.604 0.289792 1.70918 0.184656 1.83559 0.111578C1.962 0.0384999 2.10523 2.98815e-05 2.25101 0H10.749ZM8.07653 5.09222L6.66979 7.07486C6.6505 7.10207 6.62502 7.12426 6.59549 7.13956C6.56596 7.15486 6.53322 7.16285 6.5 7.16285C6.46678 7.16285 6.43404 7.15486 6.40451 7.13956C6.37498 7.12426 6.3495 7.10207 6.33021 7.07486L4.92347 5.09222C4.8757 5.02489 4.81522 4.9677 4.74548 4.9239C4.67575 4.8801 4.59812 4.85055 4.51704 4.83695C4.43596 4.82334 4.35301 4.82594 4.27293 4.8446C4.19285 4.86325 4.1172 4.8976 4.05031 4.94568C3.98342 4.99376 3.92659 5.05463 3.88307 5.12482C3.83955 5.195 3.81019 5.27313 3.79667 5.35473C3.78315 5.43633 3.78574 5.51982 3.80427 5.60042C3.82281 5.68102 3.85694 5.75715 3.90471 5.82448L5.31187 7.8067C5.44696 7.99703 5.62524 8.15216 5.83189 8.25919C6.03854 8.36622 6.26759 8.42205 6.5 8.42205C6.73241 8.42205 6.96146 8.36622 7.16811 8.25919C7.37476 8.15216 7.55304 7.99703 7.68813 7.8067L9.09529 5.82448C9.14306 5.75715 9.17719 5.68102 9.19573 5.60042C9.21426 5.51982 9.21685 5.43633 9.20333 5.35473C9.18981 5.27313 9.16045 5.195 9.11693 5.12482C9.07341 5.05463 9.01658 4.99376 8.94969 4.94568C8.8828 4.8976 8.80715 4.86325 8.72707 4.8446C8.64699 4.82594 8.56404 4.82334 8.48296 4.83695C8.40188 4.85055 8.32425 4.8801 8.25452 4.9239C8.18478 4.9677 8.1243 5.02489 8.07653 5.09222Z" fill="#07C160"/>
</svg>
