<svg width="13" height="13" viewBox="0 0 13 13" fill="none" xmlns="http://www.w3.org/2000/svg">
<path d="M10.9619 8.10471C10.4331 8.10471 9.91562 7.94071 9.47078 7.64224C9.02594 7.94071 8.50847 8.10471 7.97965 8.10471C7.45084 8.10471 6.93413 7.94071 6.48853 7.64224C6.04369 7.94071 5.52622 8.10471 4.9974 8.10471C4.46859 8.10471 3.95188 7.94071 3.50628 7.64224C3.06144 7.94071 2.54397 8.10471 2.01516 8.10471C1.75188 8.10471 1.49617 8.06535 1.25181 7.99155V11.178C1.25181 12.1997 1.84267 13 2.59693 13H10.5314C11.2857 13 11.8766 12.1997 11.8766 11.178V7.94317C11.5818 8.05045 11.2729 8.10501 10.9619 8.10471ZM12.9032 4.63864L11.6753 0.92166C11.4937 0.370632 11.0088 0 10.4686 0H2.50009C1.95841 0 1.47348 0.371452 1.29267 0.92494L0.0996158 4.56894C-0.0229424 4.94285 -0.0358034 5.35203 0.079946 5.7284C0.350028 6.60742 1.11639 7.2429 2.01667 7.2429C2.59239 7.2429 3.12877 6.97723 3.50779 6.53772C3.88681 6.97723 4.4232 7.2429 4.99892 7.2429C5.57464 7.2429 6.11102 6.97723 6.49004 6.53772C6.86906 6.97723 7.40545 7.2429 7.98117 7.2429C8.55689 7.2429 9.09327 6.97723 9.47229 6.53772C9.85056 6.97723 10.3877 7.2429 10.9634 7.2429C12.0884 7.2429 12.9811 6.27697 13 5.05765C13 4.97073 12.9206 4.69194 12.9032 4.63864ZM9.52147 4.34345H3.45635C3.32593 4.34345 3.20085 4.28729 3.10863 4.18734C3.01641 4.08738 2.9646 3.95182 2.9646 3.81046C2.9646 3.6691 3.01641 3.53353 3.10863 3.43358C3.20085 3.33362 3.32593 3.27747 3.45635 3.27747H9.52147C9.65189 3.27747 9.77696 3.33362 9.86918 3.43358C9.9614 3.53353 10.0132 3.6691 10.0132 3.81046C10.0132 3.95182 9.9614 4.08738 9.86918 4.18734C9.77696 4.28729 9.65189 4.34345 9.52147 4.34345Z" fill="#07C160"/>
</svg>
