<svg width="13" height="14" viewBox="0 0 13 14" fill="none" xmlns="http://www.w3.org/2000/svg">
<path d="M1.3092 8.50507L11.3629 8.53925H11.3639C11.7199 8.54118 12.0439 8.75349 12.1862 9.08124C12.3103 9.36771 12.2766 9.69589 12.1031 9.94843L12.0201 10.051L9.50647 12.7658C9.42222 12.857 9.31947 12.9301 9.20569 12.9797C9.09205 13.0291 8.96927 13.0532 8.84534 13.0529C8.67049 13.0529 8.49954 13.003 8.35315 12.9074C8.20659 12.8116 8.09028 12.6753 8.02014 12.5148C7.95006 12.3544 7.92847 12.1767 7.95764 12.0041C7.98691 11.8314 8.06611 11.6706 8.18518 11.5422L9.30627 10.3312L1.30139 10.3049C1.06285 10.3038 0.83464 10.2076 0.666626 10.0383C0.49866 9.86895 0.404171 9.64003 0.404907 9.40155V9.40057C0.406134 9.16271 0.501993 8.93465 0.670532 8.76678C0.839123 8.59901 1.06744 8.50525 1.3053 8.50507H1.3092ZM3.78674 0.946472C3.90484 0.942004 4.02261 0.961058 4.13342 1.00214C4.24433 1.04325 4.34653 1.10526 4.43323 1.18573H4.43225C4.51911 1.26604 4.58982 1.36342 4.63928 1.47089C4.68861 1.57822 4.71681 1.69464 4.72131 1.81268C4.72576 1.93073 4.70671 2.04859 4.66565 2.15936C4.62456 2.27021 4.56148 2.37153 4.48108 2.45819L3.35999 3.66815L11.3649 3.69647C11.8309 3.69817 12.2132 4.05407 12.2574 4.508L12.2614 4.59979C12.2602 4.83766 12.1652 5.06566 11.9967 5.23358C11.8281 5.40152 11.5989 5.49609 11.361 5.49628H11.358L1.30334 5.4621C1.12856 5.46119 0.957124 5.40882 0.811157 5.31268C0.665398 5.21658 0.550883 5.08014 0.481079 4.9201C0.338988 4.59276 0.402921 4.21077 0.646118 3.9494L3.15979 1.23456C3.2401 1.1477 3.33748 1.07796 3.44495 1.0285C3.55235 0.979104 3.66861 0.950984 3.78674 0.946472Z" fill="#009AFA" stroke="#009AFA" stroke-width="0.3"/>
</svg>
