<svg width="7" height="9" viewBox="0 0 7 9" fill="none" xmlns="http://www.w3.org/2000/svg">
<path d="M6.95574 3.96458L3.70575 0.0985265C3.65094 0.0354253 3.57674 0 3.4994 0C3.42206 0 3.34787 0.0354253 3.29305 0.0985265L0.0430579 3.96458C-0.0497991 4.07794 0.0172643 4.26886 0.151391 4.26886H1.64226V7.10874C1.64226 7.12663 1.65774 7.14453 1.67321 7.14453H5.32559C5.34106 7.14453 5.35654 7.12663 5.35654 7.10874V4.26886H6.84741C6.8777 4.26836 6.9072 4.2576 6.93225 4.2379C6.95731 4.2182 6.97681 4.19043 6.98834 4.15804C6.99988 4.12564 7.00294 4.09004 6.99714 4.05565C6.99135 4.02126 6.97695 3.9896 6.95574 3.96458ZM5.24821 8.17667H1.75059C1.73705 8.17667 1.72363 8.17359 1.71111 8.16759C1.69859 8.16159 1.68722 8.15281 1.67764 8.14172C1.66806 8.13064 1.66046 8.11749 1.65527 8.10301C1.65009 8.08854 1.64742 8.07302 1.64742 8.05735V7.65762C1.64742 7.59199 1.69385 7.5383 1.75059 7.5383H5.24821C5.30495 7.5383 5.35138 7.59199 5.35138 7.65762V8.05735C5.35138 8.089 5.34051 8.11935 5.32116 8.14172C5.30181 8.1641 5.27557 8.17667 5.24821 8.17667ZM5.25337 9H1.74544C1.71944 9 1.69451 8.98806 1.67613 8.9668C1.65775 8.94554 1.64742 8.91671 1.64742 8.88664V8.67186C1.64742 8.6122 1.68869 8.55851 1.74544 8.55851H5.25337C5.30495 8.55851 5.35138 8.60624 5.35138 8.67186V8.88664C5.35138 8.9463 5.31011 9 5.25337 9Z" fill="#07C160"/>
</svg>
