<svg width="12" height="10" viewBox="0 0 12 10" fill="none" xmlns="http://www.w3.org/2000/svg">
<path d="M11.9613 1.42948C11.9732 1.43395 11.9821 1.4399 11.994 1.44437L12 1.39523L11.9613 1.42948ZM0.00595462 1.42203C0.0119092 1.41906 0.0193525 1.41757 0.0253071 1.4131L0 1.39225L0.00595462 1.42203ZM11.4641 2.01914C11.3584 2.01914 11.2631 2.06083 11.1932 2.12784C11.1887 2.13231 11.1872 2.13082 11.1887 2.12486L8.57313 4.48499L6.44287 0.215911C6.34313 0.0833863 6.18534 0 6.0067 0C5.79829 0 5.61667 0.117634 5.52438 0.288874L3.42985 4.48499L0.730927 2.04892C0.674358 2.01765 0.608857 1.99978 0.538891 1.99978C0.323037 1.99978 0.148865 2.17549 0.148865 2.38991C0.148865 2.40778 0.145888 2.41671 0.139933 2.41671L0.975065 8.65729C0.975065 8.63346 0.973576 8.60964 0.970599 8.58432C1.02121 9.01912 1.31448 9.37947 1.70897 9.52838C1.67324 9.51497 1.63751 9.50455 1.60476 9.4986C2.44287 9.81278 4.08783 10.0168 5.98288 9.99891C7.88686 9.98253 9.54671 9.74726 10.3967 9.41521C10.3655 9.42117 10.3327 9.4301 10.297 9.4435C10.6915 9.29311 10.9847 8.93276 11.0354 8.49796C11.0294 8.54859 11.0294 8.59624 11.0324 8.63942L11.8616 2.4316C11.8586 2.42863 11.8556 2.41969 11.8556 2.40629C11.8556 2.19485 11.6814 2.01914 11.4641 2.01914Z" fill="white"/>
</svg>
