<svg width="32" height="28" viewBox="0 0 32 28" fill="none" xmlns="http://www.w3.org/2000/svg">
<rect width="32" height="28" rx="10" fill="#07C160"/>
<g clip-path="url(#clip0_2711_113)">
<path d="M20.6114 12.7784C20.8601 12.783 21.1073 12.7379 21.3384 12.6458C21.5696 12.5538 21.7801 12.4166 21.9576 12.2423C22.1351 12.068 22.2761 11.86 22.3724 11.6306C22.4686 11.4012 22.5182 11.1549 22.5182 10.9061C22.5182 10.6573 22.4686 10.411 22.3724 10.1815C22.2761 9.95211 22.1351 9.74417 21.9576 9.56985C21.7801 9.39554 21.5696 9.25835 21.3384 9.1663C21.1073 9.07424 20.8601 9.02917 20.6114 9.03372C20.1207 9.04268 19.6532 9.24389 19.3094 9.59405C18.9655 9.9442 18.7729 10.4153 18.7729 10.9061C18.7729 11.3968 18.9655 11.8679 19.3094 12.2181C19.6532 12.5682 20.1207 12.7694 20.6114 12.7784ZM23.8867 6.53906H8.59803C7.98936 6.53906 7.50537 7.03439 7.50537 7.64306V20.4097C7.50537 21.0184 7.98936 21.5137 8.59803 21.5137H23.8867C24.4954 21.5137 24.9794 21.0184 24.9794 20.4097V7.64306C24.9794 7.03439 24.4954 6.53906 23.8867 6.53906ZM19.8667 14.2491C19.8056 14.1754 19.7294 14.1156 19.6433 14.0739C19.5571 14.0321 19.4631 14.0093 19.3674 14.0071C19.1687 14.0071 19.0287 14.1004 18.868 14.2291L18.1387 14.8457C17.9867 14.9551 17.8654 15.0291 17.6907 15.0291C17.5328 15.03 17.3801 14.9731 17.2614 14.8691C17.2042 14.817 17.1482 14.7636 17.0934 14.7091L14.9954 12.4397C14.9141 12.347 14.814 12.2728 14.7016 12.2222C14.5892 12.1716 14.4673 12.1458 14.344 12.1464C14.0827 12.1464 13.8407 12.2757 13.6887 12.4511L8.75336 18.4017V8.24372C8.79203 7.97837 8.9987 7.78705 9.26403 7.78705H23.216C23.4854 7.78705 23.7034 7.98638 23.7194 8.25505L23.7307 18.4097L19.8653 14.2491H19.8667Z" fill="white"/>
</g>
<defs>
<clipPath id="clip0_2711_113">
<rect width="18" height="16" fill="white" transform="translate(7 6)"/>
</clipPath>
</defs>
</svg>
