<svg width="24" height="24" viewBox="0 0 24 24" fill="none" xmlns="http://www.w3.org/2000/svg">
<path fill-rule="evenodd" clip-rule="evenodd" d="M12.0002 22.8002C17.9649 22.8002 22.8002 17.9649 22.8002 12.0002C22.8002 6.03552 17.9649 1.2002 12.0002 1.2002C6.03552 1.2002 1.2002 6.03552 1.2002 12.0002C1.2002 17.9649 6.03552 22.8002 12.0002 22.8002Z" stroke="black" stroke-width="1.2" stroke-linecap="round" stroke-linejoin="round"/>
<path d="M1.2002 12H22.8002" stroke="black" stroke-width="1.2" stroke-linecap="round" stroke-linejoin="round"/>
<path fill-rule="evenodd" clip-rule="evenodd" d="M11.9998 22.8002C14.3194 22.8002 16.1998 17.9649 16.1998 12.0002C16.1998 6.03552 14.3194 1.2002 11.9998 1.2002C9.6802 1.2002 7.7998 6.03552 7.7998 12.0002C7.7998 17.9649 9.6802 22.8002 11.9998 22.8002Z" stroke="black" stroke-width="1.2" stroke-linecap="round" stroke-linejoin="round"/>
<path d="M4.2002 4.7998C6.19639 6.65335 8.9541 7.7998 12.0002 7.7998C15.0463 7.7998 17.804 6.65335 19.8002 4.7998" stroke="black" stroke-width="1.2" stroke-linecap="round" stroke-linejoin="round"/>
<path d="M19.8002 19.2002C17.804 17.3466 15.0463 16.2002 12.0002 16.2002C8.9541 16.2002 6.19639 17.3466 4.2002 19.2002" stroke="black" stroke-width="1.2" stroke-linecap="round" stroke-linejoin="round"/>
</svg>
