<svg width="83" height="23" viewBox="0 0 83 23" fill="none" xmlns="http://www.w3.org/2000/svg">
<path d="M0 5.35922C0 2.39941 2.39962 0 5.35969 0H17.6423C20.6024 0 23.002 2.39941 23.002 5.35922V17.6408C23.002 20.6006 20.6024 23 17.6423 23H5.35969C2.39962 23 0 20.6006 0 17.6408V5.35922Z" fill="#07C160"/>
<path d="M5.22852 12.2063C5.22852 11.4313 6.13613 11.0117 6.72661 11.5137L8.16108 12.7332C8.36425 12.9059 8.48134 13.1591 8.48134 13.4258V16.115C8.48134 16.3816 8.36425 16.6349 8.16108 16.8076L6.72661 18.0271C6.13613 18.5291 5.22852 18.1095 5.22852 17.3345V12.2063Z" fill="white"/>
<path d="M17.7754 11.448C17.7754 12.223 16.8678 12.6426 16.2773 12.1406L14.8428 10.9211C14.6397 10.7484 14.5226 10.4952 14.5226 10.2285V7.53931C14.5226 7.27265 14.6397 7.01944 14.8428 6.84671L16.2773 5.62719C16.8678 5.1252 17.7754 5.54481 17.7754 6.31979V11.448Z" fill="white"/>
<path d="M17.4554 14.7794C17.6582 14.9521 17.7751 15.2051 17.7751 15.4715V17.3555C17.7751 18.1308 16.8668 18.5503 16.2764 18.0476L5.54822 8.91223C5.34538 8.7395 5.22852 8.48651 5.22852 8.2201V6.33614C5.22852 5.56082 6.13683 5.14133 6.72716 5.64401L17.4554 14.7794Z" fill="white"/>
<path d="M74.9029 4.15088C76.9959 4.15088 78.8933 4.91375 80.2821 6.28302C81.6514 7.65228 82.4142 9.54968 82.4142 11.6231C82.4142 13.6966 81.6514 15.594 80.2821 16.9633C78.8933 18.3325 76.9959 19.0954 74.9029 19.0954C72.8099 19.0954 70.893 18.3325 69.5237 16.9633C68.1349 15.594 67.3916 13.6966 67.3916 11.6231C67.3916 9.54968 68.1349 7.65228 69.5237 6.28302C70.893 4.91375 72.8099 4.15088 74.9029 4.15088ZM74.9029 16.5525C77.837 16.5525 79.8909 14.5377 79.8909 11.6231C79.8909 8.70857 77.837 6.6938 74.9029 6.6938C71.9688 6.6938 69.9149 8.70857 69.9149 11.6231C69.9149 14.5377 71.9688 16.5525 74.9029 16.5525Z" fill="black"/>
<path d="M60.6519 16.5525C62.4515 16.5525 63.9968 15.77 64.8575 14.4008L66.9896 15.77C66.3441 16.7872 65.4248 17.6283 64.3489 18.1956C63.234 18.7824 61.9821 19.0954 60.6519 19.0954C58.5589 19.0954 56.642 18.3325 55.2727 16.9633C53.8839 15.594 53.1406 13.6966 53.1406 11.6231C53.1406 9.54968 53.8839 7.65228 55.2727 6.28302C56.642 4.91375 58.5589 4.15088 60.6519 4.15088C61.9821 4.15088 63.234 4.44429 64.3489 5.03112C65.4248 5.61795 66.3441 6.45906 66.9896 7.47623L64.8575 8.84549C63.9968 7.47623 62.4515 6.6938 60.6519 6.6938C57.7178 6.6938 55.664 8.70857 55.664 11.6231C55.664 14.5377 57.7178 16.5525 60.6519 16.5525Z" fill="black"/>
<path d="M44.0819 12.8948V16.0245H52.1018V18.5479H41.5586V4.6792H51.8867V7.22211H44.0819V10.3519H51.5932V12.8948H44.0819Z" fill="black"/>
<path d="M37.0418 15.1247V4.6792H39.5847V18.5479H37.0418L29.3544 8.12192V18.5479H26.8311V4.6792H29.3544L37.0418 15.1247Z" fill="black"/>
</svg>
