<svg width="20" height="21" viewBox="0 0 20 21" fill="none" xmlns="http://www.w3.org/2000/svg">
<path d="M7.525 10.3125H2.91875C1.6125 10.3125 0.546875 9.24687 0.546875 7.94062V3.3C0.546875 1.99375 1.6125 0.928123 2.91875 0.928123H7.55937C8.86562 0.928123 9.93125 1.99375 9.93125 3.3V7.94062C9.93125 9.24687 8.83125 10.3125 7.525 10.3125ZM8.86563 3.3C8.86563 2.57812 8.28125 1.95937 7.525 1.95937H2.91875C2.19687 1.95937 1.57812 2.54375 1.57812 3.3V7.94062C1.57812 8.6625 2.1625 9.28125 2.91875 9.28125H7.55937C8.28125 9.28125 8.9 8.69687 8.9 7.94062V3.3H8.86563ZM7.525 20.7969H2.91875C1.6125 20.7969 0.546875 19.7313 0.546875 18.425V13.7844C0.546875 12.4781 1.6125 11.4125 2.91875 11.4125H7.55937C8.86562 11.4125 9.93125 12.4781 9.93125 13.7844V18.425C9.93125 19.7313 8.83125 20.7969 7.525 20.7969ZM8.86563 13.7844C8.86563 13.0625 8.28125 12.4437 7.525 12.4437H2.91875C2.19687 12.4437 1.57812 13.0281 1.57812 13.7844V18.425C1.57812 19.1469 2.1625 19.7656 2.91875 19.7656H7.55937C8.28125 19.7656 8.9 19.1812 8.9 18.425V13.7844H8.86563ZM19.3156 13.475H11.4781C11.2031 13.475 10.9625 13.2344 10.9625 12.9594C10.9625 12.6844 11.2031 12.4437 11.4781 12.4437H19.3156C19.5906 12.4437 19.8312 12.6844 19.8312 12.9594C19.8312 13.2344 19.5906 13.475 19.3156 13.475ZM19.3156 9.28125H11.4781C11.2031 9.28125 10.9625 9.04062 10.9625 8.76562C10.9625 8.49062 11.2031 8.25 11.4781 8.25H19.3156C19.5906 8.25 19.8312 8.49062 19.8312 8.76562C19.8312 9.075 19.5906 9.28125 19.3156 9.28125ZM11.4781 18.7H19.3156C19.5906 18.7 19.8312 18.9406 19.8312 19.2156C19.8312 19.4906 19.5906 19.7312 19.3156 19.7312H11.4781C11.2031 19.7312 10.9625 19.4906 10.9625 19.2156C10.9625 18.9406 11.2031 18.7 11.4781 18.7ZM19.3156 3.025H11.4781C11.2031 3.025 10.9625 2.78437 10.9625 2.50937C10.9625 2.23437 11.2031 1.99375 11.4781 1.99375H19.3156C19.5906 1.99375 19.8312 2.23437 19.8312 2.50937C19.8312 2.81875 19.5906 3.025 19.3156 3.025ZM19.3156 6.15312H11.4781C11.2031 6.15312 10.9625 5.9125 10.9625 5.6375C10.9625 5.3625 11.2031 5.12187 11.4781 5.12187H19.3156C19.5906 5.12187 19.8312 5.3625 19.8312 5.6375C19.8312 5.94687 19.5906 6.15312 19.3156 6.15312ZM19.3156 16.6031H11.4781C11.2031 16.6031 10.9625 16.3625 10.9625 16.0875C10.9625 15.8125 11.2031 15.5719 11.4781 15.5719H19.3156C19.5906 15.5719 19.8312 15.8125 19.8312 16.0875C19.8312 16.3625 19.5906 16.6031 19.3156 16.6031Z" fill="black"/>
</svg>
