<svg width="14" height="15" viewBox="0 0 14 15" fill="none" xmlns="http://www.w3.org/2000/svg">
<path d="M6.9897 1.2998L3.88327 4.4076H1.68158C1.10946 4.4076 0.645508 4.87155 0.645508 5.44367V9.58757C0.645508 10.1602 1.10946 10.6237 1.68158 10.6237H3.88325L6.98968 13.7323C7.56178 13.7323 8.0253 13.2684 8.0253 12.6963V2.33587C8.02531 1.76376 7.56181 1.2998 6.98971 1.2998H6.9897ZM6.9897 12.6604L4.27132 9.66114H1.68158V5.51729H4.27132L6.9897 2.51765V12.6604Z" fill="#07C160"/>
<path d="M13.1289 7.9704C13.2312 7.9704 13.314 7.7668 13.314 7.51596C13.314 7.26513 13.2312 7.06152 13.1289 7.06152H11.8335C11.7312 7.06152 11.6484 7.26508 11.6484 7.51596C11.6484 7.7668 11.7312 7.9704 11.8335 7.9704H13.1289Z" fill="#07C160"/>
<path d="M13.2698 2.09772C13.3584 2.04654 13.3283 1.82889 13.2028 1.61165C13.0774 1.39442 12.904 1.25948 12.8154 1.31064L11.6935 1.95836C11.6048 2.00953 11.635 2.22719 11.7604 2.44442C11.8858 2.66165 12.0593 2.79658 12.1479 2.74542L13.2698 2.09772Z" fill="#07C160"/>
<path d="M13.2698 12.9339C13.3584 12.9851 13.3283 13.2027 13.2028 13.42C13.0774 13.6372 12.904 13.7722 12.8154 13.721L11.6935 13.0733C11.6048 13.0221 11.635 12.8045 11.7604 12.5872C11.8858 12.37 12.0593 12.2351 12.1479 12.2862L13.2698 12.9339Z" fill="#07C160"/>
<path d="M8.75427 9.84309C8.6619 9.59446 8.68743 9.35862 8.93609 9.26622C9.56404 8.97633 9.86377 8.41222 9.94042 7.70469C10.0298 6.8792 9.63478 6.12054 8.95276 5.80806C8.72968 5.66456 8.63731 5.41599 8.78078 5.19289C8.92429 4.96982 9.17293 4.87744 9.39595 5.02091C10.4062 5.60759 11.0116 6.62766 10.8838 7.80693C10.7816 8.75032 10.2077 9.64264 9.33113 10.0249C9.12628 10.1409 8.85166 10.0648 8.75427 9.84316V9.84309Z" fill="#07C160"/>
</svg>
