<svg width="18" height="18" viewBox="0 0 18 18" fill="none" xmlns="http://www.w3.org/2000/svg">
<circle cx="9" cy="9" r="9" fill="#FF9100"/>
<path d="M5.43502 12.6568C4.42007 11.6933 3.9126 10.4747 3.9126 9.00102C3.9126 7.52736 4.42007 6.31348 5.43502 5.35938C6.45974 4.39584 7.70891 3.91406 9.18254 3.91406C10.3244 3.91406 11.3393 4.2069 12.2274 4.79259C13.1155 5.37827 13.7352 6.19068 14.0865 7.22979H11.1002C10.7098 6.50241 10.0853 6.13872 9.22645 6.13872C8.36765 6.13872 7.68939 6.3985 7.19167 6.91806C6.70371 7.43762 6.45974 8.13194 6.45974 9.00102C6.45974 9.8701 6.70371 10.5644 7.19167 11.084C7.68939 11.6035 8.36765 11.8633 9.22645 11.8633C10.0853 11.8633 10.7098 11.4996 11.1002 10.7722H14.0865C13.7352 11.8114 13.1155 12.6238 12.2274 13.2094C11.3393 13.7951 10.3244 14.088 9.18254 14.088C7.70891 14.088 6.45974 13.6109 5.43502 12.6568Z" fill="white"/>
</svg>
