<svg width="11" height="11" viewBox="0 0 11 11" fill="none" xmlns="http://www.w3.org/2000/svg">
<g clip-path="url(#clip0_922_1875)">
<path d="M10.8818 4.931C10.1045 5.79218 8.72021 7.22032 8.72021 7.22032C8.72021 7.22032 8.94228 8.78481 9.07553 9.85411C9.13475 10.3995 8.69799 10.6364 8.20942 10.4211C7.27669 9.99764 5.85539 9.33739 5.53708 9.18668C5.21136 9.33022 3.78266 9.98328 2.84253 10.4067C2.34655 10.6148 1.90979 10.3852 1.96161 9.83975C2.08746 8.77044 2.31693 7.21313 2.31693 7.21313C2.31693 7.21313 0.917841 5.79217 0.133176 4.93099C-0.14812 4.61522 0.0369559 4.17028 0.584739 4.09134C1.70994 3.89757 3.44955 3.58897 3.44955 3.58897C3.44955 3.58897 4.40448 1.99577 5.0041 1.01977C5.33723 0.424114 5.56671 0.495881 5.60372 0.510237C5.70736 0.538948 5.87022 0.66094 6.0775 1.01977C6.66971 1.99578 7.60984 3.58898 7.60984 3.58898C7.60984 3.58898 9.32725 3.89759 10.4376 4.09135C10.978 4.17029 11.1557 4.62241 10.8818 4.931H10.8818Z" fill="#FF8400"/>
</g>
<defs>
<clipPath id="clip0_922_1875">
<rect width="11" height="10" fill="white" transform="translate(0 0.5)"/>
</clipPath>
</defs>
</svg>
