<svg width="36" height="36" viewBox="0 0 36 36" fill="none" xmlns="http://www.w3.org/2000/svg">
<ellipse cx="18" cy="31.5" rx="14" ry="3.5" fill="#B4C9C2"/>
<g clip-path="url(#clip0_2827_1175)">
<path d="M5.48779 14.1241C6.43549 13.4688 7.59487 13.3407 8.62379 12.8923C9.09395 12.8479 9.1481 13.4515 9.5961 13.491C10.0416 13.2446 9.46318 12.7518 9.8201 12.4833L10.4946 12.1925C11.2601 12.5596 11.4201 13.4688 12.0872 13.9369C12.5081 14.2325 12.8035 14.7056 13.4558 14.7869C13.6183 14.1931 13.185 13.9443 12.8379 13.6511C12.2915 13.1928 11.6318 12.806 11.713 11.9265C12.7149 11.3623 13.8299 11.1011 14.913 10.7537C15.6343 10.6478 16.2718 10.3078 16.9364 10.0441C17.3352 9.884 17.7684 9.6524 18.0859 10.1969C18.3075 10.9705 18.1844 11.7565 18.2016 12.5375C18.1945 12.7329 18.1664 12.927 18.1179 13.1165C17.8718 13.6757 18.0859 14.3976 17.5272 14.8534C16.9709 15.0333 16.961 14.5528 16.8183 14.2572C16.5721 13.7644 16.4195 13.2076 15.7278 13.0253C16.4392 13.8778 16.001 15.3043 17.2983 15.8488C17.9924 16.0483 17.9038 16.6618 18.0146 17.1718C17.9998 17.6252 20.512 17.8522 20 18L18 19C16.88 19.202 15.4748 18.3104 14.5 18C11.9474 17.219 9.32533 15.7773 6.81456 14.8879C6.37395 14.6292 5.82995 14.5504 5.48779 14.1241Z" fill="#40916C"/>
<path d="M17.8818 10.0228C16.9415 10.0228 16.2867 10.762 15.435 10.9886C15.152 11.065 14.9132 11.235 14.9107 10.762C15.7058 8.75893 15.2529 7.14023 13.4092 5.9453C13.2935 5.87139 13.232 5.71371 13.0498 5.45255C14.9206 5.34168 16.779 5.38356 17.36 3.19574C17.995 3.17849 17.8793 3.68849 17.9286 4.04081C18.251 6.2582 18.7704 6.60806 21.0326 6.05371C21.3083 5.98719 21.5815 5.90342 21.8203 6.13994C20.016 7.37183 20.4787 9.07183 20.8356 10.7546C21.0129 11.267 20.6929 11.3114 20.3433 11.2473C19.5261 11.0675 18.6941 10.8901 18.1477 10.1633C18.0469 10.1444 17.9542 10.0955 17.8818 10.0228Z" fill="#FECF00"/>
<path d="M18.1232 10.0156C18.8444 10.6291 19.8093 10.6981 20.6265 11.0972C20.8038 11.1835 20.7939 10.9001 20.8407 10.7646L21.845 11.0603C22.0592 11.723 21.5816 12.169 21.3109 12.6691C21.0401 13.1692 20.9539 13.5536 21.6259 13.7507C21.7753 13.8193 21.8944 13.9402 21.9607 14.0907C22.0567 14.3371 22.0518 14.5835 22.1527 14.8298C22.3989 15.1526 22.645 14.9777 22.9109 14.8594C24.1613 14.549 25.1681 13.6792 26.4087 13.3516C26.6051 13.4803 26.7619 13.6612 26.8616 13.8739C27.0093 14.1942 29.1846 14.6378 29 15C28.9065 15.5839 26.3717 15.862 26 16C24.1366 16.6948 22.2315 16.8945 20.3558 17.5597C19.9792 17.8898 19.5853 18.1337 19.0758 17.8208C18.869 17.5277 18.9355 17.2123 19.0241 16.9068C19.5164 15.1821 19.3884 13.6152 18.0198 12.302C18.0641 11.5382 17.8647 10.7671 18.1232 10.0156Z" fill="#52B687"/>
<path d="M11.7131 11.934C12.0198 12.5948 12.5137 13.1508 13.1334 13.533C13.3636 13.6949 13.5809 13.8745 13.7832 14.0701C14.2288 14.4446 13.8448 14.8733 13.7119 15.1295C13.414 15.711 13.2712 15.0261 13.0522 14.9349C11.782 14.4052 11.1223 13.3064 10.4946 12.1829C9.77695 11.0257 9.33011 9.72101 9.18756 8.3665C9.14325 7.98708 8.84048 7.4352 9.56171 7.31201C10.2829 7.18882 10.2829 7.68404 10.3125 8.20143C10.3579 9.56567 10.85 10.8772 11.7131 11.934Z" fill="#FCE904"/>
<path d="M26.4134 13.3902C25.3278 14.0529 24.3285 14.8906 22.9918 15.0286C22.5857 15.3021 22.1845 15.3612 21.7955 14.9966L21.7808 14.1293C22.9205 13.3902 24.2423 13.065 25.5001 12.6511C26.2858 11.958 26.8386 11.0391 27.0829 10.0198C27.1912 9.63049 27.2035 9.12295 27.7549 9.22396C28.4072 9.34222 28.1586 9.91382 28.1118 10.3129C27.9961 11.2985 27.2429 11.9883 26.9057 12.8728C26.9024 13.0048 26.8502 13.1309 26.7592 13.2265C26.6682 13.3221 26.5449 13.3805 26.4134 13.3902Z" fill="#FCEA03"/>
<path d="M29.3799 5.95981C28.7448 6.61518 29.4217 7.34445 29.2543 8.17721C28.2697 7.64503 27.2679 6.84677 26.1897 8.17721C26.4063 6.83199 26.1897 5.79967 25.0229 5.07039C26.1577 5.01126 27.0611 4.80431 27.4254 3.71286C27.546 3.69561 27.7036 3.71286 27.7282 3.81634C27.9251 4.67373 28.346 5.31431 29.2593 5.55329C29.4168 5.6075 29.4488 5.79474 29.3799 5.95981Z" fill="#FED002"/>
<path d="M21.8202 6.1508C21.1408 6.375 20.4786 6.70514 19.782 6.80123C18.7605 6.94167 17.7119 5.81572 17.6282 4.66761C17.5912 4.17485 17.8399 3.62051 17.3599 3.20659C17.4249 2.77659 17.6544 2.38872 17.9999 2.125C18.6103 4.50746 19.9691 5.86746 22.5882 5.3279C22.4922 5.96848 22.2362 6.1508 21.8202 6.1508Z" fill="#FEE902"/>
<path d="M6.65224 8.56272C5.65286 9.15649 6.63009 10.0114 6.31255 10.8392C5.35993 10.211 4.34332 9.77736 3.23563 10.9033C3.70332 9.47432 3.17163 8.57504 2.18701 7.75461C3.41778 8.08229 4.00117 7.46635 4.46147 6.62127C4.49832 6.6103 4.53632 6.60369 4.5747 6.60156C4.74826 7.06561 5.02576 7.48368 5.38591 7.82365C5.74605 8.16362 6.17925 8.41645 6.65224 8.56272Z" fill="#FDD102"/>
<path d="M26.9848 14.8758L26.6156 13.8755C26.586 13.3976 26.9282 13.2029 27.2802 13.0157C28.2746 11.907 29.2707 10.7999 30.2685 9.69453C30.5392 9.39148 30.7608 9.07612 31.2531 9.49496C31.8045 9.98771 31.2531 10.1676 31.0439 10.409C30.234 11.3945 29.3922 12.38 28.5626 13.3655C28.5085 13.9839 28.0556 14.3018 27.6051 14.6221L26.9848 14.8758Z" fill="#F9E907"/>
<path d="M18.1281 12.4551C18.7705 12.3146 18.9798 12.7828 19.1865 13.2213C19.925 14.7488 19.7035 16.2567 19.0561 17.7497C18.8641 18.3041 18.4382 18.5135 17.8868 18.5381L17.3945 18.1883L17.8376 17.2742C17.8211 17.054 17.8592 16.8331 17.9484 16.6312C18.2758 15.6186 18.325 14.6207 17.8031 13.6475C17.772 13.5696 17.7606 13.4851 17.7701 13.4017C17.7795 13.3183 17.8095 13.2385 17.8573 13.1696L17.8942 12.6768C17.9451 12.5787 18.0275 12.5007 18.1281 12.4551Z" fill="#FCEA02"/>
<path d="M11.0756 4.21636C10.8048 5.10332 10.8024 6.26129 9.27128 5.771C9.02512 5.69216 8.65097 6.03216 8.12912 6.27607C8.59189 5.21665 8.52051 4.43564 7.56543 3.86404C8.2202 3.44274 9.14574 3.63245 9.35743 2.75781C9.98266 3.17665 10.3027 3.96999 11.0756 4.21636Z" fill="#FDD203"/>
<path d="M26 12.5C27 13 23.0977 13.8268 21.7808 14.1323L21.5347 13.8859C21.6134 12.8314 22.0147 11.9691 22.9968 11.4492C23.7944 11.9444 25 12 26 12.5Z" fill="#54B888"/>
<path d="M23.0069 11.4561L21.5447 13.8927C20.597 14.1243 20.3976 13.7819 20.826 12.9663C21.1607 12.3282 21.5053 11.695 21.845 11.0594C22.1675 10.5519 22.4776 10.0369 22.8173 9.53925C22.9823 9.29287 23.1841 9.12041 23.509 9.39142C23.7552 9.59099 23.9152 9.75606 23.7355 10.0763C23.4844 10.5321 23.2481 10.9953 23.0069 11.4561Z" fill="#FBEA04"/>
<path d="M9.82026 12.4797C9.8421 12.596 9.87763 12.7093 9.92611 12.8172C10.1427 13.1868 10.5415 13.5908 9.92611 13.9062C9.41657 14.1723 9.14334 13.7264 8.91688 13.3716C8.81596 13.2139 8.82826 12.9872 8.61903 12.8788C8.31134 12.322 8.00119 11.7677 7.69842 11.2108C7.53349 10.9053 7.47442 10.5629 7.78703 10.3436C8.16365 10.0775 8.27934 10.4693 8.5255 10.6664C9.12119 11.1739 9.1655 12.0411 9.82026 12.4797Z" fill="#FBEA05"/>
<path d="M6.65219 8.56362C5.06204 8.87159 4.66327 7.85652 4.46143 6.62217C4.46143 6.3758 4.55004 6.08507 4.77404 6.03826C5.05712 5.97667 5.06204 6.33638 5.15066 6.5113C5.43373 7.07551 5.62327 7.69391 6.47496 7.61015C6.75558 7.58058 7.21343 7.52391 7.26266 7.91319C7.30204 8.21377 6.92296 8.40594 6.65219 8.56362Z" fill="#FDEC04"/>
<path d="M29.3798 5.95806C29.3305 5.89893 29.2788 5.7856 29.2321 5.78806C27.7748 5.83488 27.669 4.71879 27.4253 3.72343C27.5582 3.47705 27.5607 2.95473 27.9545 3.62734C28.693 4.85922 28.7225 4.83951 30.2068 5.01937C30.1059 5.4998 29.7244 5.71415 29.3798 5.95806Z" fill="#FDEB05"/>
<path d="M27.6001 14.612C27.6863 14.0182 28.1909 13.7398 28.5576 13.3555C29.0499 13.6955 29.8032 13.5033 30.1035 14.1759C29.2493 14.2597 28.5306 15.0727 27.6001 14.612Z" fill="#5ABD8F"/>
<path d="M11.0756 4.21623C9.92608 4.40101 9.643 3.57812 9.35254 2.75768C9.40669 2.44232 9.59869 2.1442 9.80054 2.5729C9.9127 2.86656 10.1038 3.12346 10.3527 3.31521C10.6016 3.50696 10.8987 3.62608 11.211 3.65942C11.3587 3.68159 11.7033 3.62493 11.563 3.93536C11.5113 4.06841 11.2479 4.12014 11.0756 4.21623Z" fill="#FBE90F"/>
<path d="M4.18343 3.1177C3.94712 3.27538 4.16127 3.73611 3.72312 3.72379C3.43512 3.69915 3.25543 3.58089 3.23081 3.29509C3.20374 2.96988 3.31943 2.73828 3.68866 2.73828C3.96927 2.73828 4.14404 2.8319 4.18343 3.1177Z" fill="#FEE901"/>
<path d="M33.0844 8.02218C33.045 8.4016 32.9047 8.5987 32.5527 8.56175C32.4328 8.56284 32.3167 8.52016 32.2261 8.44169C32.1355 8.36322 32.0765 8.25436 32.0604 8.13551C32.0284 7.81276 32.2376 7.64276 32.5527 7.59595C32.9268 7.54667 33.0154 7.80537 33.0844 8.02218Z" fill="#FDF405"/>
<path d="M24.3262 7.07489C24.4641 7.06817 24.5997 7.11238 24.7073 7.19912C24.8148 7.28587 24.8868 7.40911 24.9095 7.54547C24.9588 7.86329 24.7102 8.02097 24.4172 8.06286C24.1243 8.10474 23.984 7.95445 23.9545 7.68097C23.9249 7.40749 23.9668 7.13402 24.3262 7.07489Z" fill="#FDF602"/>
<path d="M21.6728 2.95703C21.8697 3.02355 22.2192 2.86341 22.2192 3.23297C22.2192 3.55326 21.9731 3.72573 21.6556 3.72573C21.5343 3.73071 21.4158 3.68908 21.3242 3.60936C21.2327 3.52965 21.1751 3.4179 21.1632 3.29703C21.1189 2.92993 21.4463 3.00631 21.6728 2.95703Z" fill="#FBF010"/>
<path d="M14.6104 3.27395C14.4799 3.62134 14.2756 3.78641 13.9482 3.7051C13.7021 3.64105 13.4953 3.45873 13.5372 3.21235C13.5888 2.88467 13.8965 2.96597 14.1156 2.96597C14.3347 2.96597 14.6079 2.98568 14.6104 3.27395Z" fill="#FBF010"/>
<path d="M13.0029 8.59803C12.7764 8.91339 12.6312 9.09078 12.3382 9.04151C12.0453 8.99223 11.7647 8.89122 11.8952 8.52165C11.9616 8.32948 12.0404 7.99194 12.3678 8.12991C12.597 8.26066 12.8101 8.41777 13.0029 8.59803Z" fill="#FEFE00"/>
<path d="M27.2726 13.0136L26.6154 13.8734L26.4209 13.3807L26.9132 12.8633L27.2726 13.0136Z" fill="#3DB097"/>
<path d="M17.1333 16.0668C16.7124 16.2689 16.2102 16.0422 16.2816 15.7342C16.5696 14.4802 14.8982 13.8741 15.3118 12.7038C15.489 12.2111 15.9789 12.4353 16.2964 12.7777C16.8502 13.3887 17.0792 14.1599 17.377 14.899C17.7881 15.3893 17.6404 15.7638 17.1333 16.0668Z" fill="#F7E804"/>
<path d="M17.1333 16.0682C17.3967 15.7159 17.3795 15.3069 17.3795 14.9004C17.8348 14.4077 17.4139 13.6685 17.8718 13.1758L17.9308 13.5577C18.4084 14.6195 18.049 15.7406 18.177 16.8271L17.8373 17.2755C17.3991 16.9922 17.9555 16.1323 17.1333 16.0682Z" fill="#3F8E6A"/>
<path d="M18.128 12.4554L17.8818 12.7018C17.8818 11.8148 17.8818 10.9262 17.8818 10.036C17.9635 10.0245 18.0463 10.0245 18.128 10.036V12.4554Z" fill="#56BC8A"/>
<path d="M21.7959 15C22.1897 15.1651 22.591 15.0813 22.9922 15.032C22.5811 15.5026 22.1848 15.5272 21.7959 15Z" fill="#3EB096"/>
<path d="M18.1551 16.8241C17.5914 15.7696 17.9828 14.6461 17.9089 13.5547C18.8665 14.5821 18.5957 15.6982 18.1551 16.8241Z" fill="#59BC87"/>
</g>
<path d="M17.4485 34.0027L5.31055 29.7767V14.1406L17.4485 18.7892V34.0027Z" fill="#006631"/>
<path d="M30.6896 29.8648L17.4482 34.0027V18.6924L30.6896 14.1406V29.8648Z" fill="#009E4C"/>
<path d="M2 19.1061L5.25227 14.1406L17.4483 18.6924L14.196 24.0717L2 19.1061Z" fill="#04B358"/>
<path d="M34.5518 19.1641L30.7321 14L17.5 18.5L21.5 24.5L34.5518 19.1641Z" fill="#0BE272"/>
<path d="M17.4482 30.6929V27.4226L30.6896 22.9688V26.3325L17.4482 30.6929Z" fill="#03E382"/>
<path d="M17.4482 30.6929V27.4226L5.31032 22.9688V26.3325L17.4482 30.6929Z" fill="#00B567"/>
<defs>
<clipPath id="clip0_2827_1175">
<rect width="32" height="17" fill="white" transform="translate(2 2)"/>
</clipPath>
</defs>
</svg>
