<svg width="36" height="36" viewBox="0 0 36 36" fill="none" xmlns="http://www.w3.org/2000/svg">
<g clip-path="url(#clip0_1607_474)">
<ellipse cx="17.1054" cy="29.3494" rx="17" ry="2.00554" transform="rotate(4.55527 17.1054 29.3494)" fill="#B4C9C2"/>
<path d="M2.59766 14.5882L3.86516 9.94072L7.66766 8.67322L13.1602 7.82822C15.2727 7.96905 19.7512 8.25072 20.7652 8.25072C21.7792 8.25072 24.286 9.37738 25.4127 9.94072L27.5252 12.4757L28.3702 13.7432L27.1027 15.0107L2.59766 14.5882Z" fill="#00622F"/>
<path d="M2.1748 15.4332C2.5973 15.4332 3.4423 10.3632 3.8648 9.9407C4.2873 9.51821 11.0473 7.40571 11.0473 7.8282" stroke="#00622F"/>
<path d="M34.1707 18.3555L33.7658 17.5457L32.956 17.3433H30.5267L30.3242 18.7604L32.5511 19.7726L33.9683 18.9628L34.1707 18.3555Z" fill="white"/>
<path d="M8.07107 8.41128C8.11995 8.70631 8.06563 8.99176 8.08123 9.28586C8.16747 10.9132 8.17335 12.5461 7.77955 14.1446C8.06481 14.3963 8.08099 15.0527 7.63354 15.1483C6.8007 15.3261 5.83284 15.1829 5.01006 15.0089C4.58074 14.9182 4.17426 14.7962 3.89255 14.4361C4.26818 14.6505 4.59085 14.6547 5.01006 14.6834C5.48904 14.7162 5.93949 14.733 6.4191 14.6873C6.69833 14.6608 7.12575 14.7388 7.28308 14.4309C7.34391 14.3117 7.30733 14.1737 7.2978 14.0474C7.27453 13.7388 7.25174 13.3663 7.11468 13.0839C7.03096 12.9114 6.90186 12.7363 6.71062 12.8327C6.63959 12.7145 6.59946 12.6784 6.46769 12.6384C6.37168 12.7716 6.24977 12.8803 6.17616 13.0271C6.34199 12.9531 6.48061 12.8655 6.66204 12.8327V13.0271C6.7252 12.9955 6.71062 13.02 6.71062 12.9299L6.75921 13.1243C6.67826 13.0659 6.6067 13.0193 6.51627 12.9785C6.54606 13.0593 6.56695 13.0992 6.61345 13.1729L6.37051 13.27L6.32192 13.1243C6.19642 13.1422 6.09886 13.1693 5.98181 13.1243H5.88464C5.85816 13.2037 5.8669 13.195 5.78746 13.2214C5.80665 13.0287 5.72867 12.9692 5.54452 12.9299C5.61638 12.882 5.60297 12.8813 5.69029 12.8813C5.66735 12.8125 5.65074 12.7932 5.59311 12.7356C5.74116 12.7259 5.88245 12.7252 6.0304 12.7356C5.97953 12.4983 5.57985 12.5722 5.39876 12.6384C5.44142 12.7364 5.47903 12.7954 5.54452 12.8813C5.46678 12.9329 5.48228 12.9243 5.49594 13.0271C5.4165 13.0006 5.42524 13.0094 5.39876 12.9299L5.05865 12.9785V12.687C4.48405 12.923 3.76744 13.3526 3.74679 14.0474C3.53956 14.0335 3.31878 14.0208 3.11495 13.9808C2.94568 13.9475 2.77193 13.8628 2.60202 13.9434C2.30411 14.0847 2.16045 14.541 2.04626 14.8248C1.78242 15.4806 1.61329 16.1743 1.47285 16.8655C1.41392 17.1555 1.29641 17.4901 1.3353 17.7887C1.38701 18.1857 1.63308 18.5909 1.78964 18.9548C2.16334 19.8234 2.59385 20.6647 2.97609 21.5299C3.17948 21.9903 3.32184 22.476 3.51765 22.9389C3.60851 23.1538 3.69169 23.3863 3.85995 23.5546C4.21221 23.9071 4.78787 24.0127 5.253 24.1214C5.52922 24.1858 5.79815 24.2811 6.07899 24.3267C6.42804 24.3833 6.86304 24.3566 7.14791 24.5909C6.10187 24.3412 4.78768 24.3729 3.89707 23.678C3.39982 23.29 3.22996 22.388 3.01486 21.8214C2.52029 20.5187 1.88413 19.2552 1.31741 17.983C1.10772 18.2899 1.16734 18.8345 1.11673 19.1977C0.968232 20.2634 0.928711 21.2796 0.928711 22.3559C1.21071 22.2046 1.37362 21.7674 1.60894 21.5299C1.7696 22.3083 2.11967 23.0335 2.26682 23.8135C2.34489 24.2273 2.39178 24.9069 2.73174 25.1967C3.09047 25.5025 3.6913 25.5068 4.13549 25.5709C4.46379 25.6183 4.78632 25.7363 5.10724 25.8187C5.58913 25.9423 6.08083 26.0254 6.56486 26.1401C6.70659 26.1737 6.9435 26.2805 7.07003 26.1631C7.22419 26.02 7.14791 25.6074 7.14791 25.4169C7.14791 24.8529 7.18639 24.3442 7.39085 23.8135C7.24975 23.8135 7.25082 23.5135 7.24509 23.3762C7.22351 22.8586 7.1965 22.3361 7.1965 21.8214C7.1965 20.1449 7.37525 18.4767 7.53661 16.8169C7.5749 16.4231 7.62786 16.0434 7.68237 15.6508C7.70594 15.4812 7.69831 15.2707 7.82814 15.1649C7.58802 16.4395 7.4837 17.7598 7.39522 19.0519C7.35212 19.6808 7.39372 20.3193 7.334 20.9469C7.27356 21.582 7.29445 22.2069 7.33789 22.8418C7.35689 23.1191 7.291 23.42 7.43944 23.6678C7.58073 23.4259 7.76779 23.1637 7.83552 22.8904C7.98415 22.2904 7.89577 21.6773 8.14007 21.0926C8.26649 20.79 8.56419 20.3762 8.94113 20.5737C9.36151 20.7938 9.44318 21.4162 9.55683 21.8214C9.89058 23.011 10.1352 24.2494 10.3506 25.4655C10.4178 25.8449 10.502 26.2145 10.6154 26.583C10.6607 26.7303 10.7108 26.9335 10.8516 27.0189C10.9722 27.0921 11.1433 27.0688 11.2778 27.0689H12.2496C13.3201 27.0689 14.3891 27.1458 15.4564 27.219C16.8445 27.3142 18.242 27.4546 19.6349 27.4414C22.063 27.4184 24.4963 27.1733 26.923 27.067C27.6815 27.0337 28.4472 26.9309 29.2066 26.8789C30.0491 26.8212 30.8906 26.7422 31.7332 26.6845C32.311 26.645 32.8607 26.6837 33.4338 26.5901C33.7761 26.5341 34.5756 26.4534 34.778 26.251C35.0526 25.9138 34.9209 24.2022 34.94 24.2022C34.8956 23.3673 34.8556 22.5587 34.8914 21.7243H34.7942C34.7164 22.34 34.6988 22.9553 34.6402 23.5706C34.5726 24.2802 34.4688 24.9955 34.4541 25.7084C34.2728 25.6159 34.0456 25.7043 33.8867 25.6018C33.7685 25.5256 33.7968 25.3897 33.8088 25.2711C33.8355 25.0073 33.869 24.7545 33.9196 24.4937C33.6814 24.6142 33.4165 24.7462 33.1422 24.7277C32.9221 24.7128 32.7006 24.6593 32.5106 24.5457C32.0156 24.2496 31.6965 23.6089 31.8692 23.0361C32.1098 22.2384 33.0501 21.8323 33.7739 22.2371C33.9738 22.3488 34.1293 22.5113 34.2597 22.696C34.422 22.359 34.4702 21.9395 34.5721 21.5785C34.6286 21.3782 34.7556 21.1564 34.7575 20.9469C34.7616 20.5021 34.5899 19.9385 34.4124 19.5378C34.286 19.2526 34.2085 18.6478 34.1707 18.3555C33.6682 18.684 33.0604 19.6819 32.3648 19.5256C32.0025 19.4441 31.6484 19.1402 31.3445 18.9375C31.108 18.7798 30.7958 18.5859 30.6657 18.3231C30.2721 17.5291 34.1209 18.3554 33.7739 17.5457C33.6599 17.2798 31.2589 15.639 31.053 15.4521C30.6045 15.0453 30.1859 14.608 29.7409 14.2015C29.4949 13.9766 29.2028 13.802 28.9788 13.5532C28.7425 13.2908 28.5688 12.9707 28.3462 12.6959C27.3747 11.4964 26.4409 10.1779 25.1739 9.26618C24.089 8.48552 22.8587 8.22359 21.5784 7.99275C18.6798 7.47014 10.3784 6.23399 8.07107 8.41128Z" fill="#07C160"/>
<path d="M25.6598 18.8576C26.1583 18.8576 26.6711 18.8922 27.166 18.8296C27.76 18.7545 28.4254 18.8896 29.0123 18.982C29.676 19.0865 30.3561 19.1556 31.0044 19.3435C31.3062 19.431 31.9514 19.5173 32.1386 19.7918C32.2961 20.0229 31.9162 20.5448 31.8019 20.7525C31.4587 21.3755 31.1078 21.9855 30.7484 22.5988C30.5694 22.9043 30.414 23.2791 30.0326 23.3578C29.7798 23.4099 29.5113 23.3601 29.2552 23.3845C28.3245 23.4731 27.3678 23.4496 26.4375 23.4267L26.3886 23.4255C24.9499 23.3903 23.5032 23.5197 22.0643 23.522C21.311 23.5232 20.4212 23.7913 19.6835 23.5734C19.4648 23.5088 19.283 23.3545 19.1004 23.2237L19.0808 23.2096C18.3288 22.6704 17.5431 22.1072 16.8654 21.4769C16.6846 21.3088 16.2088 20.9609 16.3138 20.6655C16.3934 20.4416 16.765 20.2722 16.9626 20.1735C17.5749 19.8679 18.195 19.5836 18.8575 19.4057C19.5533 19.2189 20.283 19.1294 20.9954 19.0313C21.396 18.9761 21.8062 18.8772 22.21 18.8595C23.3552 18.8093 24.5134 18.8576 25.6598 18.8576Z" fill="#005339"/>
<path d="M34.7779 20.7849C34.9398 21.4327 35.1827 24.2265 34.7779 26.251H33.3607L31.1338 25.2387L31.7411 21.3922L34.7779 20.7849Z" fill="#07C160"/>
<path d="M5.62574 12.4845C5.0184 12.4845 4.00616 13.2943 3.80371 13.6992V13.9016H7.28596C7.28596 13.8341 7.24533 13.6182 7.24533 13.2943C7.24533 12.8894 6.65803 12.4845 5.62574 12.4845Z" fill="#07C160"/>
<path d="M17.1085 18.0801C17.4004 18.2208 17.716 18.204 18.0317 18.2342C18.8859 18.3158 19.7503 18.2688 20.6068 18.3275C22.4357 18.4527 24.3159 18.4051 26.1458 18.325C27.5728 18.2625 28.9628 18.3224 30.3729 18.0316C30.2156 17.9701 30.0531 18.0154 29.887 18.034C29.5803 18.0684 29.2717 18.1033 28.9639 18.1244C27.8647 18.1997 26.7628 18.2467 25.6599 18.2738C25.1704 18.2858 24.6886 18.2283 24.2023 18.226C23.1163 18.2207 22.03 18.3003 20.9469 18.2738C20.6691 18.267 20.3982 18.1914 20.121 18.1792C19.1342 18.136 18.0438 18.2995 17.0805 18.0273C16.7895 17.9451 16.5096 17.7182 16.234 17.5889C15.6924 17.3351 15.1321 17.1208 14.582 16.8862C14.0752 16.6702 13.546 16.5352 13.0272 16.355C12.4622 16.1589 11.9086 15.9274 11.3266 15.784C10.9909 15.7013 10.4322 15.4815 10.2091 15.8451C10.0501 15.3074 10.0633 14.6551 10.0633 14.096H14.339C15.6952 14.1657 15.3122 13.9579 17.643 13.8549C17.9187 13.8428 18.4535 13.9162 18.6877 13.7545C18.8187 13.664 18.8559 13.4535 18.9244 13.3186C19.0482 13.0747 19.2188 12.8419 19.4006 12.6383C19.9426 12.0313 20.7045 11.583 21.53 11.5252C21.9482 11.4959 22.334 11.565 22.7447 11.618C22.7794 11.4311 22.7708 11.1995 22.8779 11.0371C23.0928 10.7113 23.5005 10.7756 23.6424 11.1322C23.7532 11.4104 23.4846 11.7474 23.6213 11.9909C23.6932 12.1188 23.8534 12.2051 23.9594 12.3027C24.1532 12.4814 24.3342 12.6718 24.4938 12.8813C24.8364 12.6343 25.2387 12.8257 25.6121 12.9075C26.2861 13.0553 27.0151 13.0462 27.7006 13.0756C27.5009 12.6467 27.0748 12.2964 26.7986 11.9088C26.1581 11.0103 25.3178 10.1099 24.3481 9.55746C23.3574 8.99306 22.2938 8.81815 21.1899 8.63303C19.7168 8.38601 18.212 8.27125 16.7198 8.25138C15.9735 8.24142 15.2309 8.31313 14.4848 8.31405C13.9017 8.31478 13.3194 8.36264 12.7357 8.36264C12.0177 8.36264 11.2592 8.32192 10.5492 8.43256C10.2398 8.48076 9.53573 8.48542 9.34148 8.76606C9.23284 8.923 9.23065 9.1981 9.21185 9.38298C9.15889 9.90359 9.33667 10.4739 9.41091 10.9864C9.52771 11.7928 9.59608 12.6119 9.75583 13.4114C9.80996 13.6825 9.98264 13.9214 10.0097 14.1931C10.0416 14.5148 9.99702 14.8424 10.0191 15.1649C10.047 15.5719 10.1135 15.9738 10.1523 16.3796C10.224 17.1298 10.3589 17.9112 10.9399 18.4605C11.7743 19.2496 13.0317 19.2225 14.0961 19.364C14.5757 19.4278 15.2312 19.5603 15.6995 19.3935C16.1796 19.2225 17.0679 18.6199 17.1085 18.0801Z" fill="#FEFEFD"/>
<path d="M27.9481 13.3207C18.6531 14.5882 13.1606 14.1657 10.2031 13.7432L17.8081 12.8982C18.3715 12.3349 19.4981 11.1237 19.4981 10.7857C19.4981 10.4477 22.0331 10.0816 23.3006 9.94073C24.4273 10.7857 26.7651 12.4757 27.1031 12.4757C27.4411 12.4757 27.8073 13.0391 27.9481 13.3207Z" fill="white"/>
<path d="M18.8054 14.0401C19.1862 14.1302 19.5885 14.0147 19.9699 13.9778C19.7729 13.8617 19.5396 13.7959 19.3236 13.7205C19.6093 13.1069 20.0444 12.5913 20.6579 12.2867C20.8244 12.6378 21.0103 12.9794 21.1796 13.3293C21.2547 13.4843 21.3149 13.7085 21.4528 13.8205C21.5548 13.9035 21.6916 13.8843 21.8136 13.8792C21.579 13.2914 21.2832 12.6581 20.9413 12.1256C21.8204 11.8946 22.6835 11.8426 23.484 12.3614C23.6503 12.4692 24.0784 12.6893 24.0607 12.9273C24.0515 13.0509 23.9066 13.1384 23.8212 13.2086C23.5948 13.3946 23.3392 13.5642 23.1721 13.8066C23.3303 13.7981 23.5067 13.8074 23.6554 13.7453C23.9328 13.6295 24.153 13.3674 24.405 13.2054C24.5408 13.4883 24.6236 13.7176 24.9673 13.7106C24.8479 13.3667 24.6518 12.8902 24.4064 12.6214C23.3193 11.4308 21.3762 11.2356 20.0682 12.1767C19.4343 12.6328 19.0136 13.2962 18.8054 14.0401Z" fill="#4A4947"/>
<path d="M7.2937 14.096C7.33432 14.6631 6.85156 14.6537 6.41913 14.6834C5.55291 14.7428 4.70486 14.7604 3.89258 14.4361C4.05952 14.7584 4.43287 14.8874 4.76715 14.9648C5.46395 15.1262 6.19028 15.2147 6.905 15.2135C7.15834 15.2131 7.59325 15.2368 7.81461 15.1009C8.04151 14.9616 8.05215 14.3478 7.85567 14.1806C7.71185 14.0583 7.46867 14.096 7.2937 14.096Z" fill="#4A4947"/>
<path d="M7.73142 15.1649C7.71796 15.4779 7.62846 15.778 7.59377 16.088C7.48192 17.0877 7.36716 18.0976 7.2985 19.1005C7.18932 20.6945 7.22577 22.2695 7.29413 23.862C7.44344 23.664 7.34568 23.4165 7.34291 23.1818C7.33577 22.5813 7.28009 21.9871 7.29486 21.3841C7.34592 19.2983 7.56588 17.2327 7.82859 15.1649H7.73142ZM2.48397 17.157C2.56195 16.9659 2.64727 16.7817 2.66986 16.5739C2.68385 16.4454 2.67832 16.3143 2.67832 16.1852C2.67832 16.0274 2.64353 15.3288 2.33521 15.7204C2.24615 15.8336 2.24978 16.001 2.23349 16.1366C2.19427 16.4631 2.08063 17.0346 2.48397 17.157Z" fill="#FEFEFD"/>
<path d="M2.28934 16.2824C2.28934 16.5419 2.26402 16.8098 2.33793 17.0598H2.4351C2.55691 16.811 2.58009 16.5568 2.58087 16.2824H2.28934Z" fill="#07C160"/>
<path d="M14.776 27.1661C13.8043 27.158 12.8357 27.0689 11.8607 27.0689C11.5776 27.0689 11.0291 27.1745 10.8127 26.9563C10.6843 26.8268 10.6356 26.6073 10.5879 26.4372C10.4927 26.098 10.412 25.7642 10.3504 25.4169C10.1598 24.3408 9.90509 23.2778 9.67357 22.2101C9.58412 21.7975 9.49326 21.3189 9.29046 20.9469C9.2081 20.7958 9.10714 20.6218 8.94097 20.553C8.55528 20.3934 8.27415 20.7227 8.13991 21.044C7.86305 21.7065 8.06319 22.5147 7.71336 23.1333C7.51959 23.4759 7.33423 23.8163 7.24007 24.2022C7.11573 24.7115 7.151 25.2378 7.1477 25.757C7.14615 26.0046 7.07769 26.2375 7.10183 26.4858C7.21645 27.6655 7.8736 29.0265 8.99407 29.5316C9.54681 29.7808 10.2005 29.6926 10.7918 29.6926C11.1346 29.6926 11.4714 29.6483 11.8122 29.6442C12.1824 29.6398 12.5719 29.6836 12.9297 29.5664C13.8635 29.2605 14.6909 28.1412 14.776 27.1661Z" fill="black"/>
<path d="M9.2373 20.6068C9.29731 20.84 9.44822 21.0279 9.5624 21.2384C9.71609 21.5217 9.84688 21.8139 9.96612 22.113C10.2443 22.8105 10.3835 23.5318 10.5854 24.2508C10.7458 24.8223 10.9557 25.4108 11.035 26C11.3079 26.0506 11.5852 26.0555 11.861 26.083C11.9524 26.0922 12.0862 26.108 12.1469 26.0193C12.212 25.9238 12.1542 25.7601 12.1295 25.6599C12.0524 25.3471 11.9571 25.0443 11.8648 24.7367C11.5628 23.7301 11.0363 22.8121 10.4907 21.9186C10.2462 21.5183 9.9152 21.004 9.48024 20.8011C9.70792 21.1244 10.0017 21.3977 10.2299 21.7243C10.4865 22.0914 10.6912 22.4974 10.9043 22.8904C11.4187 23.8393 11.9154 24.8675 12.0554 25.9514L11.1322 25.9028C11.0688 25.266 10.8091 24.6239 10.6425 24.0079C10.3289 22.8489 10.112 21.506 9.2373 20.6068Z" fill="#FEFEFD"/>
<path d="M1.56037 21.5299C0.770856 22.3384 0.734381 23.4796 0.734381 24.5423C0.734381 25.0715 0.731612 25.5767 0.841789 26.0971C0.946388 26.5911 1.09501 27.2486 1.51632 27.5755C1.80734 27.8013 2.34324 27.7101 2.68614 27.6686C3.07202 27.6219 3.55085 27.598 3.89067 27.3898C4.40395 27.0754 4.62527 26.2218 4.66997 25.6598C4.50375 25.6453 4.34861 25.5946 4.18409 25.5709C3.70279 25.5015 3.04632 25.4958 2.68896 25.1164C2.40613 24.816 2.34101 24.2059 2.27531 23.8135C2.19668 23.3439 2.00715 22.9058 1.87255 22.453C1.7854 22.1599 1.73788 21.779 1.56037 21.5299Z" fill="black"/>
<path d="M34.8592 21.6109C34.8565 21.6136 34.8538 21.6649 34.8754 21.6433C34.8781 21.6406 34.8808 21.5893 34.8592 21.6109Z" fill="#07C160"/>
<path d="M32.9966 22.4044C33.0963 22.4469 33.1786 22.4508 33.2881 22.453C33.1884 22.4106 33.1061 22.4067 32.9966 22.4044ZM32.8832 22.4692C32.8616 22.4908 32.9129 22.4881 32.9156 22.4854C32.9372 22.4638 32.8859 22.4665 32.8832 22.4692Z" fill="#07C160"/>
<path d="M33.4178 22.4693C33.3962 22.4909 33.4475 22.4882 33.4502 22.4855C33.4718 22.4639 33.4205 22.4666 33.4178 22.4693ZM13.999 22.5017C14.1527 22.5661 14.319 22.5502 14.4849 22.5502C14.3312 22.4858 14.1649 22.5017 13.999 22.5017Z" fill="#07C160"/>
<path d="M32.8834 24.3156C32.8618 24.3372 32.9131 24.3345 32.9158 24.3318C32.9374 24.3102 32.8861 24.3129 32.8834 24.3156ZM33.4179 24.3156C33.3963 24.3372 33.4476 24.3345 33.4503 24.3318C33.4719 24.3102 33.4206 24.3129 33.4179 24.3156ZM32.9968 24.348C33.0965 24.3904 33.1789 24.3943 33.2883 24.3966C33.1886 24.3541 33.1063 24.3503 32.9968 24.348Z" fill="#07C160"/>
<path d="M14.6629 24.7528C14.6412 24.7745 14.6926 24.7717 14.6952 24.7691C14.7169 24.7474 14.6655 24.7502 14.6629 24.7528ZM13.9341 24.8014C13.9124 24.823 13.9637 24.8203 13.9664 24.8176C13.988 24.796 13.9367 24.7987 13.9341 24.8014ZM14.5171 24.8014C14.4955 24.823 14.5468 24.8203 14.5495 24.8176C14.5711 24.796 14.5198 24.7987 14.5171 24.8014ZM14.096 24.8338C14.182 24.8717 14.2435 24.8781 14.3389 24.8824C14.253 24.8446 14.1914 24.8381 14.096 24.8338Z" fill="#07C160"/>
<path d="M34.7784 26.251C34.5759 26.251 34.3735 26.4534 34.2116 26.4739C33.7731 26.5457 33.2927 26.6679 32.8511 26.6794C32.4635 26.6896 32.072 26.658 31.685 26.6845C30.9729 26.7333 30.2601 26.8414 29.5472 26.8726C29.0596 26.8939 28.576 26.934 28.0895 26.9674C27.8425 26.9843 27.6003 26.9494 27.3607 27.0203C27.6097 27.8844 28.348 28.7862 29.2556 28.9799C29.8491 29.1065 30.5449 29.0124 31.1505 29.0124C31.4785 29.0124 31.7965 28.98 32.1223 28.9657C32.4533 28.9512 32.737 28.9752 33.0455 28.8285C33.7793 28.4793 34.2531 27.8032 34.5584 27.0689C34.6678 26.8056 34.895 26.5296 34.7784 26.251Z" fill="black"/>
</g>
<defs>
<clipPath id="clip0_1607_474">
<rect width="36" height="36" fill="white"/>
</clipPath>
</defs>
</svg>
