<svg width="36" height="36" viewBox="0 0 36 36" fill="none" xmlns="http://www.w3.org/2000/svg">
<ellipse cx="18" cy="33.5" rx="17" ry="1.5" fill="#B4C9C2"/>
<path d="M17.9308 7.71486C17.5365 7.90715 17.1668 8.1815 16.8188 8.45282C16.6736 8.56606 16.5089 8.77868 16.331 8.82846C16.1466 8.88011 15.8863 8.75169 15.7068 8.70488C15.2433 8.58392 14.7751 8.48052 14.3048 8.39199C13.4128 8.22417 12.4999 8.13696 11.5974 8.07244C11.0972 8.03673 10.5945 8.11355 10.0987 8.01751C9.07926 9.62705 8.03726 11.1971 7.26121 12.9608C6.60095 14.4612 6.18444 16.0356 5.89258 17.6518C7.35935 17.8452 8.82612 18.0418 10.2921 18.2429C10.6945 18.2982 11.0978 18.3503 11.5007 18.4007C11.675 18.4224 11.9091 18.4115 12.0699 18.4892C12.3213 18.6105 12.3967 19.2669 12.5107 19.5182C12.791 20.136 13.2273 20.5418 13.8213 20.8011C14.0449 20.8987 14.3483 21.0262 14.5949 20.9647C14.9284 20.8817 15.2318 20.4174 15.4651 20.1739C15.9725 19.6443 16.4557 19.09 16.9638 18.5598C17.1884 18.3255 17.4053 18.0096 17.6898 17.8534C18.14 17.6061 18.6663 17.4564 19.1394 17.2584C20.2227 16.8049 21.3054 16.3594 22.3786 15.8788C22.828 15.6776 23.3639 15.5203 23.7734 15.2408C23.9576 15.1151 23.8825 14.9655 23.8469 14.7767C23.7841 14.4434 23.7543 14.102 23.6934 13.7678C23.6706 13.6425 23.6628 13.4029 23.5237 13.3531C23.4125 13.3132 23.2601 13.3803 23.1521 13.4083C22.879 13.4794 22.6051 13.5528 22.3303 13.6158C21.5875 13.7861 20.8471 13.9678 20.1063 14.1462C19.7697 14.2272 19.4368 14.3437 19.0911 14.3731L18.8493 15.5333C18.7448 15.1536 18.8991 14.7078 18.946 14.3227C18.6026 14.5804 18.377 14.9738 18.0275 15.2307C18.1862 14.9114 18.5798 14.6731 18.6671 14.3227C18.7317 14.0637 18.6006 13.6775 18.5655 13.4148C18.4645 12.6579 18.3654 11.8992 18.2494 11.1449C18.2101 10.8897 18.2397 10.3225 18.0468 10.1404C17.9128 10.0139 17.6636 9.96773 17.4956 9.90937C16.96 9.72329 16.3202 9.59336 15.7552 9.5812C15.9478 9.39608 16.175 9.13227 16.432 9.05227C16.6785 8.97555 17.0092 9.06533 17.2539 9.12143C17.5298 9.18463 17.8805 9.21348 18.1234 9.37207C18.3759 9.53696 18.535 9.89913 18.6239 10.1865C18.7377 10.5539 18.4274 10.8782 18.4231 11.2458C18.4182 11.6598 18.5367 12.098 18.5945 12.5068C18.6713 13.0509 18.6963 13.6458 18.8493 14.1714L19.0911 14.0201V14.2723C19.5825 14.2499 20.0545 14.038 20.5414 13.9696C20.5414 12.9585 20.4194 11.9536 20.3957 10.9431C20.38 10.2747 20.2813 9.77263 20.8799 9.32899C20.5993 9.07467 20.2286 8.90846 19.9129 8.70231C19.7836 8.61777 19.6009 8.52838 19.5115 8.39492C19.433 8.27769 19.4879 8.13948 19.5264 8.01751C19.6159 7.73428 19.748 7.0625 20.0606 6.97428C20.3813 6.88374 20.7499 6.9997 21.0733 7.00793C21.9781 7.03108 22.8734 7.16001 23.7806 7.16001C23.7309 6.80904 23.5901 6.47516 23.4558 6.15118C23.3886 5.98901 23.3435 5.84626 23.2005 5.74764C23.3129 6.1765 23.5034 6.58487 23.6356 7.00868C22.5555 7.00868 21.4725 6.93877 20.3964 6.86185C19.9492 6.82992 19.3488 6.93458 18.946 6.69468C18.2691 6.29156 18.1749 5.36384 18.8495 4.89559C19.1877 4.66088 19.6202 4.61831 20.0096 4.53705C20.5808 4.41791 21.1699 4.23213 21.7501 4.18396C21.597 3.8685 21.253 3.62537 20.9766 3.4288C19.8375 2.61847 18.31 2.94955 17.4729 4.08307C17.0116 4.70769 16.9488 5.49988 17.0122 6.25206C17.0384 6.56339 17.0848 6.98583 17.2581 7.25015C17.4019 7.46952 17.7169 7.58326 17.9308 7.71486Z" fill="#07C160"/>
<path d="M24.8926 6.98083C23.9695 4.51649 22.5849 3.53073 22.5849 3.53073C21.2003 2.05212 18.8926 4.0236 18.8926 4.0236V6.48796L24.8926 6.98083Z" fill="#07C160"/>
<path d="M19.4756 5.02178C18.3021 5.24737 19.077 6.17034 20.2399 5.94596C21.5088 5.70113 20.7502 4.77678 19.4756 5.02178Z" fill="#07C160"/>
<path d="M9.9436 7.80113C10.1322 8.05575 10.3526 7.96519 10.5558 7.96519C10.3672 7.71057 10.1468 7.80113 9.9436 7.80113Z" fill="#D86769"/>
<path d="M15.8926 9.73785C16.5196 9.77664 17.1576 9.96649 17.7512 10.2566C17.9634 10.3603 18.2744 10.4508 18.4249 10.707C18.5958 10.9979 18.5943 11.6157 18.6052 11.9808C19.0372 11.2755 18.9797 10.0825 18.4492 9.48555C18.249 9.26024 17.9427 9.21893 17.701 9.14383C16.9707 8.91685 16.3977 8.78669 15.8926 9.73785Z" fill="black"/>
<path d="M28.4232 8.98083C28.1109 9.70265 27.7102 10.4532 27.5119 11.2703C27.8747 11.5056 28.2377 11.873 28.6257 11.9808C28.7131 11.7598 28.8489 11.5289 28.8846 11.2703C28.9174 11.0318 28.8416 10.7816 28.7945 10.5598C28.6854 10.0465 28.6329 9.41797 28.4232 8.98083ZM17.8926 9.05978C17.9688 9.1137 18.0098 9.12499 18.0951 9.13873C18.0188 9.08481 17.9779 9.07352 17.8926 9.05978ZM18.5339 9.24397C18.5114 9.2791 18.5648 9.27468 18.5676 9.27034C18.5901 9.2352 18.5367 9.23962 18.5339 9.24397Z" fill="black"/>
<path d="M28.6101 9.98083C28.4781 10.2626 28.3341 10.5103 28.127 10.7154L28.0666 10.4216C28.0281 10.6426 28.1169 10.8618 28.0426 11.0827C27.9384 11.3924 27.7038 11.6311 27.5439 11.8973C27.1855 12.4937 26.8612 13.1217 26.5134 13.7272C26.2852 14.1245 26.0147 14.5096 25.8926 14.976C26.4052 15.0346 26.5718 14.5543 26.8412 14.0945C27.3868 13.1632 27.9332 12.2326 28.4808 11.3031C28.7416 10.8603 29.1883 10.3201 28.6101 9.98083Z" fill="#005339"/>
<path d="M28.1167 16.9808H28.8926C28.8926 15.9976 28.8259 14.9487 28.6104 13.9808C28.4046 14.0062 28.1086 14.0318 27.9776 14.1873C27.8018 14.3961 27.95 14.7504 27.9694 14.9808C28.0254 15.6478 28.1167 16.3114 28.1167 16.9808Z" fill="#005339"/>
<path d="M27.8926 14.3C28.0163 14.9104 28.1004 15.5345 28.2031 16.151C28.2355 16.3457 28.2497 16.7187 28.3795 16.8515C28.4958 16.9704 28.7488 16.9577 28.8926 16.9808C28.8922 16.2792 28.8213 15.5709 28.7569 14.8745C28.7289 14.5725 28.7482 14.279 28.6926 13.9808C28.4176 14.0327 28.1463 14.1564 27.8926 14.3Z" fill="black"/>
<path d="M25.9387 14.9808C25.8114 15.2121 25.9768 15.4455 26.0822 15.6749C26.2781 16.1011 26.5623 16.5399 26.6337 16.9763C27.3938 16.9984 28.1337 16.9329 28.8926 16.9329V16.8461C28.4275 16.8413 27.9632 16.8033 27.5026 16.7716C27.3182 16.7589 27.0994 16.7605 26.9585 16.6898C26.7404 16.5804 26.7137 16.3402 26.6521 16.1954C26.4809 15.7937 26.3763 15.3699 26.1125 14.9808H25.9387Z" fill="black"/>
<path d="M25.5441 15.0322C25.6325 15.801 26.0729 16.5988 26.3487 17.3445C26.851 18.7021 27.298 20.1597 27.4862 21.5579C27.5965 22.377 27.3357 23.2214 27.1424 24.0243C27.0767 24.2974 26.8863 24.5703 26.9194 24.8464C26.6779 24.8807 26.7274 25.1428 26.6299 25.3089C26.4992 25.5315 26.3027 25.7488 26.1956 25.9769C26.1594 26.0538 26.2865 26.0517 26.2679 26.131C26.2459 26.225 26.0652 26.4137 25.9784 26.4907L25.906 26.4393L25.9784 26.5935L25.8336 26.5421L25.906 26.6962L25.7612 26.6449L25.8336 26.799L25.6888 26.7476L25.7612 26.9018L25.6165 26.8504C25.5865 27.2712 25.0918 27.5946 24.8926 27.9808C25.1983 27.7819 25.3907 27.5128 25.6019 27.2615C25.9929 26.7964 26.36 26.321 26.6604 25.8227C27.225 24.8864 27.7108 23.9141 27.8482 22.8939C28.0288 21.5523 27.6254 20.1887 27.235 18.886C26.9839 18.0475 26.7641 17.2041 26.4933 16.3682C26.3433 15.9054 26.0898 15.446 25.9784 14.9808L25.5441 15.0322Z" fill="#005339"/>
<path d="M26.4742 14.9808C26.3439 15.4314 26.0497 15.5558 25.6522 15.3512C25.9471 17.1437 26.4924 18.8892 26.745 20.695C26.8917 21.7434 26.9801 22.8227 26.764 23.8696C26.545 24.9306 26.1364 25.9862 25.6363 26.9383C25.3829 27.4207 25.0573 27.8723 24.8302 28.3669C24.9223 27.9661 25.2319 27.6557 25.344 27.2558C25.0357 27.5689 24.8345 28.0483 24.5902 28.4198C24.4839 28.5814 24.368 28.7944 24.1988 28.8945C24.0328 28.9927 23.7811 28.9489 23.5972 28.9489H22.21H18.9219C18.2375 28.9489 17.5461 28.9844 16.8669 28.8959C16.8629 28.3989 16.7633 27.9032 16.6837 27.4145C16.534 26.4948 16.3487 25.6026 16.062 24.7161C15.9314 24.3122 15.8196 23.6113 15.4984 23.3195C15.2775 23.1189 14.6794 23.2347 14.4008 23.2347H11.3696C9.98084 23.2347 8.59374 23.1818 7.20817 23.1818C6.70345 23.1818 5.92408 23.0424 5.46216 23.289C5.05639 23.5056 4.77366 24.1716 4.53918 24.5574C3.9275 25.5637 3.50873 26.6393 3.21445 27.7849C3.09485 28.2506 2.93075 28.732 2.89258 29.2134H4.07423C4.2524 29.2134 4.47383 29.2471 4.63736 29.159C4.96612 28.982 5.20214 28.5296 5.46216 28.2618C5.96261 27.7464 6.5446 27.274 7.1568 26.9078C8.1331 26.3239 9.21318 25.9645 10.3421 25.8848C10.7216 25.8581 11.0937 25.9328 11.4724 25.933C11.1454 26.0326 10.7835 25.9782 10.4449 25.9867C10.0721 25.9961 9.67757 26.0708 9.3146 26.1571C7.81493 26.5139 6.59387 27.306 5.51276 28.4198C5.07653 28.8692 4.59863 29.3744 4.33111 29.9541H14.5036C14.274 28.6806 14.2405 27.4749 13.1164 26.6435C12.922 26.4997 12.7302 26.3732 12.4999 26.3034C12.8803 26.3004 13.261 26.633 13.5272 26.8902C14.3313 27.6667 14.6488 28.8429 14.6577 29.9541H21.799H23.8027C24.0415 29.9541 24.4363 30.0318 24.6546 29.9222C24.8508 29.8237 24.9521 29.4028 25.0516 29.2134C25.3467 28.6513 25.6609 28.0996 26.0132 27.5732C26.3495 27.0706 26.6978 26.5625 27.1421 26.1539C28.1641 25.2137 29.5483 24.8219 30.8926 24.8219C30.7987 24.4169 30.7558 23.9679 30.7384 23.5521C30.4296 23.5519 30.1123 23.5323 29.8137 23.4442C28.3464 23.0111 28.0388 21.5051 27.7138 20.1659C27.4272 18.9856 27.1518 17.8047 26.8793 16.621C26.7611 16.1074 26.7155 15.4449 26.4742 14.9808Z" fill="#005339"/>
<path d="M24.4126 14.9808C24.4405 15.6687 24.6987 16.4025 24.847 17.071C25.1793 18.5698 25.5572 20.1392 25.6896 21.6801C25.8137 23.1249 25.4314 24.6171 25.0149 25.9676C24.8358 26.5485 24.5915 27.09 24.3321 27.629C24.238 27.8245 24.1562 28.1006 23.9754 28.217C23.7764 28.345 23.4442 28.2661 23.2227 28.274C22.2071 28.31 20.6151 27.7674 20.605 26.3963C20.4678 26.5196 20.3438 26.635 20.1766 26.7046C20.0752 26.7469 19.9153 26.7542 19.8448 26.8572C19.7431 27.0058 19.8352 27.1882 19.9457 27.2838C20.2458 27.5434 20.6389 27.7822 20.9857 27.9505C20.5638 27.8872 20.2512 27.4583 19.8435 27.3468C19.6224 27.2863 19.2858 27.4703 19.0964 27.3545C18.9314 27.2537 18.9424 26.9507 18.9392 26.7715C18.7962 26.8725 18.7583 27.0284 18.6901 27.2002C18.512 27.6491 18.4633 28.1058 18.4632 28.5937H22.604C22.1831 28.7337 21.6614 28.6472 21.2237 28.6472H18.4632V28.808H19.3199C19.02 28.9078 18.6793 28.8616 18.368 28.8616V28.7008H17.3209V28.2721H16.8926L16.9878 28.9688H21.7949H23.0799C23.2647 28.9688 23.5232 29.0192 23.6904 28.9137C23.9158 28.7716 24.0804 28.4046 24.213 28.1649C24.5829 27.4967 24.9087 26.8083 25.1644 26.0747C25.6253 24.7529 25.9421 23.2146 25.8862 21.7872C25.8671 21.3026 25.7391 20.8181 25.6709 20.3402C25.4119 18.5253 24.9323 16.7773 24.603 14.9808H24.4126Z" fill="black"/>
<path d="M27.8926 14.9808V15.9808C29.2259 15.5408 29.2259 15.4208 27.8926 14.9808Z" fill="#005339"/>
<path d="M19.6556 17.0331C19.7482 17.075 19.8145 17.0821 19.9173 17.0868C19.2372 17.4132 18.408 17.5399 17.7713 17.9458C17.5125 18.1107 17.3048 18.371 17.0909 18.5904C16.7132 18.978 16.3411 19.3656 15.9828 19.7719C15.6302 20.1717 15.1958 20.5116 14.8926 20.9533C16.1369 20.9533 17.3959 20.6582 18.6088 20.3888C19.24 20.2486 19.8979 20.0156 20.5454 19.9867C20.1734 20.3415 20.0179 20.9727 19.7991 21.4366C19.4708 22.1326 19.1514 22.8319 18.8296 23.5309C18.6425 23.9373 18.4157 24.3318 18.2947 24.766C18.6433 24.766 19.0007 24.7364 19.3416 24.8197C19.4289 24.2992 19.7126 23.8075 19.8951 23.3161C20.3307 22.1431 20.8086 20.9842 21.2782 19.8256C21.2571 20.3305 20.922 20.8617 20.7449 21.3292C20.2904 22.529 19.7435 23.7082 19.3416 24.9271L20.5977 24.9808C20.5051 24.939 20.4388 24.9319 20.336 24.9271C20.8065 24.7845 21.3203 24.9268 21.8016 24.9271C21.7503 24.8314 21.7541 24.8415 21.6446 24.8197C22.0267 24.2251 22.3251 23.5663 22.6552 22.9402C23.2751 21.7644 23.9011 20.5919 24.4839 19.396C24.7812 18.7859 25.1874 17.8241 24.5702 17.2629C24.1359 16.868 23.3727 16.9915 22.8484 17.0283C21.7867 17.1029 20.7136 17.0361 19.6556 17.0331Z" fill="black"/>
<path d="M17.8926 17.9808C18.5475 17.6527 19.2156 17.2704 19.8926 17.0304C19.677 16.914 19.4661 17.0253 19.2584 17.1318C18.9502 17.2901 18.6416 17.4454 18.3316 17.5976C18.1491 17.6871 17.9967 17.7605 17.8926 17.9808Z" fill="black"/>
<path d="M14.8926 20.7616V20.8498C16.7627 20.8498 18.7117 20.5053 20.5073 20.1002C20.0493 21.0458 19.4488 21.9488 18.9426 22.8784C18.7457 23.2398 18.4746 23.5958 18.3605 23.9808C18.5816 23.9387 18.7946 23.9367 19.021 23.9367C18.8619 23.8832 18.6977 23.8927 18.5256 23.8926C18.9939 22.9782 19.5704 22.0922 20.1077 21.2026C20.332 20.8312 20.4979 20.2837 20.8926 20.012C20.6747 19.9407 20.4547 20.0088 20.232 20.0468C19.7717 20.1252 19.313 20.1986 18.8559 20.2877C17.5817 20.5359 16.2056 20.7616 14.8926 20.7616Z" fill="black"/>
<path d="M17.8926 20.9808C18.0462 21.0755 18.2347 21.1071 18.3899 21.2024C18.6855 21.3839 18.8155 21.6792 18.8335 21.9808C19.0915 21.4506 18.454 21.003 17.8926 20.9808Z" fill="#005339"/>
<path d="M6.89258 20.9856V21.9808H18.8926C18.6702 20.5184 16.7559 21.0742 15.7524 21.191C15.4076 21.2311 14.9728 21.2381 14.6309 21.1809C14.2816 21.1225 13.9825 20.9874 13.6216 20.9857C11.3787 20.9748 9.13546 20.9856 6.89258 20.9856Z" fill="black"/>
<path d="M1.89258 20.9808V21.9808H4.89258C4.63166 21.8522 4.24194 21.9332 3.96015 21.9332H1.93312C1.93312 21.6395 1.98979 21.253 1.89258 20.9808Z" fill="black"/>
<path d="M1.89258 20.9808V22.0693H5.61707C5.55309 22.3002 5.6085 22.5519 5.536 22.7768C5.45299 23.0344 5.23334 23.2474 5.10686 23.4842L4.29054 22.6135C4.14074 22.4538 3.98477 22.237 3.78033 22.1565C3.63967 22.1012 3.4685 22.1237 3.32115 22.1237C3.62794 22.5882 4.06743 22.974 4.4436 23.3754C4.56049 23.5001 4.81788 23.6907 4.82865 23.8834C4.83447 23.9873 4.74258 24.1075 4.69855 24.1945C4.56064 24.4668 4.39355 24.6971 4.34156 25.008H3.21911L3.32115 27.2938H3.06605C3.20666 27.3524 3.32661 27.3227 3.47421 27.2938C3.29095 27.8183 3.12794 28.4186 3.11707 28.9808H3.27013C3.29237 28.4363 3.47646 27.867 3.626 27.3482C3.91743 26.3373 4.24538 25.3731 4.76013 24.4638C4.98018 24.075 5.20605 23.6872 5.45809 23.321C5.5761 23.1495 5.74579 22.9897 5.66809 22.7768C5.83993 22.7331 6.00202 22.7229 6.17829 22.7223C6.17829 22.5659 6.14288 22.3378 6.23074 22.2017C6.35768 22.005 6.70028 22.0693 6.89258 22.0693V20.9808H1.89258Z" fill="black"/>
<path d="M6.96805 20.9808C6.96722 21.2131 6.7544 21.7696 7.04721 21.9267C7.26765 22.045 7.66099 21.9332 7.90655 21.9285C8.66006 21.9141 9.41622 21.9279 10.17 21.9279C13.0774 21.9279 15.9898 21.9709 18.8926 21.9709V21.8418H7.02325C7.02325 21.5762 7.10043 21.2269 6.96805 20.9808Z" fill="black"/>
<path d="M7.89258 21.9808C7.96613 22.1288 8.07312 22.309 8.28017 22.3724C8.51072 22.4429 8.85006 22.3975 9.09476 22.3975H10.9527H14.6685H15.5975C15.7554 22.3978 15.9368 22.3838 16.068 22.4643C16.2419 22.5712 16.3333 22.7866 16.4165 22.9392C16.6029 23.2805 16.759 23.6294 16.909 23.9808C17.1039 23.6499 17.1504 23.2452 17.3103 22.8975C17.4594 22.5735 17.7221 22.2945 17.8926 21.9808H7.89258Z" fill="black"/>
<path d="M4.89438 23.6634C4.89168 23.6859 4.88894 24.1184 4.91076 23.9361C4.91345 23.9136 4.9162 23.4812 4.89438 23.6634Z" fill="#D86769"/>
<path d="M4.88817 23.9808C3.92279 25.4626 3.14124 27.2457 2.89258 28.9808C3.27603 28.8613 3.26479 28.1724 3.35398 27.8445C3.60628 26.9169 3.93718 25.9878 4.36261 25.1172C4.51373 24.8078 4.94042 24.3174 4.88817 23.9808Z" fill="#005339"/>
<path d="M24.8926 29.9808C25.1937 29.8642 25.2986 29.378 25.4302 29.0519C25.7416 28.2807 26.098 27.5322 26.4939 26.8225C27.5215 24.98 29.1068 24.0977 30.8926 24.0977C30.7093 23.9258 30.5103 23.985 30.2926 24.0182C29.8526 24.0851 29.4189 24.1691 28.9926 24.3282C27.4282 24.9118 26.4907 26.3896 25.6826 28.0611C25.3931 28.6598 25.0494 29.3064 24.8926 29.9808Z" fill="black"/>
<path d="M24.8926 29.3698H27.0858C27.3674 29.3698 27.7792 29.4491 28.0432 29.3358C28.285 29.2318 28.4116 28.8552 28.5424 28.6363C28.8098 28.1886 29.1393 27.7454 29.5466 27.4296C29.8686 27.1799 30.2343 27.106 30.6164 27.0305C31.5873 26.8387 32.7392 26.8694 33.7191 27C33.6981 27.5071 33.5002 28.0005 33.3232 28.467C32.7882 29.8778 31.8629 31.2991 30.6164 32.0998C30.1987 32.3681 29.7497 32.5894 29.2791 32.7311C29.0561 32.7981 28.6821 32.7965 28.5302 32.9808C29.2726 32.7922 29.991 32.6869 30.6699 32.2796C31.074 32.0372 31.4618 31.745 31.7931 31.4002C32.1167 31.0633 32.4023 30.6769 32.6463 30.2726C33.5429 28.7871 34.5785 26.6422 33.2812 25.0817C32.8769 24.5953 32.2442 24.1549 31.6328 24.0249C31.1267 23.9173 30.5853 24.0313 30.0815 24.1072C29.0089 24.2689 27.9347 24.6773 27.1441 25.4862C26.5573 26.0867 26.1054 26.8768 25.703 27.6207C25.4089 28.1644 25.0573 28.7667 24.8926 29.3698Z" fill="#005339"/>
<path d="M19.8926 24.1915C20.1804 25.5196 20.582 24.7702 20.8926 24.7702C20.6047 23.4421 20.2032 24.1915 19.8926 24.1915Z" fill="black"/>
<path d="M24.8926 28.9808C25.1321 28.91 25.1778 28.7234 25.2801 28.5364C25.4811 28.1688 25.6895 27.7981 25.9328 27.45C26.6229 26.4624 27.5854 25.4149 28.8926 25.0302C28.4347 24.8899 27.7376 25.3834 27.4069 25.6191C26.6263 26.1752 26.0741 26.9412 25.5863 27.6969C25.3222 28.106 25.0364 28.5264 24.8926 28.9808Z" fill="#005339"/>
<path d="M3.89258 29.9808C4.19118 29.915 4.34008 29.494 4.51128 29.1981C4.83203 28.6438 5.19723 28.1096 5.59258 27.6439C6.86498 26.1446 8.50248 25.0891 10.2426 25.0891C9.73303 24.8102 8.89628 25.135 8.39258 25.3375C7.03453 25.8834 5.92978 26.9006 4.94333 28.2198C4.56838 28.7212 4.08553 29.3171 3.89258 29.9808ZM10.6926 25.0238C10.7679 25.0684 10.8083 25.0777 10.8926 25.0891C10.8173 25.0445 10.7768 25.0352 10.6926 25.0238Z" fill="black"/>
<path d="M25.8109 24.9808C25.435 25.6499 25.0674 26.2679 24.8926 26.9808C25.5706 26.3837 26.1026 25.7528 25.8109 24.9808Z" fill="#005339"/>
<path d="M18.5232 24.9808C18.097 26.0751 17.8926 27.3411 17.8926 28.7142H18.8836V28.9808H19.7845C19.5492 28.7861 19.2274 28.8919 18.9737 28.8919V28.6253H22.8926C22.5592 28.3493 22.037 28.5364 21.6764 28.5364H18.9737C18.974 27.5039 19.1485 26.7438 19.289 25.7808C18.9359 26.4703 18.8836 27.6951 18.8836 28.6253H17.9376C17.9901 27.8062 18.0614 26.9768 18.2433 26.2253C18.3335 25.8524 18.5681 25.3979 18.5232 24.9808Z" fill="black"/>
<path d="M18.3926 24.9808C18.0627 25.8167 17.932 26.9046 17.8926 27.9808H18.6426C18.6428 27.1468 18.7455 26.4351 18.8926 25.6731C18.6212 25.6662 18.5542 25.3945 18.3926 24.9808Z" fill="black"/>
<path d="M4.89258 28.9808H14.9318V28.8497H5.2644C5.44729 28.6534 5.69922 28.4943 5.9398 28.3251C6.66931 27.812 7.70729 27.2702 8.77018 27.0464C8.41631 26.9865 7.89453 27.2327 7.60158 27.3415C6.5472 27.733 5.50625 28.316 4.89258 28.9808Z" fill="#005339"/>
<path d="M20.0539 27.3926L19.8926 27.4346C19.9871 27.4803 20.0877 27.46 20.1829 27.5163C20.4236 27.6585 20.6371 27.8831 20.8926 27.9808C20.6882 27.7063 20.369 27.6239 20.1609 27.3596C20.0123 27.1708 20.1635 27.0292 20.3119 27.0144C20.0734 26.8855 20.054 27.1523 20.0539 27.3926Z" fill="black"/>
<path d="M2.89442 27.7556C2.89166 27.7716 2.88885 28.0784 2.91117 27.9491C2.91393 27.9332 2.91674 27.6264 2.89442 27.7556Z" fill="#D86769"/>
<path d="M2.89453 27.7556C2.89161 27.7716 2.88864 28.0784 2.91223 27.9491C2.91515 27.9332 2.91812 27.6264 2.89453 27.7556ZM31.1886 27.5619C31.4521 28.1676 31.8063 27.8524 32.09 27.8524H33.8926C33.6291 27.2467 33.2749 27.5619 32.9913 27.5619H31.1886Z" fill="#005339"/>
<path d="M30.9532 27.9808C31.4131 28.8948 30.0983 29.9891 29.1088 30.1803C28.6469 30.2696 28.3829 30.0759 27.9561 30.0262C27.3078 29.9506 26.5935 30.0192 25.9389 30.0192C25.7245 30.0192 25.3456 29.9591 25.1615 30.0691C25.0276 30.1491 25.0008 30.3303 24.9755 30.456C24.9126 30.7693 24.8575 31.11 24.9202 31.4266C25.1683 32.6801 26.8006 32.9779 28.0714 32.9796C28.4896 32.9802 28.8201 32.9972 29.2241 32.8824C31.0026 32.3771 32.335 31.1651 33.1576 29.7765C33.488 29.2187 33.7932 28.6024 33.8926 27.9808H30.9532Z" fill="black"/>
<path d="M8.89258 28.2785V28.6831C9.22333 29.0801 9.70801 29.0801 10.0388 28.6831V28.2785C9.70801 27.8816 9.22333 27.8816 8.89258 28.2785Z" fill="#005339"/>
<path d="M16.8926 27.9808V28.9808C16.9262 28.4628 16.9262 28.4988 16.8926 27.9808Z" fill="#D86769"/>
<path d="M8.89258 32.9446C8.68636 32.8727 8.422 32.8842 8.19873 32.852C7.85493 32.8022 7.5197 32.7129 7.20752 32.582C6.04384 32.094 5.958 30.8935 6.31543 29.9808C5.96712 30.0034 5.95091 30.2677 5.92266 30.516C5.86705 31.0041 5.86339 31.5041 6.13587 31.9567C6.51392 32.5847 7.37821 32.9267 8.19873 32.9781C8.4273 32.9925 8.66202 32.9451 8.89258 32.9446Z" fill="black"/>
<path d="M13.8926 29.994H12.051C11.7606 29.994 11.4134 29.9569 11.1301 30.0072C10.8709 30.0533 10.6729 30.2241 10.4395 30.3135C10.0804 30.4511 9.63193 30.4874 9.23098 30.4431C8.79774 30.3954 8.64074 30.1341 8.28859 30.0192C8.13004 29.9674 7.90415 29.994 7.73466 29.994H6.6412C6.47678 29.9941 6.24151 29.967 6.11421 30.0608C5.89869 30.2197 5.90099 30.6179 5.89391 30.8267C5.86767 31.6013 6.22615 32.3554 7.27426 32.6824C7.87169 32.8688 8.63136 33.0107 9.28853 32.9754C10.146 32.9296 10.9703 32.6218 11.6481 32.2577C12.694 31.6958 13.5916 30.9349 13.8926 29.994Z" fill="black"/>
<path d="M25.0171 29.9808C24.9461 30.4246 24.8375 30.8571 24.9254 31.3078C24.9666 31.5189 25.0392 31.7307 25.1537 31.9238C25.8305 33.0652 27.5763 33.0533 28.8926 32.919C28.6295 32.83 28.2948 32.8727 28.0118 32.8716C27.6754 32.8703 27.3384 32.8245 27.0136 32.7537C26.7315 32.6922 26.4451 32.5932 26.1915 32.4765C25.0155 31.9354 25.0009 30.9108 25.3694 29.9808H25.0171Z" fill="black"/>
<path d="M12.5515 30.9808L10.8926 31.9808C13.0309 31.4998 13.2167 31.5695 12.5515 30.9808Z" fill="#FFFEFE"/>
</svg>
