<svg width="36" height="36" viewBox="0 0 36 36" fill="none" xmlns="http://www.w3.org/2000/svg">
<ellipse cx="18" cy="34.5" rx="17" ry="1.5" fill="#B4C9C2"/>
<g clip-path="url(#clip0_2827_1218)">
<path d="M21.473 19.9982H17.6163C17.6144 19.9833 17.6169 19.9681 17.6234 19.9546C17.6299 19.9411 17.6402 19.9298 17.653 19.9221C17.7304 19.886 17.8158 19.8709 17.9008 19.8784C19.0274 19.8784 20.1643 19.8708 21.2956 19.8784C21.3239 19.8802 21.3522 19.8841 21.3801 19.8898L21.4214 19.9022L21.458 19.9221C21.4641 19.926 21.4693 19.931 21.4734 19.937C21.4775 19.943 21.4803 19.9497 21.4817 19.9569C21.4831 19.964 21.4831 19.9713 21.4816 19.9784C21.4801 19.9855 21.4772 19.9923 21.473 19.9982Z" fill="#F3E6E0"/>
<path d="M12.9223 19.9553V20.0019H9.11163C9.10777 19.9953 9.1053 19.9879 9.10439 19.9803C9.10349 19.9727 9.10416 19.965 9.10637 19.9576C9.10858 19.9503 9.11228 19.9435 9.11722 19.9377C9.12217 19.9319 9.12826 19.9272 9.1351 19.9239C9.23579 19.8821 9.34525 19.8667 9.45336 19.8792C10.4898 19.8792 11.5266 19.8792 12.5637 19.8792C12.6895 19.8801 12.8181 19.864 12.9223 19.9553Z" fill="#FDD9CA"/>
<path d="M27.1432 20.0003H23.3786L23.3701 19.9566L23.4049 19.9223C23.4309 19.9073 23.4591 19.8964 23.4884 19.89C24.6356 19.8624 25.7829 19.8815 26.9301 19.8805C26.9921 19.8783 27.0535 19.8923 27.1085 19.9214C27.1212 19.9297 27.1313 19.9416 27.1375 19.9556C27.1436 19.9696 27.1456 19.9852 27.1432 20.0003Z" fill="#D6F6FE"/>
<path d="M5.39404 19.9982C5.39404 19.984 5.39404 19.9707 5.39404 19.9564C5.49356 19.8613 5.61654 19.8803 5.73671 19.8822C6.63985 19.8727 7.54205 19.8756 8.44519 19.8765C8.56839 19.8618 8.69328 19.8771 8.80945 19.9212C8.81623 19.9244 8.82229 19.929 8.82727 19.9347C8.83225 19.9404 8.83603 19.947 8.8384 19.9542C8.84077 19.9614 8.84168 19.969 8.84106 19.9766C8.84044 19.9842 8.83831 19.9915 8.8348 19.9982H5.39404Z" fill="#FEF1D3"/>
<path d="M13.6196 19.9988V19.9455C13.6953 19.8902 13.789 19.866 13.8816 19.878C14.5963 19.878 15.3111 19.878 16.0258 19.878C16.1104 19.8707 16.1954 19.8854 16.2727 19.9208C16.2859 19.9286 16.2966 19.9401 16.3034 19.954C16.3102 19.9678 16.3129 19.9834 16.3112 19.9988H13.6196Z" fill="#D7C9D3"/>
<path d="M27.1436 19.9998C27.1436 19.9874 27.1436 19.975 27.1436 19.9627L27.1717 19.9294C27.2478 19.8898 27.3335 19.8733 27.4186 19.8819C27.9209 19.8819 28.4222 19.8752 28.9207 19.8819C28.9485 19.8838 28.9761 19.8876 29.0033 19.8933L29.0428 19.9047L29.0775 19.9256C29.0831 19.9293 29.0878 19.9342 29.0916 19.9398C29.0953 19.9454 29.0979 19.9517 29.0992 19.9583C29.1005 19.9649 29.1005 19.9717 29.0992 19.9784C29.0979 19.985 29.0953 19.9913 29.0916 19.9969L27.1436 19.9998Z" fill="#D1F1F8"/>
<path d="M29.0954 19.9993C29.0945 19.985 29.0945 19.9707 29.0954 19.9565C29.1298 19.9251 29.1706 19.9019 29.215 19.8884C29.2593 19.8749 29.306 19.8716 29.3517 19.8785C29.8205 19.8747 30.2899 19.8747 30.76 19.8785C30.845 19.8695 30.9303 19.8936 30.9984 19.946V19.9993H29.0954Z" fill="#F1F1F2"/>
<path d="M23.3742 19.9537C23.3742 19.9689 23.3742 19.9841 23.3789 19.9984H21.4731C21.4731 19.9851 21.4731 19.9708 21.4731 19.9566C21.4909 19.933 21.515 19.9151 21.5426 19.9052C21.5705 19.8962 21.5991 19.8895 21.628 19.8852C22.1228 19.871 22.6176 19.8795 23.1114 19.8795C23.1579 19.8716 23.2055 19.8741 23.251 19.8869C23.2964 19.8997 23.3385 19.9225 23.3742 19.9537Z" fill="#F9FAFA"/>
<path d="M16.3149 20.0015C16.3149 19.9872 16.3149 19.972 16.3149 19.9578L16.3431 19.9283C16.3928 19.9035 16.4473 19.8902 16.5027 19.8893C16.8632 19.9017 17.2265 19.838 17.5842 19.9283L17.6124 19.9606V20.0015H16.3149Z" fill="#F9EBE6"/>
<path d="M8.83252 19.9986C8.83252 19.9853 8.83252 19.9729 8.83252 19.9596C8.84379 19.9429 8.85854 19.9288 8.87573 19.9185C8.89292 19.9081 8.91214 19.9017 8.93203 19.8997C8.96452 19.8917 8.99856 19.893 9.03037 19.9034C9.06218 19.9138 9.09054 19.9329 9.11229 19.9586V19.9986H8.83252Z" fill="#FEE6CA"/>
<path d="M15.6128 9.04258C15.8324 8.48699 15.9593 7.89832 15.9884 7.30061C16.0334 7.09618 15.9959 6.88889 16.0109 6.68351C16.0165 6.60269 15.9818 6.51426 16.0437 6.44009C16.1121 6.40278 16.1901 6.38783 16.2672 6.3973C17.1059 6.3973 17.9442 6.3973 18.7823 6.3973C18.8515 6.39156 18.9211 6.40298 18.9851 6.43058C19.0724 6.48953 19.0508 6.58177 19.0517 6.66544C19.0517 6.91457 19.0517 7.16464 19.0517 7.41472C19.0517 7.49174 19.0329 7.57351 19.094 7.63817C19.1935 7.99569 19.2348 8.36557 19.3625 8.71929C19.577 9.29617 19.9014 9.82472 20.3172 10.2749C20.9352 10.9463 21.3262 11.7995 21.4335 12.711C21.4335 12.7262 21.4335 12.7414 21.4335 12.7566C21.4335 13.445 21.4128 14.1335 21.4466 14.8209C21.4579 15.0491 21.4006 15.1262 21.1969 15.1271C20.045 15.1319 18.8921 15.1395 17.7402 15.1271C17.7172 15.1244 17.6945 15.1193 17.6726 15.1119C17.5421 15.0453 17.559 14.9217 17.5581 14.8048C17.5534 14.3436 17.5581 13.8834 17.5581 13.4222C17.5581 12.2422 17.1957 11.2039 16.4052 10.3196C16.116 10.0141 15.8753 9.66516 15.6917 9.28505C15.6394 9.21541 15.6116 9.13005 15.6128 9.04258Z" fill="#4C1C40"/>
<path d="M15.6131 9.04297C15.9267 9.70286 16.444 10.2154 16.8552 10.803C17.2492 11.3734 17.4946 12.0354 17.5687 12.7275C17.6625 13.5053 17.5921 14.286 17.6137 15.0647L17.5874 15.0914C17.3368 15.175 17.0758 15.0961 16.8232 15.1418C16.8037 15.1532 16.7849 15.1659 16.7669 15.1798C16.7143 15.2207 16.6571 15.2549 16.6064 15.2996C16.5437 15.356 16.4924 15.4241 16.4552 15.5002C16.402 15.6551 16.3769 15.8184 16.3811 15.9823C16.3811 17.1937 16.3811 18.4054 16.3811 19.6174C16.3811 19.7325 16.3998 19.8542 16.3153 19.9531L13.6228 19.9436C13.6228 17.6901 13.6134 15.4365 13.6228 13.1839C13.6285 12.0581 14.049 11.0826 14.7926 10.2534C15.12 9.89024 15.3961 9.48289 15.6131 9.04297Z" fill="#602952"/>
<path d="M9.11144 19.9596L8.93401 19.9473C8.92456 19.9349 8.91854 19.9201 8.91656 19.9046C8.91459 19.8891 8.91672 19.8733 8.92274 19.8588C9.05511 19.6088 8.98752 19.3768 8.86641 19.1476C8.72559 18.5657 8.55848 17.9895 8.46272 17.3971C8.47485 17.3438 8.50347 17.2958 8.5444 17.2602C8.90115 16.8798 8.84451 16.5828 8.37447 16.3692C8.31034 16.3538 8.25228 16.3191 8.2079 16.2698C8.16351 16.2204 8.13486 16.1586 8.12569 16.0925C7.85343 14.9781 7.59244 13.8609 7.323 12.7464C7.30651 12.7023 7.30047 12.6549 7.30536 12.608C7.31025 12.5611 7.32594 12.516 7.35116 12.4764C7.61211 12.2995 7.91323 12.1928 8.22614 12.1664C8.4937 12.1056 8.74624 11.9848 9.02319 11.9648C9.3004 11.9986 9.5806 11.9986 9.8578 11.9648C10.9459 12.1094 11.8331 13.0754 11.9514 14.2165C11.9392 14.2315 11.9305 14.2492 11.926 14.2681C11.9214 14.287 11.9211 14.3068 11.9251 14.3258C11.9199 14.2873 11.9293 14.2483 11.9514 14.2165C12.0546 14.7993 12.1598 15.3822 12.2612 15.9651C12.4161 16.8646 12.5719 17.7632 12.7231 18.6636C12.7954 19.0934 12.8573 19.5251 12.924 19.9558L9.11144 19.9596Z" fill="#F8662B"/>
<path d="M23.3739 19.9551H21.5667C21.4907 19.8714 21.501 19.7649 21.501 19.6698C21.501 18.2644 21.501 16.8591 21.501 15.4537C21.501 15.3529 21.4907 15.2483 21.5648 15.1637C21.439 14.5124 21.8624 14.0417 22.1075 13.5159C22.314 13.0718 22.5496 12.6411 22.7749 12.2056C22.8566 12.0468 22.9402 11.888 23.0359 11.7378C23.0801 11.6693 23.0988 11.616 23.0547 11.5476C23.0789 11.5228 23.1085 11.504 23.141 11.4926C23.1736 11.4812 23.2083 11.4776 23.2425 11.482C23.9644 11.482 24.6873 11.4649 25.4083 11.4915C25.5426 11.5267 25.6045 11.637 25.6609 11.7501C26.0908 12.6183 26.5443 13.474 26.9874 14.3345C27.1438 14.6256 27.2191 14.9543 27.2052 15.2854C27.1893 15.6363 27.2306 15.989 27.1827 16.3409C27.1718 16.3664 27.153 16.3878 27.1292 16.4017C27.1021 16.3933 27.0763 16.3815 27.0522 16.3665C25.9143 16.3589 24.7774 16.3665 23.6396 16.3618C24.785 16.3732 25.9312 16.3532 27.0775 16.3732C27.0843 16.3761 27.0902 16.3806 27.0949 16.3863C27.0996 16.3921 27.1028 16.3988 27.1044 16.4061C27.106 16.4134 27.1058 16.4209 27.1039 16.4281C27.102 16.4352 27.0984 16.4418 27.0935 16.4473C26.9912 16.5234 26.871 16.4996 26.7583 16.5006C25.7951 16.5006 24.8319 16.5006 23.8687 16.5006C23.7616 16.5006 23.6509 16.4844 23.5551 16.551C23.5141 16.5893 23.482 16.6364 23.4612 16.6889C23.436 16.7875 23.4284 16.8899 23.4387 16.9912C23.4387 17.8727 23.4387 18.7541 23.4387 19.6356C23.4387 19.743 23.4593 19.8562 23.3842 19.9513L23.3739 19.9551Z" fill="#E8E9EA"/>
<path d="M27.0966 16.3818H27.1426C27.7219 16.3323 28.3011 16.3818 28.7959 16.3609C28.3856 16.3609 27.8899 16.3609 27.3952 16.3609C27.3108 16.3751 27.2243 16.3675 27.1436 16.339C27.1436 16.0813 27.122 15.8217 27.1436 15.5659C27.2008 14.9774 27.0084 14.4668 26.7361 13.9638C26.354 13.2601 25.9982 12.5375 25.6302 11.831C25.5804 11.7359 25.5222 11.6408 25.4678 11.5457C25.5401 11.464 25.6368 11.4782 25.7278 11.4773C26.0301 11.4773 26.3315 11.4773 26.6328 11.4773C27.4515 11.4773 28.2692 11.4773 29.0869 11.4773C29.1986 11.4773 29.3225 11.4449 29.4117 11.5514L29.3676 11.5923C29.3038 11.6941 29.2014 11.657 29.1141 11.657C28.2767 11.657 27.4393 11.657 26.6019 11.6627C26.815 11.6532 27.029 11.6627 27.2421 11.6627C27.8768 11.6627 28.5114 11.6627 29.1461 11.6627C29.2226 11.6492 29.3013 11.6564 29.3742 11.6836C29.7638 12.3292 30.0708 13.0148 30.4285 13.6804C30.5721 13.9466 30.7101 14.2157 30.8472 14.4858C30.9446 14.6819 30.9945 14.8986 30.9927 15.1181C30.9927 16.7288 30.9927 18.3393 30.9927 19.9494L29.0925 19.9599V19.9532C29.0043 19.8581 29.0268 19.7336 29.0268 19.6185C29.0268 18.7009 29.0268 17.7824 29.0268 16.861C29.0268 16.7574 29.0597 16.6385 28.9461 16.5643C28.8282 16.5092 28.6979 16.4869 28.5687 16.4997C28.1171 16.4921 27.6646 16.514 27.213 16.4873C27.1689 16.4814 27.1287 16.4582 27.1013 16.4227C27.1013 16.4084 27.1013 16.3941 27.1013 16.3799L27.0966 16.3818Z" fill="#C7CACD"/>
<path d="M8.22252 12.1676L7.38791 12.4899C7.06496 12.7295 6.66315 12.7752 6.30546 12.9273C6.13527 12.9979 5.96132 13.0589 5.78442 13.1099C5.70556 13.1337 5.62576 13.1755 5.54127 13.1242C5.43424 12.6611 5.17982 12.2684 4.96765 11.8481C4.55025 11.0005 4.02195 10.2137 3.39701 9.509C3.08489 9.18262 2.72208 8.91024 2.32301 8.70267C2.01695 8.53057 1.92401 8.25006 2.06296 7.97527C2.2019 7.70047 2.50326 7.60634 2.81964 7.75182C3.68147 8.14167 4.2917 8.82248 4.83528 9.57175C5.08594 9.91691 5.30468 10.2868 5.53563 10.6453C5.57124 10.6632 5.60117 10.6908 5.622 10.7251C5.64668 10.7667 5.66653 10.8111 5.68115 10.8573C5.71776 10.8801 5.68115 10.8507 5.68115 10.8469C5.66049 10.7803 5.62388 10.7223 5.60229 10.6567C5.60155 10.6164 5.59556 10.5765 5.58445 10.5378C5.30468 9.70107 5.02492 8.86463 4.74515 8.02852C4.59869 7.59207 4.44285 7.15848 4.30203 6.72014C4.14619 6.23045 4.4222 5.86437 4.88503 5.93949C5.11317 5.97562 5.2277 6.12966 5.29717 6.33694C5.61011 7.24596 5.91961 8.1553 6.22566 9.06495C6.44628 9.71533 6.66221 10.3667 6.88283 11.019C6.90521 11.0495 6.93176 11.0768 6.96169 11.0998C6.97577 11.0589 6.99925 11.019 6.97484 10.9743V10.689C7.01327 10.5684 7.01096 10.4383 6.96826 10.3191C6.91659 10.1826 6.91659 10.0316 6.96826 9.89505C7.01039 9.79033 7.01306 9.67358 6.97577 9.567C6.94292 9.05544 7.04806 8.55529 7.11941 8.05419C7.15603 7.79556 7.43673 7.6168 7.69209 7.64817C7.81573 7.66348 7.92959 7.72402 8.01223 7.81841C8.09488 7.9128 8.14062 8.03453 8.14084 8.16068C8.14084 8.42502 8.10611 8.69031 8.07982 8.9537C7.98592 9.8324 7.99348 10.7192 8.10235 11.5961C8.12301 11.7891 8.18027 11.9774 8.22252 12.1676Z" fill="#77CF57"/>
<path d="M15.9816 6.35712C15.8126 6.31338 15.7525 6.20403 15.7535 6.02813C15.7572 4.42308 15.7572 2.81772 15.7535 1.21204C15.7516 1.04659 15.8004 1 15.9619 1C17.0152 1.00697 18.0683 1.00697 19.121 1C19.3003 1 19.3397 1.058 19.3388 1.22821C19.3332 2.81804 19.3332 4.40787 19.3388 5.9977C19.3388 6.17456 19.2909 6.30197 19.1191 6.36473C19.0953 6.36012 19.0728 6.35004 19.0534 6.33525C19.0332 6.32013 19.0107 6.30856 18.9867 6.30102C18.123 6.282 17.2603 6.30102 16.3966 6.29246C16.2893 6.30252 16.1812 6.29481 16.0764 6.26964C16.0593 6.2822 16.0439 6.2969 16.0304 6.31338C16.018 6.33188 16.0012 6.34692 15.9816 6.35712Z" fill="#FCC64F"/>
<path d="M5.54124 13.1225L7.38789 12.4883C7.3372 12.5605 7.36161 12.6309 7.38132 12.7098C7.54937 13.3954 7.71085 14.0829 7.87514 14.7694C7.97653 15.1916 8.08637 15.6118 8.1765 16.0369C8.18333 16.1041 8.20947 16.1679 8.25168 16.2203C8.29389 16.2727 8.35033 16.3114 8.41402 16.3316C8.25442 16.4372 8.06102 16.4267 7.8864 16.4876C6.75983 16.886 5.62855 17.2939 4.48977 17.6666C4.39026 17.699 4.29074 17.7617 4.17902 17.7009C4.01473 17.3747 3.83542 17.0562 3.6899 16.7215C3.05808 15.2771 3.81101 13.6788 5.30278 13.2138C5.37977 13.1891 5.46238 13.1529 5.54124 13.1225Z" fill="#FC9627"/>
<path d="M22.3986 11.4924C22.1272 11.4115 22.0005 11.2632 21.9883 10.9779C21.977 10.7136 21.9761 10.4474 21.9883 10.183C22.0052 9.84832 22.1995 9.67241 22.5413 9.65625C22.581 9.68134 22.6285 9.6905 22.6746 9.68192H26.3604C26.4061 9.69025 26.4533 9.68111 26.4927 9.65625H26.5866C26.6054 9.68048 26.6212 9.70699 26.6336 9.73517C26.6711 10.2743 26.6467 10.8144 26.6467 11.3516C26.6476 11.3792 26.6429 11.4067 26.6329 11.4324C26.6229 11.4581 26.6078 11.4814 26.5885 11.5009C26.2796 11.5294 25.9717 11.5114 25.6628 11.5123C24.6614 11.5123 23.6575 11.5123 22.6511 11.5123C22.5666 11.5263 22.4799 11.5195 22.3986 11.4924Z" fill="#FC9627"/>
<path d="M29.9769 9.65234C30.2585 9.68848 30.4153 9.84251 30.4463 10.1278C30.4841 10.4436 30.4841 10.7628 30.4463 11.0786C30.4162 11.3201 30.2773 11.459 30.0304 11.4951C29.9727 11.5175 29.9102 11.5241 29.8492 11.5141C28.793 11.5141 27.7359 11.5141 26.6797 11.5141C26.6648 11.5151 26.65 11.5111 26.6376 11.5026C26.6252 11.4942 26.6159 11.4819 26.6112 11.4675C26.6159 10.878 26.583 10.2885 26.6281 9.69989C26.9359 9.67818 27.2445 9.6731 27.5528 9.68467C28.2861 9.68467 29.0193 9.68467 29.7534 9.68467C29.8304 9.68087 29.9102 9.70654 29.9769 9.65234Z" fill="#F8662B"/>
<path d="M8.50722 17.3677C8.64679 17.9629 8.78636 18.5582 8.92593 19.1534C8.34856 18.9433 7.86601 19.2856 7.35341 19.4386C6.80702 19.6022 6.28598 19.8513 5.71894 19.9474L5.39223 19.9588L4.73506 18.7388C4.69281 18.5686 4.83833 18.5677 4.92845 18.5353C5.41101 18.3661 5.89387 18.1987 6.37705 18.0333C6.99854 17.8184 7.61722 17.5921 8.24153 17.3848C8.32697 17.3553 8.41428 17.3011 8.50722 17.3677Z" fill="#FC9627"/>
<path d="M8.50714 17.3674L4.86266 18.6225C4.80163 18.6434 4.74343 18.6605 4.73592 18.7385C4.53312 18.4028 4.34731 18.0569 4.1792 17.7021C5.41844 17.2761 6.65705 16.8492 7.89503 16.4213C8.06043 16.3566 8.23702 16.3266 8.41419 16.3328C8.51698 16.3518 8.61165 16.4019 8.68561 16.4767C8.75957 16.5514 8.80931 16.6472 8.82821 16.7512C8.88736 17.0422 8.71649 17.2171 8.50714 17.3674Z" fill="#FCC64F"/>
<path d="M16.7339 15.1602V15.1117C17.0296 15.0614 17.3282 15.1022 17.6248 15.0889C18.8087 15.0889 19.9925 15.0889 21.1764 15.0889C21.3557 15.0889 21.412 15.0471 21.4101 14.8579C21.4026 14.1457 21.397 13.4316 21.4101 12.7213C21.416 12.7138 21.4243 12.7087 21.4336 12.707C21.4993 13.0769 21.4542 13.4506 21.4646 13.8224C21.474 14.1076 21.473 14.3977 21.4758 14.6848C21.5041 14.842 21.5041 15.0031 21.4758 15.1602C21.4531 15.1806 21.4262 15.1955 21.397 15.204C21.1659 15.2232 20.9339 15.2276 20.7023 15.2173C19.4893 15.2173 18.276 15.2173 17.0625 15.2173C16.9526 15.2239 16.8334 15.2515 16.7339 15.1602Z" fill="#6F3F53"/>
<path d="M21.4655 15.1506L21.4768 14.6875C21.5641 14.8368 21.5021 15.0003 21.5228 15.1553C21.5449 15.2141 21.5513 15.2777 21.5416 15.3398C21.5416 16.8168 21.5416 18.2931 21.5416 19.7689C21.553 19.8306 21.5451 19.8944 21.519 19.9514L21.4768 19.9571L21.4693 19.9467C21.3942 19.8621 21.4083 19.7565 21.4083 19.6567C21.4083 18.2526 21.4083 16.8482 21.4083 15.4434C21.394 15.3421 21.4142 15.2388 21.4655 15.1506Z" fill="#E5DFDD"/>
<path d="M21.519 19.9524C21.519 18.3537 21.519 16.755 21.519 15.1562C21.5331 15.1572 21.5472 15.1572 21.5613 15.1562C21.5613 16.755 21.5613 18.3533 21.5613 19.9514L21.519 19.9524Z" fill="#EBF2F5"/>
<path d="M22.3984 11.4919H26.5856C26.6015 11.4719 26.6165 11.471 26.6316 11.4919C26.6456 11.5005 26.6494 11.5081 26.6447 11.5166C26.6433 11.5196 26.6412 11.5223 26.6386 11.5243C26.636 11.5262 26.6329 11.5275 26.6297 11.528L25.4684 11.5423H23.0528C22.8416 11.5043 22.6125 11.5803 22.3984 11.4919Z" fill="#FB992E"/>
<path d="M15.9819 6.35598C15.9862 6.35288 15.9897 6.3489 15.9923 6.34431C15.9949 6.33972 15.9965 6.33462 15.997 6.32935C16.057 6.26089 16.1378 6.2742 16.2138 6.2742H18.881C18.919 6.26726 18.958 6.26806 18.9957 6.27655C19.0335 6.28504 19.0691 6.30105 19.1007 6.32365C19.1031 6.3383 19.1092 6.35207 19.1185 6.36358L19.1129 6.375H19.1016C19.0199 6.43965 18.9242 6.41588 18.8341 6.41588C17.9262 6.42254 17.0193 6.40827 16.1115 6.42349C16.0837 6.43171 16.0578 6.44563 16.0354 6.46438C16.0035 6.74298 16.0824 7.02728 15.9923 7.30208C15.9885 6.98925 15.9885 6.67071 15.9819 6.35598Z" fill="#966446"/>
<path d="M16.0361 6.41934C16.0793 6.35469 16.146 6.3737 16.2051 6.3737C17.1702 6.3737 18.1356 6.3737 19.1014 6.3737C19.1014 6.7008 19.1014 7.02884 19.1014 7.35594C19.0704 7.3702 19.0497 7.35594 19.0403 7.32646C19.0347 7.08589 19.0403 6.84438 19.0356 6.60286C19.0356 6.54295 19.077 6.45357 18.9652 6.43836C18.0727 6.43836 17.1805 6.43836 16.2887 6.43836C16.2043 6.45463 16.1172 6.44807 16.0361 6.41934Z" fill="#522240"/>
<path d="M26.493 9.65625C26.4338 9.72947 26.3512 9.70379 26.277 9.70379C25.1035 9.70379 23.9303 9.70379 22.7574 9.70379C22.6842 9.70379 22.6006 9.72947 22.5415 9.65625H26.493Z" fill="#FC921F"/>
<path d="M29.9769 9.65288C29.9028 9.73846 29.8033 9.70138 29.715 9.70138C28.6861 9.70138 27.6574 9.70138 26.6291 9.70138C26.6141 9.72325 26.6 9.72325 26.5859 9.70138V9.65098C27.1558 9.65098 27.7247 9.63672 28.2946 9.63672C28.8644 9.63672 29.4183 9.65288 29.9769 9.65288Z" fill="#F85A0F"/>
<path d="M26.6318 11.5283C26.6318 11.516 26.6318 11.5036 26.6318 11.4922H30.0303C29.8313 11.5873 29.6173 11.5122 29.4126 11.5454L26.9069 11.5388C26.8168 11.5407 26.7238 11.5331 26.6318 11.5283Z" fill="#F66B31"/>
<path d="M29.3769 11.6783H26.522C26.6027 11.607 26.6712 11.6345 26.7313 11.6336C27.513 11.6336 28.2954 11.6336 29.0784 11.6336C29.1787 11.6468 29.2808 11.6317 29.3732 11.5898L29.3769 11.6783Z" fill="#C5CDD5"/>
<path d="M19.0104 6.41797C19.1155 6.727 19.0273 7.04553 19.0573 7.35837C19.1099 7.42968 19.0507 7.52096 19.0977 7.59323V7.64077C18.955 7.68546 19.0113 7.56946 19.0104 7.51906C19.0057 7.16819 19.0104 6.81733 19.0104 6.46551C18.9944 6.45505 18.9897 6.44459 18.9944 6.43413C18.9991 6.42367 19.0047 6.41797 19.0104 6.41797Z" fill="#441137"/>
<path d="M9.85414 11.9656C9.58031 12.0363 9.29336 12.0363 9.01953 11.9656C9.29709 11.9385 9.57658 11.9385 9.85414 11.9656Z" fill="#F7540D"/>
<path d="M6.97572 10.9727C7.04988 11.0497 7.01421 11.1334 7.01327 11.2513C6.97405 11.2262 6.94153 11.1918 6.9186 11.151C6.89568 11.1102 6.88305 11.0643 6.88184 11.0173C6.90009 11.0201 6.91873 11.0173 6.93542 11.0093C6.95212 11.0014 6.96614 10.9886 6.97572 10.9727Z" fill="#A6DF91"/>
<path d="M6.96826 10.3203C7.00514 10.3753 7.02556 10.4399 7.02705 10.5064C7.02855 10.5728 7.01107 10.6383 6.97671 10.6949L6.96826 10.3203Z" fill="#67CA44"/>
<path d="M6.97577 9.56641C7.0108 9.61393 7.02909 9.67198 7.02773 9.73127C7.02637 9.79056 7.00543 9.84768 6.96826 9.8935C6.97577 9.7851 6.97577 9.67575 6.97577 9.56641Z" fill="#67CA44"/>
<path d="M19.0979 7.59033C19.0284 7.52187 19.0669 7.43439 19.0575 7.35547H19.0979V7.59033Z" fill="#4C1C40"/>
<path d="M5.58822 10.5391L5.63422 10.6341C5.6483 10.6855 5.6652 10.7378 5.58071 10.7378L5.53564 10.6427C5.57695 10.6227 5.57883 10.579 5.58822 10.5391Z" fill="#E6F6E0"/>
<path d="M21.3811 19.9471L18.007 19.9538C17.8756 19.9538 17.7451 19.9538 17.6136 19.9595L17.6183 19.949C17.5348 19.8606 17.5413 19.7484 17.5413 19.64C17.5413 18.2727 17.5413 16.9056 17.5413 15.539C17.5293 15.4372 17.5508 15.3343 17.6024 15.2461C17.6623 15.2094 17.7332 15.1955 17.8023 15.2071H21.2074C21.2692 15.1985 21.332 15.2101 21.3867 15.2404C21.4478 15.3241 21.4252 15.421 21.4262 15.5123C21.4262 16.9006 21.4262 18.2888 21.4262 19.6771C21.4262 19.7684 21.4468 19.8653 21.3811 19.9471Z" fill="#CF9B83"/>
<path d="M21.4657 15.1523C21.4657 16.7517 21.4657 18.3504 21.4657 19.9485H21.4432H21.4206C21.3956 19.8663 21.3892 19.7796 21.4019 19.6946C21.4019 18.2429 21.4019 16.791 21.4019 15.3387C21.4019 15.3092 21.4019 15.2798 21.4019 15.2493C21.4015 15.2344 21.4041 15.2195 21.4096 15.2056C21.4151 15.1917 21.4233 15.1791 21.4338 15.1685C21.4434 15.1613 21.4542 15.1558 21.4657 15.1523Z" fill="#D4AB97"/>
<path d="M21.426 15.2535C21.426 16.8186 21.426 18.383 21.426 19.9469H21.4044H21.3828C21.3828 18.3818 21.3828 16.817 21.3828 15.2525C21.3854 15.2492 21.3888 15.2466 21.3925 15.2448C21.3963 15.243 21.4005 15.2421 21.4046 15.2422C21.4088 15.2423 21.4129 15.2433 21.4166 15.2453C21.4203 15.2473 21.4235 15.25 21.426 15.2535Z" fill="#CC9177"/>
<path d="M23.4209 16.605C23.4167 16.5876 23.4189 16.5693 23.427 16.5534C23.4351 16.5375 23.4486 16.5251 23.465 16.5185C23.5444 16.4878 23.6289 16.4729 23.7138 16.4748C24.8601 16.4748 26.0064 16.47 27.1536 16.4748C27.2287 16.5699 27.2175 16.6811 27.2175 16.7895C27.2175 17.7289 27.2175 18.6687 27.2175 19.6088C27.2175 19.7238 27.2325 19.8465 27.1414 19.9416V19.9587L23.7223 19.9482C23.6228 19.9482 23.5232 19.9416 23.4237 19.9378C23.3983 19.8891 23.39 19.8331 23.4003 19.779C23.4003 18.7647 23.4003 17.7505 23.4003 16.7363C23.396 16.6914 23.4031 16.6463 23.4209 16.605Z" fill="#5BDBFC"/>
<path d="M23.4212 16.6055C23.4212 17.718 23.4227 18.8302 23.4259 19.942C23.4137 19.9434 23.4014 19.9434 23.3893 19.942C23.3893 18.8802 23.3871 17.8184 23.3827 16.7567C23.3768 16.7032 23.3905 16.6494 23.4212 16.6055Z" fill="#63DCFB"/>
<path d="M5.71875 19.9465C6.59185 19.6404 7.46401 19.3313 8.33992 19.0337C8.43909 18.9983 8.54586 18.9906 8.64898 19.0115C8.75209 19.0324 8.84771 19.0812 8.92574 19.1526C9.0114 19.2665 9.05849 19.4054 9.06001 19.5486C9.06153 19.6918 9.01741 19.8317 8.93419 19.9475L8.83186 19.9608L5.94876 19.9532C5.87178 19.9522 5.79479 19.9484 5.71875 19.9465Z" fill="#FCC64F"/>
<path d="M27.1416 19.9468C27.1416 18.7906 27.1416 17.634 27.1416 16.4771C27.1513 16.4578 27.1672 16.4423 27.1867 16.4334C27.7049 16.4334 28.2241 16.4334 28.7423 16.4258C28.8266 16.4322 28.9096 16.4501 28.9892 16.479C29.0168 16.5011 29.0372 16.5309 29.0479 16.5648C29.0586 16.5987 29.0591 16.635 29.0493 16.6692C29.0427 17.6638 29.0493 18.6574 29.0493 19.6511C29.0493 19.7462 29.0746 19.8555 29.0042 19.9449L27.1416 19.9468Z" fill="#48C6E4"/>
<path d="M29.0475 16.6144L28.9912 16.4766C29.1358 16.5279 29.0945 16.6534 29.0945 16.7561C29.0945 17.8198 29.0945 18.8841 29.0945 19.9491H29.0475C29.0245 19.9082 29.0162 19.8605 29.0241 19.8141V16.7514C29.0176 16.7044 29.0259 16.6565 29.0475 16.6144Z" fill="#BBCAD0"/>
<path d="M29.0472 16.6172C29.0472 17.7284 29.0472 18.84 29.0472 19.9518L29.0003 19.9471C29.0003 18.9183 29.0003 17.8894 29.0003 16.8606C29.0031 16.7788 28.9731 16.6904 29.0472 16.6172Z" fill="#43C9EA"/>
<path d="M17.6161 15.2534C17.6161 16.8185 17.6161 18.3836 17.6161 19.9487H16.4576C16.3778 19.8669 16.3881 19.7585 16.3881 19.6634C16.3881 18.4026 16.3881 17.1427 16.3881 15.8828C16.397 15.7192 16.4212 15.5569 16.4604 15.3979C16.4728 15.3657 16.4917 15.3366 16.516 15.3123C16.5403 15.2881 16.5693 15.2693 16.6012 15.2572C16.9261 15.1231 17.265 15.2077 17.5973 15.1897C17.6033 15.1919 17.6086 15.1956 17.6129 15.2003C17.6173 15.205 17.6204 15.2106 17.6223 15.2168C17.6241 15.223 17.6245 15.2295 17.6234 15.2358C17.6223 15.2422 17.6198 15.2482 17.6161 15.2534Z" fill="#E7B09B"/>
<path d="M16.4578 15.3945C16.5451 15.521 16.4494 15.6465 16.4503 15.7749C16.4597 17.1669 16.4569 18.558 16.4569 19.9491H16.3198C16.3198 18.5983 16.323 17.2474 16.3292 15.8966C16.3283 15.7216 16.3161 15.5372 16.4578 15.3945Z" fill="#EEB79F"/>
<path d="M21.4109 12.7266C21.4165 13.4701 21.4174 14.2137 21.4297 14.9573C21.4297 15.1341 21.3254 15.1132 21.2165 15.1132H17.6181C17.6012 15.1047 17.5955 15.0951 17.6002 15.0847C17.6049 15.0742 17.6096 15.0685 17.6143 15.0685C18.7916 15.0685 19.9689 15.0685 21.1461 15.0733C21.3273 15.0733 21.3865 15.0257 21.3827 14.8365C21.3724 14.2099 21.378 13.5833 21.3827 12.9567C21.3808 12.8777 21.3564 12.7922 21.4109 12.7266Z" fill="#3A0A37"/>
<path d="M19.0103 6.41797V6.46551H16.0352C16.0352 6.4503 16.0352 6.43413 16.0352 6.41797H19.0103Z" fill="#47183F"/>
<path d="M17.6153 15.2086C17.2745 15.2086 16.9337 15.1868 16.5967 15.2552L16.7337 15.1602L21.4278 15.1668C21.4278 15.1801 21.4278 15.1934 21.4278 15.2058C21.3788 15.2295 21.3236 15.2372 21.2701 15.2277H17.7721C17.7191 15.2366 17.6647 15.23 17.6153 15.2086Z" fill="#C69380"/>
<path d="M17.6143 15.0648C17.6143 15.0791 17.6143 15.0943 17.6143 15.1095H16.729C17.021 15.0097 17.3214 15.0924 17.6143 15.0648Z" fill="#521B4A"/>
<path d="M11.9516 14.2188L11.9394 14.4232C11.9261 14.4094 11.9157 14.393 11.909 14.3749C11.9023 14.3568 11.8995 14.3375 11.9006 14.3182C11.9018 14.2989 11.9069 14.2801 11.9157 14.263C11.9245 14.2459 11.9367 14.2308 11.9516 14.2188Z" fill="#F85B15"/>
<path d="M27.1887 16.4305L27.1436 16.4743C27.0669 16.5119 26.9816 16.528 26.8967 16.5209H23.4653C23.5592 16.4258 23.6728 16.4334 23.7892 16.4334L27.0985 16.4258L27.1887 16.4305Z" fill="#63DCFB"/>
<path d="M27.0965 16.3822H23.5693C23.5994 16.3109 23.6482 16.3365 23.6829 16.3365C24.7557 16.3365 25.8291 16.3365 26.9031 16.3365C26.9697 16.3365 27.0439 16.3175 27.0965 16.3831V16.3822Z" fill="#F2EAE9"/>
<path d="M27.1435 16.332H28.8503V16.3777H27.1426C27.1426 16.3625 27.1435 16.3472 27.1435 16.332Z" fill="#D4CACA"/>
<path d="M7.97299 9.68693C7.98181 9.68693 7.98895 9.56901 7.98895 9.42354C7.98895 9.27808 7.98181 9.16016 7.97299 9.16016C7.96418 9.16016 7.95703 9.27808 7.95703 9.42354C7.95703 9.56901 7.96418 9.68693 7.97299 9.68693Z" fill="#76CF56"/>
<path d="M5.58057 10.7404C5.62281 10.7185 5.62563 10.6757 5.63408 10.6367C5.69198 10.7048 5.72277 10.7922 5.72045 10.882C5.71719 10.8857 5.71321 10.8886 5.70876 10.8906C5.70432 10.8926 5.6995 10.8937 5.69463 10.8937C5.68976 10.8937 5.68495 10.8926 5.6805 10.8906C5.67605 10.8886 5.67207 10.8857 5.66882 10.882L5.58057 10.7404Z" fill="#CBECBF"/>
<path d="M7.96637 10.8984C7.9996 10.9766 8.00426 11.0643 7.97951 11.1457C7.94628 11.0674 7.94162 10.9798 7.96637 10.8984Z" fill="#76CF56"/>
<path d="M5.66895 10.8906H5.72058C5.76377 10.9211 5.79099 10.9762 5.73748 10.9962C5.68397 11.0161 5.67739 10.9334 5.66895 10.8906Z" fill="#9EDD87"/>
<path d="M15.9886 6.27509C15.983 6.18571 16.0515 6.22945 16.0825 6.22945C17.0326 6.22945 17.9823 6.22945 18.9318 6.22945C18.9919 6.22945 19.0576 6.21709 19.1027 6.27604C19.0687 6.29519 19.0296 6.30316 18.9909 6.29886H16.1013C16.0622 6.30308 16.0228 6.29476 15.9886 6.27509Z" fill="#FED451"/>
<path d="M15.9883 6.27344H19.1014V6.32383L15.9977 6.32954C15.9949 6.30957 15.9883 6.2915 15.9883 6.27344Z" fill="#EBB64D"/>
<path d="M26.5888 9.70703H26.6319V11.4908H26.5859L26.5888 9.70703Z" fill="#F66B31"/>
<path d="M17.6152 15.207H21.4268C21.4268 15.2232 21.4268 15.2394 21.4268 15.2546H17.6162C17.6162 15.2375 17.6152 15.2222 17.6152 15.207Z" fill="#DBA68A"/>
</g>
<rect x="1.89453" y="19.5078" width="32.2105" height="3.52553" rx="1" fill="#03E871"/>
<path d="M6.409 33.2233L4.09082 22.8203H32.1666L29.8484 33.2233C29.8484 33.2233 29.3332 34.9994 27.2726 34.9994H9.24234C6.409 34.9994 6.409 33.2233 6.409 33.2233Z" fill="#07C160"/>
<path d="M27.2721 34.9994H23.666C23.666 34.9994 25.469 25.6114 25.9842 22.8203H32.166L29.8478 33.2233C29.8478 33.2233 29.3327 34.9994 27.2721 34.9994Z" fill="#145C44"/>
<path d="M8.79989 26.0023C8.75939 25.7249 8.95486 25.4677 9.23647 25.4278C9.51808 25.3879 9.7792 25.5804 9.8197 25.8578L10.773 32.3877C10.8135 32.6651 10.618 32.9223 10.3364 32.9622C10.0548 33.0021 9.79369 32.8095 9.75319 32.5321L8.79989 26.0023Z" fill="black"/>
<path d="M13.9609 25.9249C13.948 25.6449 14.1679 25.4076 14.4521 25.3949C14.7363 25.3821 14.9772 25.5987 14.9902 25.8787L15.2949 32.4689C15.3079 32.7489 15.088 32.9862 14.8038 32.9989C14.5195 33.0117 14.2786 32.7951 14.2657 32.5151L13.9609 25.9249Z" fill="black"/>
<path d="M19.7676 25.9249C19.7805 25.6449 19.5606 25.4076 19.2764 25.3949C18.9922 25.3821 18.7513 25.5987 18.7383 25.8787L18.4336 32.4689C18.4206 32.7489 18.6405 32.9862 18.9248 32.9989C19.209 33.0117 19.4499 32.7951 19.4628 32.5151L19.7676 25.9249Z" fill="black"/>
<path d="M24.9286 26.0023C24.9691 25.7249 24.7737 25.4677 24.492 25.4278C24.2104 25.3879 23.9493 25.5804 23.9088 25.8578L22.9555 32.3877C22.915 32.6651 23.1105 32.9223 23.3921 32.9622C23.6737 33.0021 23.9348 32.8095 23.9753 32.5321L24.9286 26.0023Z" fill="black"/>
<defs>
<clipPath id="clip0_2827_1218">
<rect width="29" height="19" fill="white" transform="translate(2 1)"/>
</clipPath>
</defs>
</svg>
