<svg width="36" height="36" viewBox="0 0 36 36" fill="none" xmlns="http://www.w3.org/2000/svg">
<ellipse cx="18" cy="31.5" rx="17" ry="1.5" fill="#B4C9C2"/>
<path d="M28.6207 13.2667H28.1379C27.2417 13.2667 26.3821 12.9225 25.7484 12.3099C25.1147 11.6973 24.7586 10.8664 24.7586 10C24.7586 10.8664 24.4026 11.6973 23.7688 12.3099C23.1351 12.9225 22.2756 13.2667 21.3793 13.2667C20.4831 13.2667 19.6235 12.9225 18.9898 12.3099C18.356 11.6973 18 10.8664 18 10C18 10.8664 17.644 11.6973 17.0102 12.3099C16.3765 12.9225 15.5169 13.2667 14.6207 13.2667C13.7244 13.2667 12.8649 12.9225 12.2312 12.3099C11.5974 11.6973 11.2414 10.8664 11.2414 10C11.2414 10.8664 10.8853 11.6973 10.2516 12.3099C9.61786 12.9225 8.75832 13.2667 7.86207 13.2667H7.37931C6.48306 13.2667 5.62352 12.9225 4.98978 12.3099C4.35603 11.6973 4 10.8664 4 10V31H32V10C32 10.8664 31.644 11.6973 31.0102 12.3099C30.3765 12.9225 29.5169 13.2667 28.6207 13.2667Z" fill="#145C44"/>
<path d="M6 16H19V29H6V16Z" fill="#07C160"/>
<path d="M20 30H6V16H20V30ZM6.84848 29H19.1515V17H6.84848V29Z" fill="black"/>
<path d="M12.2009 4H10.7511V4.00054C7.61083 4.00648 4.87412 6.36173 4.03566 9.74606C3.93273 10.1615 4.07625 9.94215 4.16807 9.94215H18V4H12.2009Z" fill="#71C285"/>
<path d="M25.6689 9.98492H31.8518C31.9388 9.98492 32.0478 10.0785 31.9774 9.79939L31.9745 9.78688C31.5901 8.21736 30.7767 6.81961 29.647 5.78705C28.5173 4.75449 27.1272 4.13817 25.6689 4.0234V4H17.8455V9.98492H25.6689ZM17.8455 9.98492H11C11.5662 6.51911 14.279 4 17.4445 4H17.8455V9.98492Z" fill="#07C160"/>
<path d="M25 10H18V4H18.41C21.647 4 24.421 6.52545 25 10Z" fill="#71C285"/>
<path d="M7.73333 13H7.26667C6.40029 13 5.5694 12.7542 4.95678 12.3166C4.34417 11.879 4 11.2855 4 10.6667V10.0533C4 10.0392 4.00787 10.0256 4.02187 10.0156C4.03587 10.0056 4.05486 10 4.07467 10H11V10.6667C11 11.2855 10.6558 11.879 10.0432 12.3166C9.4306 12.7542 8.59971 13 7.73333 13Z" fill="#68AD77"/>
<path d="M15 13C13.9391 13 12.9217 12.7542 12.1716 12.3166C11.4214 11.879 11 11.2855 11 10.6667V10H19V10.6667C19 11.2855 18.5786 11.879 17.8284 12.3166C17.0783 12.7542 16.0609 13 15 13Z" fill="#07C160"/>
<path d="M21.5 13C20.5717 13 19.6815 12.7542 19.0251 12.3166C18.3687 11.879 18 11.2855 18 10.6667V10H25V10.6667C25 11.2855 24.6313 11.879 23.9749 12.3166C23.3185 12.7542 22.4283 13 21.5 13Z" fill="#68AD77"/>
<path d="M28.7333 13H28.2667C27.4003 13 26.5694 12.7542 25.9568 12.3166C25.3442 11.879 25 11.2855 25 10.6667V10H31.9253C31.9451 10 31.9641 10.0056 31.9781 10.0156C31.9921 10.0256 32 10.0392 32 10.0533V10.6667C32 11.2855 31.6558 11.879 31.0432 12.3166C30.4306 12.7542 29.5997 13 28.7333 13Z" fill="#07C160"/>
<path d="M30 30H23V19.1818C23 18.3379 23.3687 17.5286 24.0251 16.9319C24.6815 16.3352 25.5717 16 26.5 16C27.4283 16 28.3185 16.3352 28.9749 16.9319C29.6313 17.5286 30 18.3379 30 19.1818V30Z" fill="#07C160"/>
<path d="M30 30H22V18.6429C22 16.6341 23.7944 15 26 15C28.2056 15 30 16.6341 30 18.6429V30ZM22.9412 29.1429H29.0588V18.6429C29.0588 17.1069 27.6866 15.8571 26 15.8571C24.3134 15.8571 22.9412 17.1069 22.9412 18.6429V29.1429Z" fill="black"/>
</svg>
