<svg width="36" height="36" viewBox="0 0 36 36" fill="none" xmlns="http://www.w3.org/2000/svg">
<ellipse cx="18" cy="32.5" rx="17" ry="1.5" fill="#B4C9C2"/>
<path d="M11.8151 4.02304C11.1077 4.11303 10.4185 4.26605 9.77572 4.5666C6.9608 5.88275 6.616 9.04562 7.30256 11.6127C8.21204 15.0134 10.9783 17.6076 14.1094 19.3632C14.9529 19.8362 15.8407 20.2446 16.7436 20.6084C17.2947 20.8305 17.828 21.0492 18.4431 20.9665C19.5144 20.8225 20.6626 20.1497 21.5871 19.6554C24.9972 17.8323 27.7155 14.8115 28.6717 11.2157C29.1792 9.30718 29.2808 6.802 27.62 5.34643C25.8092 3.75938 22.795 3.55071 20.7374 4.84288C20.075 5.25884 19.4937 5.77921 18.868 6.23967C18.6684 6.38647 18.375 6.68716 18.1032 6.68716C17.8551 6.68716 17.6058 6.434 17.4234 6.30144C16.9323 5.94443 16.4678 5.55676 15.9788 5.19717C14.8281 4.35085 13.2945 3.83484 11.8151 4.02304Z" fill="#07C160"/>
<path d="M32.7734 11.1846C33.3573 10.5353 34.5373 10.6688 34.8965 11.4893C35.089 11.9293 34.9719 12.49 34.877 12.9385C34.7524 13.5267 34.653 14.1209 34.5283 14.709C34.0342 17.0389 33.6303 19.3886 33.1045 21.7119C32.8793 22.7074 32.6984 23.9786 31.8438 24.6475C31.384 25.0073 30.7702 25.1564 30.2354 25.3701C29.0438 25.8464 27.8106 26.1827 26.6133 26.6377C25.9688 26.8826 25.3065 27.1215 24.7646 27.5625C23.9592 28.2182 23.998 29.5271 24.04 30.4863C24.067 31.1005 24.2202 31.8667 23.3936 31.998C22.3186 32.1685 21.1015 32.0157 20.0127 32.0156C19.6134 32.0156 19.0722 32.0995 18.7471 31.8125C18.5029 31.5969 18.4871 31.2712 18.4834 30.9688V25.7363C18.4834 24.218 18.5046 22.7263 19.7715 21.6582C20.5091 21.0362 21.3978 20.7906 22.3467 20.749C22.849 20.727 23.3814 20.8096 23.876 20.7041C24.5169 20.5674 25.1094 20.1634 25.6475 19.8066C26.1245 19.4903 26.6059 19.1714 27.0635 18.8242C26.8586 18.9589 26.6456 19.042 26.502 18.918C26.2175 18.6721 26.5516 17.7591 26.6133 17.4463C26.7642 16.6792 26.7469 15.5413 27.165 14.8711C27.5196 14.3035 28.3909 14.2313 28.7852 14.8047C28.9589 15.0576 28.9424 15.3898 29.0273 15.6748C29.0729 15.1021 29.241 14.5482 29.3428 13.9844C29.4211 13.5503 29.4688 12.9886 29.7285 12.6201C30.1959 11.9572 31.2446 12.0376 31.5928 12.7783C31.9362 13.5089 31.3175 14.3599 31.4424 15.1113C31.5635 14.213 31.9494 13.3137 32.2344 12.4551C32.3754 12.0302 32.466 11.5265 32.7734 11.1846ZM1.14258 11.4102C1.56667 10.6231 2.75733 10.5587 3.29785 11.2559C3.57273 11.6106 3.65905 12.117 3.79297 12.5361C4.06694 13.3936 4.31598 14.2711 4.6377 15.1113C4.54589 14.4301 4.12978 13.5356 4.375 12.8584C4.66757 12.051 5.78693 11.9329 6.27148 12.6201C6.45251 12.8769 6.49176 13.2032 6.56055 13.502C6.72549 14.2184 6.79432 14.9859 7.05273 15.6748C7.05358 15.3771 7.03802 15.0621 7.21484 14.8047C7.56045 14.3017 8.31999 14.2808 8.7207 14.7197C8.97873 15.0024 8.99612 15.3977 9.06543 15.7559C9.2102 16.5042 9.30897 17.2612 9.45215 18.0098C9.52294 18.3795 9.6687 18.821 9.30664 19.0557C10.0708 19.7069 11.1243 20.4909 12.124 20.7041C12.6462 20.8156 13.2036 20.7167 13.7334 20.7529C14.9035 20.833 16.0107 21.2374 16.75 22.1953C17.5271 23.2024 17.5176 24.3715 17.5176 25.5762V29.4395C17.5176 30.056 17.7631 31.3622 17.2529 31.8125C16.9278 32.0995 16.3866 32.0156 15.9873 32.0156H13.7334C13.3462 32.0157 12.9055 32.0717 12.5264 31.9834C11.7928 31.8123 11.917 31.1367 11.9561 30.5664C12.011 29.764 12.0494 28.4839 11.5176 27.8369C11.0632 27.2843 10.3527 27.011 9.70898 26.751C8.36372 26.2078 6.95468 25.8379 5.60352 25.3018C4.95528 25.0446 4.24745 24.858 3.79492 24.2871C3.06852 23.3705 2.89584 21.865 2.68555 20.7461C2.3071 18.7325 1.91974 16.7077 1.4707 14.709C1.30156 13.9562 1.07739 13.1449 1.02344 12.375C1.00117 12.057 0.987253 11.6985 1.14258 11.4102ZM7.375 17.6865C6.56063 16.8225 5.08488 17.3135 4.90723 18.4912C4.81199 19.1231 5.19612 19.6734 5.68457 20.0205C5.47577 19.6734 5.21118 19.319 5.22266 18.8936C5.25407 17.7333 6.44377 17.3472 7.375 17.6865ZM30.3154 17.3994C29.8294 17.1432 29.3467 17.2376 28.8662 17.4443C29.1738 17.5734 29.5173 17.4842 29.833 17.6045C30.8706 18 30.79 18.9055 30.5566 19.7783C31.3565 19.1501 31.222 17.8775 30.3154 17.3994Z" fill="#145C44"/>
<circle cx="8.5" cy="18.4844" r="0.5" fill="#145C44"/>
<circle cx="28.5" cy="18.4844" r="0.5" fill="#145C44"/>
<circle cx="28.5" cy="18.4844" r="0.5" fill="#145C44"/>
<circle cx="29.5" cy="16.4844" r="0.5" fill="#145C44"/>
</svg>
