<svg width="36" height="36" viewBox="0 0 36 36" fill="none" xmlns="http://www.w3.org/2000/svg">
<ellipse cx="18" cy="33.5" rx="17" ry="1.5" fill="#B4C9C2"/>
<path d="M28.1389 8.14282L23.6201 8.81735L15.536 2.57574L11.8061 3.13252L15.5356 10.0241L7.91868 11.1611L4.35239 9.08652L2.14834 9.41553L5.15651 16.71L16.2856 15.0487L24.3701 13.8419L30.5897 12.9135C31.1251 12.8336 31.8336 12.7279 31.6461 11.4717C31.397 9.80285 29.7953 7.8974 28.1391 8.14462L28.1389 8.14282Z" fill="#07C160"/>
<path fill-rule="evenodd" clip-rule="evenodd" d="M22.7009 16.5263C23.6148 16.4081 24.4656 16.8708 24.4656 17.4861V33.5924H5.32812V21.801C5.32812 20.1576 7.09558 18.7443 9.53972 18.4297L22.7009 16.5263ZM13.0943 27.5706V29.964H16.7197V27.5706H13.0943ZM13.0943 23.8754V26.2677H16.7197V23.8754H13.0943Z" fill="#145C44"/>
<path d="M26.0317 21.2077C26.302 20.9251 26.8641 20.841 27.2891 21.0174C27.3342 21.0362 30.4654 22.3339 31.3934 22.7202C32.4288 23.1531 33.0001 24.0497 33.0001 25.2441V33.5924H26.0145C25.9721 29.347 25.8676 21.3857 26.0317 21.2077Z" fill="#145C44"/>
</svg>
