<svg width="36" height="36" viewBox="0 0 36 36" fill="none" xmlns="http://www.w3.org/2000/svg">
<ellipse cx="18" cy="32.5" rx="17" ry="1.5" fill="#B4C9C2"/>
<path d="M31.8971 15.5774C32.5038 15.5774 32.9999 15.0456 32.9999 14.3955V14.0803C32.9999 13.4302 32.4682 12.8984 31.818 12.8984H4.18187C3.5318 12.8984 3 13.4302 3 14.0803V14.3955C3 15.0456 3.49638 15.5774 4.10306 15.5774C4.70975 15.5774 5.20612 16.1092 5.20612 16.7593V17.428C5.20612 18.0781 4.70975 18.6099 4.10306 18.6099C3.49638 18.6099 3 19.1418 3 19.7918V19.8286C3 20.4787 3.49638 21.0105 4.10306 21.0105C4.70975 21.0105 5.20612 21.542 5.20612 22.1924V22.8609C5.20612 23.5111 4.70975 24.0428 4.10306 24.0428C3.49638 24.0428 3 24.5747 3 25.2249V25.3883C3 26.0385 3.49638 26.5703 4.10306 26.5703C4.70975 26.5703 5.20612 27.1018 5.20612 27.7521V28.4205C5.20612 29.071 4.70975 29.6024 4.10306 29.6024C3.49638 29.6024 3 30.1343 3 30.7842V31.0209C3 31.6713 3.5318 32.2028 4.18187 32.2028H31.8181C32.4685 32.2028 33 31.6713 33 31.0209V30.7842C33 30.1343 32.5035 29.6024 31.8972 29.6024C31.2904 29.6024 30.7943 29.071 30.7943 28.4205V27.7521C30.7943 27.1018 31.2908 26.5703 31.8972 26.5703C32.5036 26.5703 33 26.0385 33 25.3883V25.2249C33 24.5747 32.5038 24.043 31.8972 24.043C31.2906 24.043 30.7943 23.5113 30.7943 22.8611V22.1926C30.7943 21.5423 31.2908 21.0108 31.8972 21.0108C32.5036 21.0108 33 20.479 33 19.8289V19.792C33 19.1418 32.5038 18.6102 31.8972 18.6102C31.2906 18.6102 30.7943 18.0783 30.7943 17.4283V16.7595C30.794 16.1092 31.2904 15.5774 31.8971 15.5774Z" fill="#145C44"/>
<path d="M13.4243 18.0352H22.5757V19.8079H13.4243V18.0352Z" fill="white"/>
<path opacity="0.5" d="M14.8677 22.1562H21.1318V23.9287H14.8677V22.1562ZM24.0987 27.5533H11.8071V25.7805H24.0987V27.5533Z" fill="white"/>
<path d="M29.7135 11.2392C29.8135 10.9465 30.0253 10.7018 30.3216 10.5829C30.8845 10.3568 31.1465 9.6782 30.9044 9.07505L30.8908 9.0408C30.6485 8.43765 29.9895 8.12895 29.427 8.35518C28.8638 8.58115 28.2049 8.27258 27.9628 7.66969L27.7135 7.04902C27.4712 6.44586 27.7336 5.76717 28.2966 5.5412C28.8595 5.3151 29.1217 4.63666 28.8794 4.03338L28.762 3.74088C28.5197 3.13786 27.8281 2.84236 27.2247 3.08479L6.9248 11.2392H29.7135Z" fill="#07C160"/>
</svg>
