<svg width="160" height="160" viewBox="0 0 160 160" fill="none" xmlns="http://www.w3.org/2000/svg">
<g clip-path="url(#clip0_2069_674)">
<path d="M0.833008 79.9997C0.833008 90.396 2.88071 100.691 6.85921 110.295C10.8377 119.9 16.6691 128.628 24.0204 135.979C31.3717 143.33 40.099 149.162 49.7039 153.14C59.3088 157.119 69.6034 159.166 79.9997 159.166C90.396 159.166 100.691 157.119 110.295 153.14C119.9 149.162 128.628 143.33 135.979 135.979C143.33 128.628 149.162 119.9 153.14 110.295C157.119 100.691 159.166 90.396 159.166 79.9997C159.166 59.0034 150.826 38.867 135.979 24.0204C121.132 9.17376 100.996 0.833008 79.9997 0.833008C59.0034 0.833008 38.867 9.17376 24.0204 24.0204C9.17376 38.867 0.833008 59.0034 0.833008 79.9997Z" fill="#4CAF50"/>
<path d="M92.5 101.375C92.5 92.542 84.9583 90.167 76.875 86.542C65.625 81.5837 53.5833 77.3337 53.5833 59.792C53.5833 54.0837 55.375 38.2087 77.5 35.3753V22.417H87.1666V35.542C106.75 38.917 109.625 53.5837 110 63.7087H92.5C92.5 53.292 87.75 49.2503 81.5 49.2503C80.0931 49.1554 78.6824 49.3655 77.3643 49.8662C76.0462 50.3669 74.8517 51.1463 73.8626 52.1512C72.8735 53.1561 72.1131 54.3628 71.6334 55.6887C71.1538 57.0146 70.9661 58.4285 71.0833 59.8337C71.0833 78.0003 110 71.2503 110 101.25C110 122.334 89.5416 125.167 85.9166 125.542V137.584H76.1666V125.584C72.5502 125.474 68.9929 124.637 65.7074 123.121C62.4219 121.606 59.4757 119.444 57.0448 116.764C54.6139 114.084 52.7482 110.942 51.5592 107.524C50.3703 104.107 49.8825 100.485 50.125 96.8753H67.5C67.5 112.167 79.0833 111.792 80.75 111.792C82.2243 111.975 83.7208 111.843 85.1398 111.403C86.5588 110.963 87.8678 110.225 88.9795 109.24C90.0912 108.254 90.9802 107.043 91.5872 105.687C92.1943 104.331 92.5054 102.861 92.5 101.375Z" fill="#FDFDFD"/>
</g>
<defs>
<clipPath id="clip0_2069_674">
<rect width="160" height="160" fill="white"/>
</clipPath>
</defs>
</svg>
