<svg width="18" height="19" viewBox="0 0 18 19" fill="none" xmlns="http://www.w3.org/2000/svg">
<circle cx="9" cy="9.90002" r="9" fill="#FF9100"/>
<path d="M6.48361 5.4304C6.79321 5.1076 7.36921 5.1376 7.67041 5.458C9.66001 7.468 11.64 9.4876 13.6272 11.5012C14.0652 11.914 13.8828 12.6136 13.4328 12.94C12.0408 12.934 10.65 12.9448 9.25801 12.9352C7.57081 11.2 5.85241 9.4936 4.16041 7.7632C4.93921 6.9892 5.70001 6.1984 6.48361 5.4304ZM6.87121 6.4204C6.57121 6.6328 6.25201 6.9604 6.33241 7.3624C6.42361 7.6816 6.68641 7.9384 6.97321 8.0908C7.51201 8.2804 8.03401 7.744 8.10241 7.2424C8.06761 6.694 7.41961 6.0928 6.87121 6.4204ZM3.13801 9.0328C3.17641 8.7028 3.45361 8.488 3.67201 8.2696C5.21881 9.8164 6.74161 11.3872 8.28841 12.934C7.67641 12.9448 7.06561 12.934 6.45361 12.9424C5.44321 11.9008 4.42321 10.8688 3.40441 9.8356C3.29462 9.73606 3.2124 9.60985 3.16573 9.4692C3.11906 9.32855 3.10951 9.17822 3.13801 9.0328Z" fill="white"/>
<path d="M3.24486 12.196C3.84366 12.196 4.44366 12.196 5.04246 12.1924C5.43006 12.16 5.63886 12.568 5.90886 12.7732C5.51766 12.7744 5.12646 12.7732 4.73406 12.7732C4.73286 12.9952 4.73046 13.2172 4.72686 13.4392C7.63566 13.4464 10.5445 13.4416 13.4533 13.4416L13.4581 13.132C13.7845 12.8212 14.1109 12.5092 14.4361 12.1972C14.5141 12.196 14.6701 12.1924 14.7481 12.1912C14.7553 12.8176 14.7493 13.444 14.7529 14.0704C10.9129 14.0692 7.07166 14.0764 3.23166 14.0656C3.23406 13.4428 3.21726 12.8188 3.24486 12.196Z" fill="white"/>
</svg>
