<svg width="18" height="18" viewBox="0 0 18 18" fill="none" xmlns="http://www.w3.org/2000/svg">
<circle cx="9" cy="9" r="9" fill="white"/>
<path d="M5.43527 12.6558C4.42032 11.6923 3.91284 10.4737 3.91284 9.00004C3.91284 7.52638 4.42032 6.3125 5.43527 5.3584C6.45998 4.39486 7.70915 3.91309 9.18278 3.91309C10.3246 3.91309 11.3396 4.20593 12.2276 4.79161C13.1157 5.3773 13.7354 6.1897 14.0868 7.22882H11.1005C10.7101 6.50143 10.0855 6.13774 9.2267 6.13774C8.36789 6.13774 7.68963 6.39752 7.19192 6.91708C6.70396 7.43664 6.45998 8.13096 6.45998 9.00004C6.45998 9.86912 6.70396 10.5634 7.19192 11.083C7.68963 11.6026 8.36789 11.8623 9.2267 11.8623C10.0855 11.8623 10.7101 11.4986 11.1005 10.7713H14.0868C13.7354 11.8104 13.1157 12.6228 12.2276 13.2085C11.3396 13.7942 10.3246 14.087 9.18278 14.087C7.70915 14.087 6.45998 13.6099 5.43527 12.6558Z" fill="#FF9D00"/>
</svg>
