<svg width="18" height="18" viewBox="0 0 18 18" fill="none" xmlns="http://www.w3.org/2000/svg">
<circle cx="9" cy="9" r="9" fill="#FF9100"/>
<path d="M5.43502 12.6558C4.42007 11.6923 3.9126 10.4737 3.9126 9.00004C3.9126 7.52638 4.42007 6.3125 5.43502 5.3584C6.45974 4.39486 7.70891 3.91309 9.18254 3.91309C10.3244 3.91309 11.3393 4.20593 12.2274 4.79161C13.1155 5.3773 13.7352 6.1897 14.0865 7.22882H11.1002C10.7098 6.50143 10.0853 6.13774 9.22645 6.13774C8.36765 6.13774 7.68939 6.39752 7.19167 6.91708C6.70371 7.43664 6.45974 8.13096 6.45974 9.00004C6.45974 9.86912 6.70371 10.5634 7.19167 11.083C7.68939 11.6026 8.36765 11.8623 9.22645 11.8623C10.0853 11.8623 10.7098 11.4986 11.1002 10.7713H14.0865C13.7352 11.8104 13.1155 12.6228 12.2274 13.2085C11.3393 13.7942 10.3244 14.087 9.18254 14.087C7.70891 14.087 6.45974 13.6099 5.43502 12.6558Z" fill="white"/>
</svg>
