<svg width="16" height="17" viewBox="0 0 16 17" fill="none" xmlns="http://www.w3.org/2000/svg">
  <circle cx="8" cy="8.33325" r="8" fill="white" />
  <path
    d="M4.8313 11.5829C3.92912 10.7264 3.47803 9.64318 3.47803 8.33326C3.47803 7.02334 3.92912 5.94434 4.8313 5.09625C5.74215 4.23977 6.85252 3.81152 8.16242 3.81152C9.17737 3.81152 10.0795 4.07183 10.869 4.59244C11.6584 5.11305 12.2092 5.83518 12.5215 6.75884H9.86702C9.52002 6.11228 8.96484 5.789 8.20146 5.789C7.43807 5.789 6.83517 6.01991 6.39276 6.48174C5.95902 6.94357 5.74215 7.56075 5.74215 8.33326C5.74215 9.10578 5.95902 9.72295 6.39276 10.1848C6.83517 10.6466 7.43807 10.8775 8.20146 10.8775C8.96484 10.8775 9.52002 10.5542 9.86702 9.90768H12.5215C12.2092 10.8313 11.6584 11.5535 10.869 12.0741C10.0795 12.5947 9.17737 12.855 8.16242 12.855C6.85252 12.855 5.74215 12.431 4.8313 11.5829Z"
    fill="#07C160 " />
</svg>