<svg width="20" height="20" viewBox="0 0 20 20" fill="none" xmlns="http://www.w3.org/2000/svg">
<circle cx="10" cy="10" r="10" fill="#01E013"/>
<path d="M14.3419 4.3335C15.3665 4.33351 16.1457 5.27293 15.9769 6.30461L14.7309 13.9199C14.5975 14.7357 13.9059 15.3335 13.0958 15.3335C12.247 15.3335 11.4603 14.8889 11.0224 14.1618L7.9571 9.07195L6.85621 14.3592C6.73804 14.9267 6.23785 15.3335 5.65812 15.3335C4.63352 15.3335 3.85428 14.394 4.02306 13.3624L5.26906 5.74699C5.40254 4.93125 6.09408 4.3335 6.90423 4.3335C7.93707 4.3335 8.89444 4.87451 9.42729 5.7593L12.1174 10.2262L13.1411 5.31004C13.2595 4.74119 13.7608 4.3335 14.3419 4.3335Z" fill="#1E1E1E"/>
</svg>
