<svg width="18" height="19" viewBox="0 0 18 19" fill="none" xmlns="http://www.w3.org/2000/svg">
<circle cx="9" cy="9.69995" r="9" fill="#FF9100"/>
<path d="M9.00005 3C6.48705 3 4.45005 5.037 4.45005 7.55C4.45005 10.063 6.48705 12.1 9.00005 12.1C11.513 12.1 13.55 10.063 13.55 7.55C13.55 5.0384 11.5116 3 9.00005 3ZM11.0241 7.7341L9.18415 9.57405C9.13523 9.62269 9.06904 9.65 9.00005 9.65C8.93106 9.65 8.86487 9.62269 8.81595 9.57405L6.976 7.7341C6.92735 7.68518 6.90005 7.61899 6.90005 7.55C6.90005 7.48101 6.92735 7.41482 6.976 7.3659L8.81595 5.52595C8.86487 5.47731 8.93106 5.45 9.00005 5.45C9.06904 5.45 9.13523 5.47731 9.18415 5.52595L11.0241 7.3659C11.1256 7.4688 11.1256 7.63295 11.0241 7.7341ZM4.45005 11.4C4.80005 11.4 5.0195 11.6846 5.15005 11.75C5.85005 12.1 8.20695 13.85 8.9976 13.85C9.9146 13.85 13.2 11.4 13.9 11.4C14.6 11.4 14.95 11.5785 14.95 12.1C14.95 12.5403 10.9551 15.6105 9.70005 16.65C9.47325 16.839 8.9976 17 8.65005 17C8.41835 17 7.1349 16.3 4.80005 14.9C4.5687 14.8094 4.10005 14.55 3.75005 14.55C3.75005 14.7834 3.6335 14.9 3.40005 14.9C3.05005 14.9 3.05005 14.2907 3.05005 14.2V12.4878C3.05005 12.2848 3.05005 11.75 3.40005 11.75C3.8666 11.5166 4.2166 11.4 4.45005 11.4Z" fill="white"/>
</svg>
