<svg width="20" height="21" viewBox="0 0 20 21" fill="none" xmlns="http://www.w3.org/2000/svg">
<circle cx="10" cy="10.3333" r="10" fill="#01F4F4"/>
<path d="M11.1987 4.09474V5.08559C11.1987 5.08559 10.7525 5.48193 10.0224 5.48193C9.29233 5.48193 8.88672 5.08559 8.88672 5.08559V4.09474H11.1987Z" fill="black"/>
<path d="M8.88636 4.09449L11.7929 5.41564L7.16886 15.3902L3.6018 15.3902L8.88636 4.09449Z" fill="black"/>
<path d="M6.6875 11.0454H10.8913L11.8932 13.2196L6.6875 13.2281V11.0454Z" fill="black"/>
<path d="M11.167 11.0583L14.4487 11.0454L15.4607 13.2281H12.1852L11.167 11.0583Z" fill="black"/>
<path d="M16.4834 15.3906H12.916L12.0205 13.4707H15.585L16.4834 15.3906ZM14.3369 10.8027H10.7754L8.29199 5.48145L11.1982 4.09473L14.3369 10.8027Z" fill="black"/>
</svg>
