<svg width="16" height="17" viewBox="0 0 16 17" fill="none" xmlns="http://www.w3.org/2000/svg">
  <circle cx="8" cy="8.33325" r="8" fill="white" />
  <path
    d="M8.95897 3.34239V4.13508C8.95897 4.13508 8.60203 4.45215 8.01795 4.45215C7.43386 4.45215 7.10938 4.13508 7.10938 4.13508V3.34239H8.95897Z"
    fill="#07C160 " />
  <path d="M7.10928 3.34219L9.43448 4.39911L5.73528 12.3788L2.88164 12.3788L7.10928 3.34219Z" fill="#07C160 " />
  <path d="M5.35059 8.90308H8.7136L9.51516 10.6424L5.35059 10.6493V8.90308Z" fill="#07C160 " />
  <path d="M8.93359 8.91339L11.559 8.90308L12.3685 10.6493H9.74812L8.93359 8.91339Z" fill="#07C160 " />
  <path
    d="M13.1865 12.3787H10.333L9.61621 10.8435H12.4688L13.1865 12.3787ZM11.4697 8.70874H8.62012L6.63379 4.4519L8.95898 3.34253L11.4697 8.70874Z"
    fill="#07C160 " />
</svg>