<svg width="16" height="16" viewBox="0 0 16 16" fill="none" xmlns="http://www.w3.org/2000/svg">
  <path fill-rule="evenodd" clip-rule="evenodd"
    d="M16 8C16 12.4182 12.4182 16 8 16C3.58176 16 0 12.4182 0 8C0 3.58176 3.58176 0 8 0C12.4182 0 16 3.58176 16 8Z"
    fill="white" />
  <path fill-rule="evenodd" clip-rule="evenodd"
    d="M8.81107 8.78202V8.78099C8.75603 8.78503 8.47251 8.80199 7.84006 8.80199C7.3351 8.80199 6.97952 8.78701 6.85453 8.78099V8.78253C4.91053 8.69703 3.45952 8.35853 3.45952 7.95347C3.45952 7.54899 4.91053 7.2105 6.85453 7.12352V8.4455C6.98157 8.45446 7.34554 8.47597 7.84858 8.47597C8.4521 8.47597 8.75456 8.45101 8.81107 8.44602V7.12448C10.751 7.21101 12.1986 7.54944 12.1986 7.95347C12.1986 8.35853 10.751 8.696 8.81107 8.78202ZM8.81107 6.98701V5.80397H11.5181V4H4.14746V5.80397H6.85446V6.9865C4.65446 7.08749 3 7.52346 3 8.0455C3 8.56755 4.65446 9.00294 6.85446 9.10451V12.8955H8.81094V9.10349C11.0074 9.0025 12.658 8.56698 12.658 8.0455C12.658 7.52403 11.0074 7.08851 8.81094 6.98694"
    fill="#07C160 " />
</svg>