<svg width="20" height="20" viewBox="0 0 20 20" fill="none" xmlns="http://www.w3.org/2000/svg">
<path fill-rule="evenodd" clip-rule="evenodd" d="M20 10C20 15.5228 15.5228 20 10 20C4.4772 20 0 15.5228 0 10C0 4.4772 4.4772 0 10 0C15.5228 0 20 4.4772 20 10Z" fill="#26A17B"/>
<path fill-rule="evenodd" clip-rule="evenodd" d="M11.0138 10.9775V10.9762C10.945 10.9813 10.5906 11.0025 9.80008 11.0025C9.16888 11.0025 8.7244 10.9838 8.56816 10.9762V10.9782C6.13816 10.8713 4.3244 10.4482 4.3244 9.94184C4.3244 9.43624 6.13816 9.01312 8.56816 8.9044V10.5569C8.72696 10.5681 9.18192 10.595 9.81072 10.595C10.5651 10.595 10.9432 10.5638 11.0138 10.5575V8.9056C13.4388 9.01376 15.2482 9.4368 15.2482 9.94184C15.2482 10.4482 13.4388 10.87 11.0138 10.9775ZM11.0138 8.73376V7.25496H14.3976V5H5.18432V7.25496H8.56808V8.73312C5.81808 8.85936 3.75 9.40432 3.75 10.0569C3.75 10.7094 5.81808 11.2537 8.56808 11.3806V16.1194H11.0137V11.3794C13.7593 11.2531 15.8225 10.7087 15.8225 10.0569C15.8225 9.40504 13.7593 8.86064 11.0137 8.73368" fill="white"/>
</svg>
