<svg width="18" height="18" viewBox="0 0 18 18" fill="none" xmlns="http://www.w3.org/2000/svg">
<circle cx="9" cy="9" r="9" fill="#FF9100"/>
<path d="M14.7022 6.59541L14.0225 5.91624C13.9537 5.84742 13.8606 5.80844 13.7633 5.80773L12.7819 5.80329C12.539 5.80131 12.3066 5.70393 12.1348 5.53216C11.9631 5.36039 11.8657 5.12799 11.8637 4.88507L11.8593 3.90372C11.8586 3.80641 11.8196 3.71329 11.7508 3.64449L11.0708 2.96439C10.8801 2.77373 10.6215 2.66663 10.3519 2.66663C10.0822 2.66663 9.82358 2.77373 9.63288 2.96439L3.29777 9.2995C3.10711 9.49021 3 9.74883 3 10.0185C3 10.2882 3.10711 10.5468 3.29777 10.7375L3.97694 11.4166C4.04601 11.4857 4.13958 11.5247 4.23728 11.5252L5.21863 11.5296C5.46155 11.5316 5.69395 11.629 5.86572 11.8007C6.03749 11.9725 6.13487 12.2049 6.13685 12.4478L6.14129 13.4292C6.142 13.5265 6.18098 13.6196 6.2498 13.6884L6.92879 14.3689C7.11949 14.5595 7.37811 14.6666 7.64777 14.6666C7.91743 14.6666 8.17605 14.5595 8.36675 14.3689L14.7022 8.03337C14.8929 7.84267 15 7.58405 15 7.31438C15 7.04472 14.8929 6.78611 14.7022 6.59541ZM6.6079 8.88807C6.55582 8.94014 6.48519 8.96939 6.41154 8.96939C6.33789 8.96939 6.26726 8.94014 6.21518 8.88807L6.1824 8.8553C6.13027 8.80319 6.10098 8.73252 6.10096 8.65882C6.10094 8.58511 6.13021 8.51442 6.18231 8.46229C6.23441 8.41017 6.30509 8.38087 6.37879 8.38085C6.45249 8.38084 6.52319 8.4101 6.57531 8.4622L6.6079 8.49498C6.63374 8.52077 6.65424 8.55141 6.66822 8.58513C6.68221 8.61886 6.68941 8.65501 6.68941 8.69152C6.68941 8.72803 6.68221 8.76419 6.66822 8.79791C6.65424 8.83164 6.63374 8.86228 6.6079 8.88807ZM7.48483 9.765C7.43274 9.81707 7.36211 9.84632 7.28846 9.84632C7.21482 9.84632 7.14419 9.81707 7.0921 9.765L7.0247 9.6976C6.97411 9.64522 6.94611 9.57506 6.94674 9.50223C6.94738 9.42941 6.97659 9.35975 7.02808 9.30825C7.07958 9.25675 7.14924 9.22755 7.22206 9.22691C7.29489 9.22628 7.36505 9.25428 7.41743 9.30487L7.48483 9.37227C7.53678 9.42434 7.56596 9.49489 7.56596 9.56845C7.56596 9.642 7.53678 9.71256 7.48483 9.76463V9.765ZM8.36175 10.6419C8.30967 10.694 8.23904 10.7232 8.16539 10.7232C8.09174 10.7232 8.02111 10.694 7.96903 10.6419L7.90163 10.5745C7.87583 10.5487 7.85536 10.5181 7.84139 10.4844C7.82743 10.4507 7.82023 10.4146 7.82022 10.3781C7.82022 10.3417 7.82739 10.3055 7.84134 10.2718C7.85529 10.2381 7.87575 10.2075 7.90153 10.1817C7.92732 10.1559 7.95794 10.1354 7.99163 10.1215C8.02533 10.1075 8.06145 10.1003 8.09792 10.1003C8.1344 10.1003 8.17052 10.1075 8.20423 10.1214C8.23793 10.1354 8.26855 10.1558 8.29435 10.1816L8.36175 10.2492C8.41371 10.3013 8.44289 10.3718 8.44289 10.4454C8.44289 10.5189 8.41371 10.5895 8.36175 10.6416V10.6419ZM9.20405 11.4842C9.17826 11.51 9.14763 11.5305 9.11392 11.5445C9.08021 11.5584 9.04408 11.5656 9.0076 11.5656C8.97111 11.5656 8.93498 11.5584 8.90127 11.5445C8.86756 11.5305 8.83693 11.51 8.81114 11.4842L8.77855 11.4514C8.72796 11.3991 8.69996 11.3289 8.70059 11.2561C8.70122 11.1833 8.73043 11.1136 8.78193 11.0621C8.83343 11.0106 8.90309 10.9814 8.97591 10.9808C9.04874 10.9801 9.1189 11.0081 9.17128 11.0587L9.20405 11.0913C9.25606 11.1434 9.28528 11.214 9.28528 11.2876C9.28528 11.3612 9.25606 11.4318 9.20405 11.4839L9.20405 11.4842Z" fill="white"/>
</svg>
