<svg width="42" height="42" viewBox="0 0 42 42" fill="none" xmlns="http://www.w3.org/2000/svg">
<circle cx="21" cy="21" r="21" fill="url(#paint0_linear_1903_361)"/>
<path d="M21.2167 8.58826C24.7901 8.58826 27.6025 9.66113 29.6539 11.8069C31.4186 13.6872 32.3009 15.9767 32.3009 18.6754C32.3009 20.976 31.562 23.1328 30.0841 25.1458C28.5841 27.1146 26.8856 28.099 24.9886 28.099C23.621 28.099 22.8159 27.4132 22.5733 26.0417C21.6248 27.4354 20.3454 28.1322 18.7351 28.1322C17.2572 28.1322 16.0551 27.6344 15.1286 26.639C14.2022 25.6436 13.739 24.3937 13.739 22.8895C13.739 20.5668 14.4559 18.5206 15.8896 16.7509C17.3014 14.937 19.0109 14.03 21.0182 14.03C22.4299 14.03 23.4335 14.7932 24.0291 16.3196L24.4923 14.6605H27.4371L25.1872 22.7568C24.8563 23.9513 24.6909 24.6924 24.6909 24.9799C24.6909 25.4223 24.9335 25.6436 25.4188 25.6436C26.3232 25.6436 27.2496 25.0352 28.1981 23.8186C29.2569 22.425 29.7863 20.7216 29.7863 18.7086C29.7863 16.6292 29.0584 14.8817 27.6025 13.4659C26.0143 11.8953 23.8196 11.1101 21.0182 11.1101C18.0624 11.1101 15.6911 12.0502 13.9044 13.9305C12.1398 15.7665 11.2574 18.1777 11.2574 21.1641C11.2574 24.438 12.1949 26.9045 14.0698 28.5635C15.7904 30.0899 18.2609 30.8531 21.4814 30.8531C23.5769 30.8531 25.4077 30.5102 26.9739 29.8244C28.3635 29.1608 29.4775 28.2428 30.3157 27.0704H33.4259C32.2568 29.1719 30.5473 30.7535 28.2974 31.8153C26.2459 32.7444 23.974 33.2089 21.4814 33.2089C17.2462 33.2089 13.9485 32.114 11.5883 29.924C9.25014 27.734 8.08105 24.7698 8.08105 21.0313C8.08105 17.5583 9.21705 14.6715 11.489 12.371C13.9375 9.84915 17.18 8.58826 21.2167 8.58826ZM21.6137 16.9168C20.3564 16.9168 19.2645 17.5473 18.3381 18.8082C17.4117 20.0691 16.9484 21.4737 16.9484 23.0222C16.9484 23.8186 17.1139 24.4158 17.4447 24.814C17.7756 25.2564 18.294 25.4776 18.9998 25.4776C19.6395 25.4776 20.2572 25.2454 20.8527 24.7808C21.5145 24.2499 21.9777 23.5642 22.2424 22.7236L22.9041 20.3345C23.1688 19.3612 23.3012 18.775 23.3012 18.5759C23.3012 18.0892 23.1247 17.6911 22.7718 17.3814C22.463 17.0717 22.077 16.9168 21.6137 16.9168Z" fill="white"/>
<defs>
<linearGradient id="paint0_linear_1903_361" x1="21" y1="0" x2="21" y2="42" gradientUnits="userSpaceOnUse">
<stop stop-color="#72FFB5"/>
<stop offset="1" stop-color="#07C160"/>
</linearGradient>
</defs>
</svg>
