<svg width="28" height="28" viewBox="0 0 28 28" fill="none" xmlns="http://www.w3.org/2000/svg">
<path d="M14.001 2.72144C20.2298 2.72179 25.2793 7.77187 25.2793 14.0007C25.2789 20.2293 20.2295 25.2787 14.001 25.2791H3.13867C2.90886 25.2791 2.72217 25.0927 2.72168 24.863H3.13867L2.72168 24.8621V14.0007C2.72168 7.77166 7.7719 2.72144 14.001 2.72144ZM8.56934 19.0144C8.33922 19.0144 8.15234 19.2013 8.15234 19.4314C8.15251 19.6614 8.33932 19.8484 8.56934 19.8484H14C14.23 19.8484 14.4168 19.6614 14.417 19.4314C14.417 19.2013 14.2301 19.0144 14 19.0144H8.56934ZM8.56934 14.6697C8.33922 14.6697 8.15234 14.8566 8.15234 15.0867C8.15256 15.3166 8.33935 15.5037 8.56934 15.5037H18.3447C18.5747 15.5036 18.7615 15.3166 18.7617 15.0867C18.7617 14.8566 18.5748 14.6697 18.3447 14.6697H8.56934ZM8.56934 10.324C8.33937 10.324 8.1526 10.5111 8.15234 10.741C8.15234 10.9711 8.33922 11.158 8.56934 11.158H18.3447C18.5748 11.1579 18.7617 10.9711 18.7617 10.741C18.7615 10.5111 18.5747 10.324 18.3447 10.324H8.56934Z" fill="white"/>
</svg>
