<svg width="26" height="26" viewBox="0 0 26 26" fill="none" xmlns="http://www.w3.org/2000/svg">
<path d="M20.854 20.3125H13.9033L11.708 22.7519C11.6366 22.8312 11.5503 22.8956 11.454 22.9416C11.3577 22.9876 11.2533 23.0141 11.1467 23.0197C11.0402 23.0253 10.9335 23.0099 10.8329 22.9743C10.7323 22.9387 10.6398 22.8836 10.5604 22.8123C10.4811 22.7409 10.4167 22.6546 10.3707 22.5583C10.3247 22.462 10.2982 22.3576 10.2926 22.251C10.287 22.1444 10.3024 22.0378 10.338 21.9372C10.3736 21.8366 10.4287 21.744 10.5 21.6647L12.9375 18.9564C13.0137 18.8717 13.1069 18.8041 13.2109 18.7577C13.315 18.7114 13.4276 18.6875 13.5415 18.6875H20.854C21.0318 18.6875 21.2079 18.6524 21.3722 18.5844C21.5365 18.5163 21.6858 18.4166 21.8115 18.2908C21.9373 18.1651 22.037 18.0158 22.1051 17.8515C22.1731 17.6872 22.2082 17.5111 22.2082 17.3333V5.95829C22.2082 5.78046 22.1731 5.60437 22.1051 5.44008C22.037 5.27578 21.9373 5.1265 21.8115 5.00075C21.6858 4.87501 21.5365 4.77526 21.3722 4.70721C21.2079 4.63915 21.0318 4.60413 20.854 4.60413H5.14567C4.96784 4.60413 4.79175 4.63915 4.62745 4.70721C4.46316 4.77526 4.31388 4.87501 4.18813 5.00075C4.06238 5.1265 3.96264 5.27578 3.89458 5.44008C3.82653 5.60437 3.7915 5.78046 3.7915 5.95829V17.3333C3.7915 17.5111 3.82653 17.6872 3.89458 17.8515C3.96264 18.0158 4.06238 18.1651 4.18813 18.2908C4.31388 18.4166 4.46316 18.5163 4.62745 18.5844C4.79175 18.6524 4.96784 18.6875 5.14567 18.6875H8.6665C8.88199 18.6875 9.08865 18.7731 9.24103 18.9254C9.3934 19.0778 9.479 19.2845 9.479 19.5C9.479 19.7154 9.3934 19.9221 9.24103 20.0745C9.08865 20.2269 8.88199 20.3125 8.6665 20.3125H5.14567C3.50036 20.3125 2.1665 18.9786 2.1665 17.3333V5.95829C2.1665 4.31298 3.50036 2.97913 5.14567 2.97913H20.854C22.4993 2.97913 23.8332 4.31298 23.8332 5.95829V17.3333C23.8332 18.9786 22.4993 20.3125 20.854 20.3125ZM17.8748 8.66663C18.0903 8.66663 18.297 8.75223 18.4494 8.9046C18.6017 9.05697 18.6873 9.26364 18.6873 9.47913C18.6873 9.69461 18.6017 9.90128 18.4494 10.0536C18.297 10.206 18.0903 10.2916 17.8748 10.2916H8.12484C7.90935 10.2916 7.70269 10.206 7.55031 10.0536C7.39794 9.90128 7.31234 9.69461 7.31234 9.47913C7.31234 9.26364 7.39794 9.05697 7.55031 8.9046C7.70269 8.75223 7.90935 8.66663 8.12484 8.66663H17.8748Z" fill="black"/>
<path d="M13.5745 13.238C13.4222 13.0856 13.2155 13 13 13H8.125C7.90951 13 7.70285 13.0856 7.55048 13.238C7.3981 13.3903 7.3125 13.597 7.3125 13.8125C7.3125 14.028 7.3981 14.2347 7.55048 14.387C7.70285 14.5394 7.90951 14.625 8.125 14.625H13C13.2155 14.625 13.4222 14.5394 13.5745 14.387C13.7269 14.2347 13.8125 14.028 13.8125 13.8125C13.8125 13.597 13.7269 13.3903 13.5745 13.238Z" fill="#07C160"/>
</svg>
