<svg width="24" height="24" viewBox="0 0 24 24" fill="none" xmlns="http://www.w3.org/2000/svg">
<path d="M6.7727 13.2802L6.20532 17.2861C6.1643 17.5754 6.26456 17.8648 6.4742 18.0676C6.6451 18.234 6.87296 18.3251 7.10766 18.3251C7.16007 18.3251 7.21248 18.3206 7.26261 18.3114L11.4895 17.58C11.6786 17.5481 11.8541 17.4547 11.9862 17.318L21.6796 7.36027C22.0374 6.99341 22.2242 6.49667 22.2037 5.96118C22.1809 5.32088 21.8687 4.68286 21.3446 4.21346L19.761 2.79614C19.3554 2.43384 18.8472 2.21053 18.33 2.16952C17.7444 2.12394 17.193 2.31991 16.8147 2.70728L7.02335 12.7721C6.88663 12.9088 6.80005 13.0888 6.7727 13.2802ZM18.1112 3.99243C18.1728 3.9742 18.3687 3.99471 18.5465 4.15422L20.1301 5.57153C20.3101 5.73332 20.3808 5.91561 20.3831 6.02271C20.3853 6.06372 20.3762 6.08423 20.3739 6.08879L19.0683 7.43091L16.7668 5.37329L18.1112 3.99243ZM8.53637 13.8293L15.4954 6.68124L17.7968 8.73885L10.8879 15.8346L8.18546 16.3017L8.53637 13.8293Z" fill="black"/>
<path d="M21.2739 12.2366C20.7703 12.2366 20.3625 12.6445 20.3625 13.148V20.009C20.3625 20.009 20.3625 20.0113 20.3602 20.0113H3.6167C3.6167 20.0113 3.61442 20.0113 3.61442 20.009V4.75806C3.61442 4.75806 3.61442 4.75578 3.6167 4.75578H11.1795C11.6831 4.75578 12.091 4.3479 12.091 3.84432C12.091 3.34074 11.6831 2.93286 11.1795 2.93286H3.61442C2.60954 2.93286 1.7915 3.7509 1.7915 4.75578V20.0113C1.7915 21.0162 2.60954 21.8342 3.61442 21.8342H20.3625C21.3674 21.8342 22.1854 21.0162 22.1854 20.0113V13.148C22.1854 12.6445 21.7775 12.2366 21.2739 12.2366Z" fill="black"/>
</svg>
