<svg width="42" height="42" viewBox="0 0 42 42" fill="none" xmlns="http://www.w3.org/2000/svg">
<circle cx="21" cy="21" r="21" fill="url(#paint0_linear_1903_338)"/>
<path d="M21.001 9.72144C27.2298 9.72179 32.2793 14.7719 32.2793 21.0007C32.2789 27.2293 27.2295 32.2787 21.001 32.2791H10.1387C9.90886 32.2791 9.72217 32.0927 9.72168 31.863H10.1387L9.72168 31.8621V21.0007C9.72168 14.7717 14.7719 9.72144 21.001 9.72144ZM15.5693 26.0144C15.3392 26.0144 15.1523 26.2013 15.1523 26.4314C15.1525 26.6614 15.3393 26.8484 15.5693 26.8484H21C21.23 26.8484 21.4168 26.6614 21.417 26.4314C21.417 26.2013 21.2301 26.0144 21 26.0144H15.5693ZM15.5693 21.6697C15.3392 21.6697 15.1523 21.8566 15.1523 22.0867C15.1526 22.3166 15.3394 22.5037 15.5693 22.5037H25.3447C25.5747 22.5036 25.7615 22.3166 25.7617 22.0867C25.7617 21.8566 25.5748 21.6697 25.3447 21.6697H15.5693ZM15.5693 17.324C15.3394 17.324 15.1526 17.5111 15.1523 17.741C15.1523 17.9711 15.3392 18.158 15.5693 18.158H25.3447C25.5748 18.1579 25.7617 17.9711 25.7617 17.741C25.7615 17.5111 25.5747 17.324 25.3447 17.324H15.5693Z" fill="white"/>
<defs>
<linearGradient id="paint0_linear_1903_338" x1="21" y1="0" x2="21" y2="42" gradientUnits="userSpaceOnUse">
<stop stop-color="#FFF4A1"/>
<stop offset="1" stop-color="#EFBF22"/>
</linearGradient>
</defs>
</svg>
