<svg width="42" height="42" viewBox="0 0 42 42" fill="none" xmlns="http://www.w3.org/2000/svg">
<circle cx="21" cy="21" r="21" fill="url(#paint0_linear_1903_333)"/>
<path d="M22.9554 18.0672V14.1569C22.9554 12.5372 21.6424 11.2241 20.0226 11.2241L16.1123 20.0224V30.7759H27.4719C28.4468 30.7869 29.2809 30.0779 29.427 29.114L30.7761 20.3157C30.8622 19.7485 30.6948 19.1722 30.3185 18.7393C29.9421 18.3065 29.3946 18.0607 28.8209 18.0672H22.9554Z" fill="white"/>
<path d="M16.1125 19.9139H13.5024C12.3572 19.8936 11.3781 20.8423 11.2246 21.9773V28.8204C11.3781 29.9555 12.3572 30.7958 13.5024 30.7756H16.1125V19.9139Z" fill="white"/>
<defs>
<linearGradient id="paint0_linear_1903_333" x1="21" y1="0" x2="21" y2="42" gradientUnits="userSpaceOnUse">
<stop stop-color="#FFA1A1"/>
<stop offset="1" stop-color="#EF2222"/>
</linearGradient>
</defs>
</svg>
