<svg width="24" height="24" viewBox="0 0 24 24" fill="none" xmlns="http://www.w3.org/2000/svg">
<g clip-path="url(#clip0_1900_68)">
<path d="M23.0578 7.32891C22.4531 5.89922 21.5859 4.61719 20.4844 3.51562C19.3828 2.41406 18.0984 1.54922 16.6711 0.944531C15.1922 0.316406 13.6195 0 12 0C10.3805 0 8.80781 0.316406 7.32891 0.942187C5.89922 1.54687 4.61719 2.41172 3.51562 3.51562C2.41406 4.61719 1.54922 5.90156 0.944531 7.32891C0.316406 8.80781 0 10.3805 0 12C0 13.6195 0.316406 15.1922 0.942187 16.6711C1.54687 18.1008 2.41172 19.3828 3.51562 20.4844C4.61719 21.5859 5.90156 22.4508 7.32891 23.0555C8.80781 23.6812 10.3805 23.9977 12 23.9977C13.6195 23.9977 15.1922 23.6812 16.6711 23.0555C18.1008 22.4531 19.3828 21.5859 20.4844 20.4844C21.5859 19.3828 22.4508 18.0984 23.0555 16.6711C23.6812 15.1922 23.9977 13.6195 23.9977 12C23.9977 10.3805 23.6836 8.80781 23.0578 7.32891ZM21.7617 16.1227C21.2273 17.3836 20.4633 18.518 19.4906 19.4906C18.518 20.4633 17.3836 21.2273 16.1227 21.7617C14.8172 22.3148 13.4297 22.5937 12 22.5937C10.5703 22.5937 9.18281 22.3148 7.87734 21.7617C6.61641 21.2273 5.48203 20.4633 4.50937 19.4906C3.53672 18.518 2.77266 17.3836 2.23828 16.1227C1.68516 14.8172 1.40625 13.4297 1.40625 12C1.40625 10.5703 1.68516 9.18281 2.23828 7.87734C2.77266 6.61641 3.53672 5.48203 4.50937 4.50937C5.48203 3.53672 6.61641 2.77266 7.87734 2.23828C9.18281 1.68516 10.5703 1.40625 12 1.40625C13.4297 1.40625 14.8172 1.68516 16.1227 2.23828C17.3836 2.77266 18.518 3.53672 19.4906 4.50937C20.4633 5.48203 21.2273 6.61641 21.7617 7.87734C22.3148 9.18281 22.5937 10.5703 22.5937 12C22.5937 13.4297 22.3148 14.8172 21.7617 16.1227Z" fill="black"/>
<path d="M16.2467 15.4265C15.7639 14.9437 15.2107 14.5523 14.6131 14.2617C15.8248 13.4273 16.6217 12.0304 16.6217 10.4507C16.6217 7.90073 14.5475 5.82886 11.9998 5.82886C9.45215 5.82886 7.37793 7.90308 7.37793 10.4507C7.37793 12.0304 8.17481 13.4273 9.38652 14.2617C8.78887 14.5523 8.23574 14.9414 7.75293 15.4265C7.2373 15.9421 6.82715 16.5328 6.53418 17.1773C6.3209 17.6437 6.66309 18.1734 7.17637 18.1734H7.1834C7.45762 18.1734 7.70606 18.0117 7.8209 17.7609C8.54746 16.1789 10.1482 15.075 12.0021 15.075C13.8561 15.075 15.4568 16.1765 16.1834 17.7609C16.2982 18.0117 16.5443 18.1734 16.8209 18.1734H16.8279C17.3389 18.1734 17.6811 17.6437 17.4701 17.1773C17.1725 16.5328 16.7623 15.9398 16.2467 15.4265ZM11.9998 13.6664C10.2279 13.6664 8.78418 12.225 8.78418 10.4507C8.78418 8.67651 10.2279 7.23745 11.9998 7.23745C13.7717 7.23745 15.2154 8.67886 15.2154 10.4531C15.2154 12.2273 13.7717 13.6664 11.9998 13.6664Z" fill="#07C160"/>
</g>
<defs>
<clipPath id="clip0_1900_68">
<rect width="24" height="24" fill="white"/>
</clipPath>
</defs>
</svg>
