<svg width="9" height="12" viewBox="0 0 9 12" fill="none" xmlns="http://www.w3.org/2000/svg">
<g clip-path="url(#clip0_2_1183)">
<path d="M4.67634 4.43646H7.43868L0.839727 11.8015L3.03938 6.61541H0.583984L3.03938 0.492537H7.79678L4.67634 4.43646ZM22.9416 -1.88328C22.9416 -1.87808 22.9427 -1.87293 22.9448 -1.86813C22.9469 -1.86333 22.9501 -1.85896 22.954 -1.85529C22.958 -1.85161 22.9627 -1.84869 22.9679 -1.8467C22.973 -1.84471 22.9786 -1.84369 22.9842 -1.84369C22.9898 -1.84369 22.9953 -1.84471 23.0005 -1.8467C23.0056 -1.84869 23.0103 -1.8516 23.0143 -1.85528C23.0183 -1.85895 23.0214 -1.86331 23.0235 -1.86812C23.0257 -1.87292 23.0268 -1.87807 23.0268 -1.88326C23.0268 -1.89376 23.0223 -1.90383 23.0143 -1.91125C23.0063 -1.91868 22.9955 -1.92285 22.9842 -1.92285C22.9729 -1.92285 22.962 -1.91868 22.954 -1.91126C22.9461 -1.90384 22.9416 -1.89377 22.9416 -1.88328Z" fill="black"/>
</g>
<defs>
<clipPath id="clip0_2_1183">
<rect width="9" height="12" fill="white"/>
</clipPath>
</defs>
</svg>
