<svg width="27" height="27" viewBox="0 0 27 27" fill="none" xmlns="http://www.w3.org/2000/svg">
<path d="M3 8.12621C3 5.29508 5.29508 3 8.12621 3H19.8738C22.7049 3 25 5.29508 25 8.12621V19.8738C25 22.7049 22.7049 25 19.8738 25H8.12621C5.29508 25 3 22.7049 3 19.8738V8.12621Z" fill="#07C160"/>
<path d="M8 14.6753C8 13.934 8.86808 13.5326 9.43283 14.0128L10.8048 15.1793C10.9991 15.3445 11.1111 15.5867 11.1111 15.8418V18.414C11.1111 18.6691 10.9991 18.9113 10.8048 19.0765L9.43283 20.243C8.86808 20.7232 8 20.3218 8 19.5805V14.6753Z" fill="white"/>
<path d="M20 13.9503C20 14.6916 19.1319 15.093 18.5672 14.6128L17.1952 13.4463C17.0009 13.2811 16.8889 13.0389 16.8889 12.7839V10.2116C16.8889 9.9565 17.0009 9.71429 17.1952 9.54908L18.5672 8.38258C19.1319 7.90242 20 8.30378 20 9.04507V13.9503Z" fill="white"/>
<path d="M19.6942 17.1366C19.8882 17.3018 20 17.5438 20 17.7986V19.6007C20 20.3423 19.1313 20.7436 18.5666 20.2628L8.30578 11.5245C8.11177 11.3593 8 11.1173 8 10.8625V9.06045C8 8.31884 8.86875 7.91759 9.43336 8.39842L19.6942 17.1366Z" fill="white"/>
</svg>
