<svg width="202" height="256" viewBox="0 0 202 256" fill="none" xmlns="http://www.w3.org/2000/svg">
<g opacity="0.5">
<path d="M2.66946 255.384H34.7048C34.7048 242.44 34.6719 229.566 35.5546 216.675C35.8207 212.793 35.7719 203.642 36.2618 199.768L12.9027 201.325C10.8093 201.325 4.37593 200.641 2.66916 201.993C1.70499 202.757 2.67168 208.034 2.66946 209.111V218.01V255.384Z" fill="#FFEFCC"/>
<path d="M60.5111 66.2862C61.2626 62.2515 62.3145 58.3 63.0717 54.2729C63.6973 50.9497 63.8628 47.1139 65.4045 44.0394C66.4995 41.857 68.5128 40.0457 70.0061 38.1284C72.2939 35.1896 74.5066 31.8411 76.0839 28.4667H76.9737C78.2681 32.5187 82.8549 36.3078 86.3192 38.609C94.6968 44.1733 103.224 47.6621 113.089 49.7145C115.508 50.2182 118.106 50.6823 120.577 50.7116C122.746 50.7374 125.381 50.345 127.186 51.832C128.506 52.9199 128.657 54.5065 129.071 56.0526C129.934 59.2833 131.109 62.4717 131.256 65.8412H132.591C132.593 62.0161 133.779 58.4949 134.243 54.7178C134.91 49.2825 134.815 43.7293 134.815 38.2552C134.815 34.6713 135.04 30.7639 134.167 27.2591C132.55 20.763 129.649 17.7649 125.027 12.6716C116.936 3.75487 107.681 0.880859 96.1059 0.880859C86.2849 0.880859 76.3838 2.40433 68.7424 9.07835C63.7943 13.3998 62.4253 15.8129 60.1556 21.7528C58.1703 26.9494 56.9517 31.7463 56.9517 37.3654C56.9517 44.8323 56.9953 51.8222 58.4644 59.1672C58.9 61.346 58.6157 64.9469 60.5111 66.2862Z" fill="#4C4A4A"/>
<path d="M76.0834 29.3574C74.1222 33.0419 71.4103 36.7767 68.7803 40.0203C67.7934 41.2372 66.2602 42.1093 65.6733 43.6127C65.195 44.8372 65.3383 46.3019 65.0299 47.5824C63.9687 51.9864 63.3708 56.5692 62.1592 60.9478C61.5603 63.1133 61.2635 65.5867 59.6208 67.1769C58.6713 64.4766 54.6095 65.0893 53.6618 67.6303C52.3857 71.0523 55.1021 75.7824 55.5346 79.1901C55.7575 80.9441 55.7143 82.5895 57.2333 83.8161C58.6558 84.9641 60.6687 84.3857 62.2904 84.0844C63.6769 91.5469 66.8541 97.0521 71.9584 102.754C73.9348 104.962 78.317 107.229 79.3679 109.968C79.9895 111.589 79.0129 113.76 78.3539 115.23C76.584 119.177 73.6011 123.651 68.9645 124.129C68.9863 131.782 75.6269 136.073 82.3125 138.14C92.4139 141.264 104.544 141.793 113.903 136.277C118.306 133.682 122.269 129.434 122.802 124.129C117.902 123.86 113.703 118.372 112.523 113.895C112.216 112.728 111.676 111.133 112.023 109.931C112.379 108.695 113.662 107.87 114.604 107.097C116.481 105.558 118.364 104.084 120.011 102.287C122.473 99.602 125.385 96.1925 127.055 92.9431C128.329 90.4639 128.935 86.8301 129.476 84.0844C136.099 85.2951 136.504 79.349 137.578 74.2959C138.14 71.6534 139.266 68.1611 136.535 66.291C134.579 64.9513 132.844 65.8336 130.81 66.287C130.593 61.2446 128.424 56.5563 127.696 51.6042C116.207 51.5726 104.443 48.8758 94.199 43.6705C87.7025 40.3696 81.1076 35.8326 77.4182 29.3574H76.0834Z" fill="#FFEFCC"/>
<path d="M123.247 124.572C122.202 128.471 120.423 130.763 117.47 133.449C108.15 141.925 94.2978 142.776 82.7179 138.665C76.2432 136.366 69.7636 132.122 68.0751 125.017C62.6366 125.447 58.0645 128.202 52.9473 129.722C45.0933 132.055 37.5641 135.154 29.7933 137.626C20.996 140.424 10.8551 142.492 6.42531 151.713C4.30119 156.135 3.96837 161.613 3.16616 166.389C1.02023 179.167 1.62401 192.257 0 205.106C8.73763 204.925 17.4824 204.661 26.2512 204.661C28.4456 204.661 33.6616 203.709 35.3265 205.374C36.3298 206.378 36.0393 208.271 36.0397 209.555C36.0411 212.86 35.8595 216.058 35.6348 219.343C35.2117 225.522 35.6242 231.838 35.5944 238.031C35.5668 243.798 35.1499 249.586 35.1499 255.383H165.516C165.516 247.66 164.376 239.959 164.188 232.247C164.103 228.783 163.834 225.027 164.238 221.585C164.42 220.038 165.024 218.707 165.071 217.119C159.055 216.261 153.14 212.047 147.592 209.647C142.478 207.436 136.302 206.342 130.811 205.379C128.002 204.886 125.178 205.331 122.359 205.079C121.116 204.968 119.79 204.385 120.785 203.001C123.849 198.736 131.61 196.487 136.595 197.19C138.672 197.482 140.377 198.776 142.397 199.17C146.747 200.019 152.447 197.197 154.837 193.537C151.856 193.562 146.75 195.745 144.334 193.396C142.822 191.924 142.927 189.735 142.251 187.88C140.813 183.941 137.052 176.123 143.285 174.215C144.141 173.952 145.055 173.979 145.939 173.96C144.266 170.836 140.355 168.751 137.485 166.803C134.252 164.608 131.305 162.006 128.14 159.722C125.235 157.626 121.819 156.024 121.467 152.158C125.136 152.199 128.418 154.012 131.701 155.497C136.049 157.465 141.019 159.324 145.047 161.864C146.886 163.024 148.153 164.815 149.95 166.005C152.051 167.396 154.132 168.77 156.166 170.271C157.18 171.019 158.106 172.153 159.362 172.482C162.908 173.41 166.816 170.845 170.213 173.148C173.751 175.546 175.108 181.69 176.531 185.511C177.071 186.96 178.056 188.151 178.72 189.539C181.004 194.313 183.344 199.983 184.648 205.106C188.9 204.77 192.851 204.568 197.106 205.106C197.097 201.835 196.165 198.938 195.526 195.762C194.475 190.536 193.589 185.364 192.396 180.189C191.936 178.191 192.075 176.003 191.731 173.96C190.957 169.366 189.506 165.008 188.103 160.612C187.501 158.729 187.686 156.713 186.995 154.828C185.217 149.979 181.427 146.197 177.084 143.552C174.529 141.996 171.856 141.81 169.075 141.017C162.552 139.155 157.427 136.581 150.833 134.226C146.651 132.733 142.212 131.566 138.119 129.887C133.455 127.975 128.363 124.807 123.247 124.572Z" fill="#07C160"/>
<path d="M173 225C172.483 222.448 161.482 184.888 158.841 184.623C157.525 184.491 156.542 184.791 155.5 183.751C154.578 182.829 151.5 183.306 149.053 183.751C150.681 184.087 152.278 184.547 153.947 184.623C155.415 184.69 157.358 184.292 158.557 185.354C160.302 186.9 160.993 190.094 161.793 192.198C162.737 194.68 164.075 197.117 164.509 199.768C164.802 201.559 164.276 203.324 164.198 205.108C164.063 208.197 164.333 211.386 164.683 214.451C165.202 218.998 167.524 223.075 168.832 227.354C169.944 230.988 169.52 235.176 169.52 238.923C170.5 236 170.822 232.479 170 229C172.448 227.18 165.737 219.21 165.07 217.376C163.959 220.023 165.07 229.392 165.07 232.249C165.07 239.971 165.959 247.673 165.96 255.385H202C201.265 251.428 201.132 247.36 200.544 243.372C199.142 233.854 197.726 224.528 197.066 214.896C196.84 211.602 195.841 208.39 195.771 205.108C192.86 205.108 189.676 204.724 186.872 205.553C189.144 212.644 191.269 219.753 193.268 226.909C194.295 230.588 196.173 234.157 196.216 238.033C194.449 236.004 193.808 232.599 193.096 230.024C190.217 219.604 186.583 209.28 182.269 199.323C179.962 194 178.022 188.527 175.492 183.306C174.07 180.368 172.956 174.811 169.923 173.152C168.165 172.191 166.041 172.82 164.18 172.997C160.365 173.36 156.785 173.185 153.017 173.847C149.754 174.42 143.725 173.134 141.185 175.552C140.039 176.643 140.081 178.291 140.287 179.746C140.782 183.225 141.819 187.107 142.984 190.425C143.46 191.782 144.085 193.156 145.513 193.716C149.291 195.198 169.041 225.033 173 225Z" fill="#FFEFCC"/>
<rect x="58" y="157" width="73.4143" height="43.6036" rx="6" fill="white"/>
<path d="M121.212 183.958C121.212 183.958 117.55 182.588 114.061 182.588C110.573 182.588 106.911 183.958 106.911 183.958C105.55 184.521 105.029 185.111 105.029 186.027V187.633H123.094V186.027C123.094 185.111 122.372 184.494 121.212 183.958Z" fill="#07C160"/>
<path d="M112.068 180.532H116.055V183.869H112.068V180.532ZM109.306 174.932C109.306 174.932 108.132 174.566 108.272 175.551C108.355 176.13 108.81 176.668 109.678 176.833L109.306 174.932Z" fill="#FDC0A7"/>
<path d="M114.134 184.198L115.595 185.328C115.595 185.328 116.398 184.795 117.004 182.87L116.055 181.801L113.999 183.868L112.04 181.911C112.04 181.911 111.076 182.573 111.104 182.875C111.131 183.179 112.481 185.702 112.481 185.702C112.481 185.702 112.481 186.017 114.134 184.198Z" fill="#F0F8FF"/>
<path d="M118.833 174.951C118.833 174.951 120.007 174.585 119.867 175.571C119.784 176.15 119.329 176.687 118.461 176.852L118.833 174.951Z" fill="#FDC0A7"/>
<path d="M119.045 175.787C119.045 179.055 116.25 181.704 114.124 181.704C111.937 181.704 109.079 179.055 109.079 175.787C109.079 172.518 111.31 169.869 114.062 169.869C116.814 169.869 119.045 172.518 119.045 175.787Z" fill="#FFD6C1"/>
<path d="M109.101 175.643C109.101 175.643 109.659 172.782 110.651 172.782C111.642 172.782 113.371 173.588 114.181 173.588C114.992 173.588 115.797 173.401 116.665 172.534C117.534 171.666 118.834 172.968 118.896 175.138C118.896 175.138 119.206 175.757 119.454 174.021C119.702 172.285 119.878 167.344 114.181 166.953C113.193 166.953 112.015 167.511 110.775 168.007C110.155 168.255 109.1 168.193 109.1 168.193C109.1 168.193 110.34 169.356 108.542 169.643C108.17 169.992 108.981 170.63 108.767 170.94C108.519 171.299 108.519 171.299 108.39 171.914C108.261 172.759 108.481 175.157 109.101 175.643Z" fill="#343438"/>
<path d="M122.357 153.049C122.476 156.698 125.398 158.039 128.139 159.949C131.879 162.554 135.825 165.358 139.34 168.236C141.209 169.767 146.579 175.459 149 176C150.616 176.361 150.903 175.171 152.5 175C154.695 174.765 160.294 175 162.5 175C161.068 172.533 153.016 168.355 150.833 166.569C145.581 162.271 140.045 159.741 133.925 156.853C130.121 155.059 126.649 153.084 122.357 153.049Z" fill="#FFEFCC"/>
<path d="M160.176 192.648C158.332 194.389 156.321 193.462 154.205 194.494C150.624 196.24 148.658 199.75 144.158 199.729C142.22 199.719 140.658 198.553 138.819 198.122C133.909 196.968 128.525 197.351 124.136 199.98C122.219 201.128 120.498 202.389 120.132 204.662C123.48 204.662 127.022 204.328 130.348 204.719C136.069 205.391 142.327 207.337 147.718 209.374C153.098 211.406 158.497 215.966 164.18 216.675C163.315 213.436 162.404 210.282 162.404 206.886C162.404 204.748 163.168 202.767 163.242 200.657C163.326 198.292 161.776 194.348 160.176 192.648Z" fill="#FFEFCC"/>
</g>
<circle cx="97.5" cy="116.5" r="16.5" fill="white"/>
<circle cx="121.5" cy="103.5" r="6.5" fill="white"/>
<circle cx="124.5" cy="139.5" r="9.5" fill="white"/>
<path d="M124.895 89.364H99.8994C99.8994 85.2249 96.5397 81.8652 92.4007 81.8652H87.4015C83.2624 81.8652 79.9028 85.2249 79.9028 89.364H72.404C68.2649 89.364 64.9053 92.7236 64.9053 96.8627V136.856C64.9053 140.995 68.2649 144.355 72.404 144.355H105.046C105.759 144.355 106.431 144.046 106.914 143.522C107.385 142.997 107.613 142.285 107.533 141.573C107.465 140.914 107.412 140.256 107.412 139.584C107.412 128.524 117.732 119.695 129.276 122.665C130.029 122.853 130.822 122.692 131.426 122.221C132.031 121.751 132.394 121.025 132.394 120.246V96.8627C132.394 92.7236 129.034 89.364 124.895 89.364ZM97.3998 131.857C89.1216 131.857 82.4023 125.124 82.4023 116.859C82.4023 108.595 89.1216 101.862 97.3998 101.862C105.678 101.862 112.397 108.581 112.397 116.859C112.397 125.138 105.665 131.857 97.3998 131.857ZM121.146 106.861C119.076 106.861 117.396 105.181 117.396 103.112C117.396 101.042 119.076 99.3623 121.146 99.3623C123.215 99.3623 124.895 101.042 124.895 103.112C124.895 105.181 123.215 106.861 121.146 106.861Z" fill="#07C160"/>
<path d="M124.895 127.006C117.987 127.006 112.397 132.596 112.397 139.504C112.397 146.411 117.987 152.002 124.895 152.002C131.802 152.002 137.393 146.411 137.393 139.504C137.393 132.596 131.802 127.006 124.895 127.006ZM129.894 141.856H127.394V144.355C127.394 145.739 126.279 146.855 124.895 146.855C123.511 146.855 122.395 145.739 122.395 144.355V141.856H119.896C118.512 141.856 117.396 140.74 117.396 139.356C117.396 137.972 118.512 136.856 119.896 136.856H122.395V134.357C122.395 132.973 123.511 131.857 124.895 131.857C126.279 131.857 127.394 132.973 127.394 134.357V136.856H129.894C131.278 136.856 132.394 137.972 132.394 139.356C132.394 140.74 131.278 141.856 129.894 141.856Z" fill="#07C160"/>
</svg>
