<svg width="76" height="76" viewBox="0 0 76 76" fill="none" xmlns="http://www.w3.org/2000/svg">
<g clip-path="url(#clip0_2329_582)">
<path d="M75.2021 17.9242L69.4071 12.1862C68.8913 11.6801 68.1975 11.3965 67.4748 11.3965C66.7521 11.3965 66.0583 11.6801 65.5425 12.1862L30.7915 46.5762L14.2539 30.088C13.7381 29.5819 13.0443 29.2983 12.3216 29.2983C11.5989 29.2983 10.9051 29.5819 10.3893 30.088L4.59811 35.8222C4.34465 36.0719 4.14338 36.3694 4.00599 36.6975C3.8686 37.0257 3.79785 37.3779 3.79785 37.7336C3.79785 38.0894 3.8686 38.4416 4.00599 38.7697C4.14338 39.0979 4.34465 39.3954 4.59811 39.645L23.0129 58.0104C23.0319 58.0294 23.0129 58.0484 23.0319 58.0674L27.0751 62.0498L27.9757 62.9618L28.8269 63.8016C29.3427 64.3078 30.0365 64.5914 30.7592 64.5914C31.4819 64.5914 32.1757 64.3078 32.6915 63.8016L75.2021 21.747C75.4551 21.4971 75.656 21.1995 75.7931 20.8714C75.9302 20.5433 76.0008 20.1912 76.0008 19.8356C76.0008 19.48 75.9302 19.128 75.7931 18.7999C75.656 18.4717 75.4551 18.1741 75.2021 17.9242Z" fill="white"/>
</g>
<defs>
<clipPath id="clip0_2329_582">
<rect width="76" height="76" fill="white"/>
</clipPath>
</defs>
</svg>
