<svg width="22" height="22" viewBox="0 0 22 22" fill="none" xmlns="http://www.w3.org/2000/svg">
  <g clip-path="url(#clip0_2_364)">
    <path
      d="M7.79167 1.375H2.44444C1.85381 1.375 1.375 1.85381 1.375 2.44444V7.79167C1.375 8.38232 1.85381 8.86111 2.44444 8.86111H7.79167C8.38232 8.86111 8.86111 8.38232 8.86111 7.79167V2.44444C8.86111 1.85381 8.38232 1.375 7.79167 1.375Z"
      stroke="#07C160 " stroke-width="1.2" stroke-linejoin="round" />
    <path
      d="M7.79167 13.1389H2.44444C1.85381 13.1389 1.375 13.6177 1.375 14.2084V19.5556C1.375 20.1462 1.85381 20.625 2.44444 20.625H7.79167C8.38232 20.625 8.86111 20.1462 8.86111 19.5556V14.2084C8.86111 13.6177 8.38232 13.1389 7.79167 13.1389Z"
      stroke="#07C160 " stroke-width="1.2" stroke-linejoin="round" />
    <path
      d="M19.5556 1.375H14.2084C13.6177 1.375 13.1389 1.85381 13.1389 2.44444V7.79167C13.1389 8.38232 13.6177 8.86111 14.2084 8.86111H19.5556C20.1462 8.86111 20.625 8.38232 20.625 7.79167V2.44444C20.625 1.85381 20.1462 1.375 19.5556 1.375Z"
      stroke="#07C160 " stroke-width="1.2" stroke-linejoin="round" />
    <path
      d="M19.5556 13.1389H14.2084C13.6177 13.1389 13.1389 13.6177 13.1389 14.2084V19.5556C13.1389 20.1462 13.6177 20.625 14.2084 20.625H19.5556C20.1462 20.625 20.625 20.1462 20.625 19.5556V14.2084C20.625 13.6177 20.1462 13.1389 19.5556 13.1389Z"
      stroke="#07C160 " stroke-width="1.2" stroke-linejoin="round" />
  </g>
  <defs>
    <clipPath id="clip0_2_364">
      <rect width="22" height="22" fill="white" />
    </clipPath>
  </defs>
</svg>