<svg width="27" height="27" viewBox="0 0 27 27" fill="none" xmlns="http://www.w3.org/2000/svg">
<g opacity="0.5">
<path d="M12.2075 4.03906C13.4722 3.86439 14.7586 3.94821 15.9907 4.28613C17.243 4.62482 18.416 5.21403 19.4399 6.01953C20.4639 6.8251 21.3181 7.83088 21.9526 8.97656C24.6365 13.776 23.0351 19.9277 18.3853 22.708C16.9115 23.5876 15.2322 24.0511 13.522 24.0498C11.7983 24.0472 10.1065 23.5801 8.61963 22.6963C7.22569 21.8677 6.05898 20.7007 5.22314 19.3027L5.06006 19.0205C2.37602 14.2266 3.97566 8.07752 8.62744 5.30273C9.72542 4.64304 10.9429 4.21374 12.2075 4.03906ZM13.2065 4.98828C11.8712 5.03558 10.5652 5.39939 9.39307 6.0498L9.14404 6.19336C4.97082 8.6785 3.52896 14.2036 5.94775 18.5107H5.94873C6.51645 19.5375 7.28115 20.4389 8.19775 21.1611C9.11436 21.8833 10.1644 22.4117 11.2856 22.7158C12.3878 23.0188 13.5389 23.0953 14.6704 22.9395C15.8019 22.7836 16.891 22.3987 17.8735 21.8086H17.8745C22.0402 19.3235 23.4816 13.7973 21.0649 9.49023V9.48926C20.3099 8.12512 19.2107 6.989 17.8804 6.19727C16.5499 5.40552 15.0353 4.98661 13.4927 4.9834L13.2065 4.98828Z" fill="black" stroke="black" stroke-width="0.1"/>
<path d="M19.7021 5.74963C22.1889 5.4644 23.9659 6.00775 24.708 7.33557C25.0966 8.03012 25.15 8.87006 24.917 9.7926C24.684 10.7147 24.1643 11.7227 23.4033 12.7594C21.9762 14.7036 19.6944 16.7554 16.835 18.5397L16.2559 18.8932C12.828 20.9375 9.30498 22.1586 6.6123 22.3033L6.08496 22.318C5.49386 22.3258 4.9043 22.2554 4.33105 22.109H4.33008C3.38323 21.8506 2.7001 21.3636 2.30371 20.6608C1.9037 19.9456 1.8474 19.0742 2.11328 18.0983C2.37908 17.1227 2.96797 16.0398 3.86426 14.8961C3.90397 14.8392 3.95405 14.7902 4.0127 14.7535C4.07215 14.7163 4.13881 14.6925 4.20801 14.6823C4.27733 14.672 4.3484 14.6755 4.41602 14.694C4.48362 14.7125 4.54684 14.7455 4.60156 14.7897C4.65614 14.8338 4.70156 14.8885 4.73438 14.9508C4.76724 15.0133 4.78728 15.0825 4.79297 15.153C4.79861 15.2233 4.78988 15.2941 4.76758 15.361C4.74518 15.428 4.70899 15.49 4.66211 15.5426C3.90526 16.5037 3.39613 17.406 3.14746 18.194C2.89842 18.9832 2.91268 19.6515 3.19238 20.151C3.44341 20.6005 3.90652 20.9247 4.5957 21.111C5.807 21.4397 7.53211 21.2957 9.48828 20.7516C11.4428 20.2079 13.6219 19.2662 15.7383 18.0065C18.8347 16.1632 21.1306 14.1003 22.5137 12.2565C23.2053 11.3344 23.6678 10.4687 23.8887 9.71448C24.0821 9.05384 24.0894 8.48291 23.9092 8.03381L23.8203 7.84924C23.5471 7.36202 23.01 7.02191 22.2471 6.84827C21.4844 6.6747 20.5018 6.66863 19.3486 6.84534C19.282 6.85551 19.2138 6.85294 19.1484 6.83655C19.0829 6.82007 19.021 6.7902 18.9668 6.74963C18.9125 6.70903 18.8668 6.65772 18.832 6.59924C18.7973 6.5408 18.7737 6.4762 18.7637 6.40881C18.7537 6.34148 18.7573 6.27277 18.7734 6.20667C18.7896 6.14054 18.8185 6.07797 18.8584 6.02307C18.8984 5.96813 18.9491 5.92165 19.0068 5.88635C19.0646 5.85108 19.1286 5.82721 19.1953 5.81702L19.7021 5.74963ZM9.9375 7.04749C11.2104 6.34937 12.658 6.03954 14.1045 6.15979C14.2399 6.16446 14.3686 6.2238 14.4609 6.32385C14.5532 6.42398 14.6031 6.55731 14.5986 6.69397C14.594 6.83076 14.5354 6.96067 14.4365 7.05432C14.338 7.14754 14.2072 7.19623 14.0723 7.19202V7.19299H14.0273C12.6923 7.08215 11.3561 7.39405 10.2031 8.08557H10.2021C8.77716 8.93427 7.71357 10.2898 7.2168 11.8883C7.18433 11.9928 7.11948 12.084 7.03223 12.149C6.94503 12.214 6.83981 12.2493 6.73145 12.2496H6.73047C6.67778 12.2496 6.62529 12.2417 6.5752 12.2252V12.2242C6.5115 12.2037 6.45247 12.1711 6.40137 12.1276C6.35005 12.0838 6.30721 12.0306 6.27637 11.9703C6.24559 11.9102 6.22744 11.8444 6.22168 11.777C6.21596 11.7095 6.22301 11.6413 6.24316 11.5768L6.3584 11.234C6.97058 9.54011 8.14469 8.10954 9.68555 7.19202L9.9375 7.04749Z" fill="black" stroke="black" stroke-width="0.1"/>
<path d="M13.9727 6.16824C14.0716 6.14828 14.1744 6.1585 14.2676 6.19754C14.3609 6.23672 14.4411 6.30305 14.4971 6.38797C14.553 6.47291 14.583 6.57305 14.583 6.67508C14.583 6.74295 14.5696 6.81061 14.5439 6.87332C14.5183 6.93591 14.48 6.99239 14.4326 7.04031C14.3851 7.08834 14.3288 7.12672 14.2666 7.15262C14.205 7.17829 14.1389 7.19074 14.0723 7.1907L14.0703 7.19168V7.1907C13.9702 7.19026 13.8723 7.16103 13.7891 7.10477C13.7051 7.04792 13.6391 6.96667 13.6006 6.87234C13.5621 6.77815 13.5527 6.67444 13.5723 6.57449C13.5919 6.47441 13.6406 6.38214 13.7119 6.30984C13.7831 6.2377 13.8737 6.18824 13.9727 6.16824Z" fill="black" stroke="black" stroke-width="0.1"/>
</g>
</svg>
