<svg width="27" height="27" viewBox="0 0 27 27" fill="none" xmlns="http://www.w3.org/2000/svg">
<path d="M4.50463 5.71033C4.76804 4.14619 6.13269 3 7.73154 3H22.4099C24.4321 3 25.97 4.80131 25.6368 6.77954L23.1777 21.3818C22.9143 22.9459 21.5497 24.0921 19.9508 24.0921H5.27243C3.2503 24.0921 1.71237 22.2908 2.04552 20.3126L4.50463 5.71033Z" fill="#01E013"/>
<path d="M18.5845 7.1629C19.7693 7.16292 20.6704 8.26108 20.4752 9.4671L19.0344 18.3692C18.88 19.3228 18.0803 20.0217 17.1435 20.0217C16.1614 20.0217 15.2502 19.4985 14.7396 18.6413L11.2013 12.7021L9.93071 18.8711C9.79259 19.5416 9.21359 20.0217 8.54288 20.0217C7.35806 20.0217 6.45698 18.9235 6.65215 17.7175L8.09299 8.81525C8.24733 7.86167 9.04701 7.1629 9.98384 7.1629C11.179 7.1629 12.2878 7.79954 12.9092 8.84265L16.0122 14.0514L17.1935 8.31614C17.3319 7.64404 17.9122 7.1629 18.5845 7.1629Z" fill="#1E1E1E"/>
</svg>
