<svg width="27" height="27" viewBox="0 0 27 27" fill="none" xmlns="http://www.w3.org/2000/svg">
<circle cx="13.5" cy="12.5" r="9.5" fill="#07C160"/>
<path d="M12.2075 3.03906C13.4722 2.86439 14.7586 2.94821 15.9907 3.28613C17.243 3.62482 18.416 4.21403 19.4399 5.01953C20.4639 5.8251 21.3181 6.83088 21.9526 7.97656C24.6365 12.776 23.0351 18.9277 18.3853 21.708C16.9115 22.5876 15.2322 23.0511 13.522 23.0498C11.7983 23.0472 10.1065 22.5801 8.61963 21.6963C7.22569 20.8677 6.05898 19.7007 5.22314 18.3027L5.06006 18.0205C2.37602 13.2266 3.97566 7.07752 8.62744 4.30273C9.72542 3.64304 10.9429 3.21374 12.2075 3.03906ZM13.2065 3.98828C11.8712 4.03558 10.5652 4.39939 9.39307 5.0498L9.14404 5.19336C4.97082 7.6785 3.52896 13.2036 5.94775 17.5107H5.94873C6.51645 18.5375 7.28115 19.4389 8.19775 20.1611C9.11436 20.8833 10.1644 21.4117 11.2856 21.7158C12.3878 22.0188 13.5389 22.0953 14.6704 21.9395C15.8019 21.7836 16.891 21.3987 17.8735 20.8086H17.8745C22.0402 18.3235 23.4816 12.7973 21.0649 8.49023V8.48926C20.3099 7.12512 19.2107 5.989 17.8804 5.19727C16.5499 4.40552 15.0353 3.98661 13.4927 3.9834L13.2065 3.98828Z" fill="black" stroke="black" stroke-width="0.1"/>
<path d="M19.7021 4.74963C22.1889 4.4644 23.9659 5.00775 24.708 6.33557C25.0966 7.03012 25.15 7.87006 24.917 8.7926C24.684 9.71473 24.1643 10.7227 23.4033 11.7594C21.9762 13.7036 19.6944 15.7554 16.835 17.5397L16.2559 17.8932C12.828 19.9375 9.30498 21.1586 6.6123 21.3033L6.08496 21.318C5.49386 21.3258 4.9043 21.2554 4.33105 21.109H4.33008C3.38323 20.8506 2.7001 20.3636 2.30371 19.6608C1.9037 18.9456 1.8474 18.0742 2.11328 17.0983C2.37908 16.1227 2.96797 15.0398 3.86426 13.8961C3.90397 13.8392 3.95405 13.7902 4.0127 13.7535C4.07215 13.7163 4.13881 13.6925 4.20801 13.6823C4.27733 13.672 4.3484 13.6755 4.41602 13.694C4.48362 13.7125 4.54684 13.7455 4.60156 13.7897C4.65614 13.8338 4.70156 13.8885 4.73438 13.9508C4.76724 14.0133 4.78728 14.0825 4.79297 14.153C4.79861 14.2233 4.78988 14.2941 4.76758 14.361C4.74518 14.428 4.70899 14.49 4.66211 14.5426C3.90526 15.5037 3.39613 16.406 3.14746 17.194C2.89842 17.9832 2.91268 18.6515 3.19238 19.151C3.44341 19.6005 3.90652 19.9247 4.5957 20.111C5.807 20.4397 7.53211 20.2957 9.48828 19.7516C11.4428 19.2079 13.6219 18.2662 15.7383 17.0065C18.8347 15.1632 21.1306 13.1003 22.5137 11.2565C23.2053 10.3344 23.6678 9.46873 23.8887 8.71448C24.0821 8.05384 24.0894 7.48291 23.9092 7.03381L23.8203 6.84924C23.5471 6.36202 23.01 6.02191 22.2471 5.84827C21.4844 5.6747 20.5018 5.66863 19.3486 5.84534C19.282 5.85551 19.2138 5.85294 19.1484 5.83655C19.0829 5.82007 19.021 5.7902 18.9668 5.74963C18.9125 5.70903 18.8668 5.65772 18.832 5.59924C18.7973 5.5408 18.7737 5.4762 18.7637 5.40881C18.7537 5.34148 18.7573 5.27277 18.7734 5.20667C18.7896 5.14054 18.8185 5.07797 18.8584 5.02307C18.8984 4.96813 18.9491 4.92165 19.0068 4.88635C19.0646 4.85108 19.1286 4.82721 19.1953 4.81702L19.7021 4.74963ZM9.9375 6.04749C11.2104 5.34937 12.658 5.03954 14.1045 5.15979C14.2399 5.16446 14.3686 5.2238 14.4609 5.32385C14.5532 5.42398 14.6031 5.55731 14.5986 5.69397C14.594 5.83076 14.5354 5.96067 14.4365 6.05432C14.338 6.14754 14.2072 6.19623 14.0723 6.19202V6.19299H14.0273C12.6923 6.08215 11.3561 6.39405 10.2031 7.08557H10.2021C8.77716 7.93427 7.71357 9.28976 7.2168 10.8883C7.18433 10.9928 7.11948 11.084 7.03223 11.149C6.94503 11.214 6.83981 11.2493 6.73145 11.2496H6.73047C6.67778 11.2496 6.62529 11.2417 6.5752 11.2252V11.2242C6.5115 11.2037 6.45247 11.1711 6.40137 11.1276C6.35005 11.0838 6.30721 11.0306 6.27637 10.9703C6.24559 10.9102 6.22744 10.8444 6.22168 10.777C6.21596 10.7095 6.22301 10.6413 6.24316 10.5768L6.3584 10.234C6.97058 8.54011 8.14469 7.10954 9.68555 6.19202L9.9375 6.04749Z" fill="black" stroke="black" stroke-width="0.1"/>
<path d="M13.9727 5.16821C14.0716 5.14825 14.1744 5.15846 14.2676 5.19751C14.3609 5.23669 14.4411 5.30302 14.4971 5.38794C14.553 5.47288 14.583 5.57302 14.583 5.67505C14.583 5.74292 14.5696 5.81058 14.5439 5.87329C14.5183 5.93588 14.48 5.99236 14.4326 6.04028C14.3851 6.0883 14.3288 6.12669 14.2666 6.15259C14.205 6.17826 14.1389 6.19071 14.0723 6.19067L14.0703 6.19165V6.19067C13.9702 6.19023 13.8723 6.161 13.7891 6.10474C13.7051 6.04789 13.6391 5.96664 13.6006 5.87231C13.5621 5.77811 13.5527 5.67441 13.5723 5.57446C13.5919 5.47438 13.6406 5.38211 13.7119 5.30981C13.7831 5.23767 13.8737 5.18821 13.9727 5.16821Z" fill="black" stroke="black" stroke-width="0.1"/>
</svg>
