<svg width="27" height="27" viewBox="0 0 27 27" fill="none" xmlns="http://www.w3.org/2000/svg">
<g opacity="0.5">
<path d="M21.9471 9.09147H5.5397L5.43542 8.7091C5.19209 7.87482 5.60923 6.98841 6.39136 6.64079L16.8719 1.98276C17.2891 1.79157 17.7757 1.77419 18.2102 1.948C18.6448 2.12181 18.9924 2.43466 19.1836 2.86918L21.9471 9.09147ZM6.42612 8.04863H20.3307L18.2276 3.28631C18.1581 3.11251 18.0191 2.99084 17.8452 2.92132C17.6714 2.8518 17.4803 2.8518 17.3064 2.9387L6.82588 7.59673C6.61731 7.68363 6.49564 7.85744 6.42612 8.04863Z" fill="black"/>
<path d="M21.9468 9.09147H3.59277V8.22244C3.59277 6.58865 4.91371 5.26771 6.54749 5.26771H9.48484L16.8716 1.98276C17.2888 1.79157 17.7754 1.77419 18.21 1.948C18.6445 2.12181 18.9921 2.43466 19.1833 2.86918L21.9468 9.09147ZM4.63562 8.04863H20.3304L18.2273 3.28631C18.1578 3.11251 18.0188 2.99084 17.845 2.92132C17.6712 2.8518 17.48 2.8518 17.3062 2.9387L9.71078 6.31056H6.54749C5.55679 6.31056 4.7399 7.07531 4.63562 8.04863Z" fill="black"/>
<path d="M22.0163 22.6484H4.98323C4.21848 22.6484 3.59277 22.0227 3.59277 21.258V8.04863H22.0163C22.7811 8.04863 23.4068 8.67434 23.4068 9.43909V21.258C23.4068 22.0227 22.7811 22.6484 22.0163 22.6484ZM4.63562 9.09147V21.258C4.63562 21.4492 4.79204 21.6056 4.98323 21.6056H22.0163C22.2075 21.6056 22.3639 21.4492 22.3639 21.258V9.43909C22.3639 9.2479 22.2075 9.09147 22.0163 9.09147H4.63562Z" fill="black"/>
<path d="M18.9751 17.9556C18.1582 17.9556 17.4977 17.2952 17.4977 16.4783V14.3926C17.4977 13.5757 18.1582 12.9152 18.9751 12.9152C19.792 12.9152 20.4524 13.5757 20.4524 14.3926V16.4783C20.4524 17.2952 19.792 17.9556 18.9751 17.9556ZM18.9751 13.9581C18.7318 13.9581 18.5406 14.1493 18.5406 14.3926V16.4783C18.5406 16.7216 18.7318 16.9128 18.9751 16.9128C19.2184 16.9128 19.4096 16.7216 19.4096 16.4783V14.3926C19.4096 14.1493 19.2184 13.9581 18.9751 13.9581ZM9.16211 8.11328L18.9012 3.96625L19.3097 4.92566L9.57073 9.0727L9.16211 8.11328Z" fill="black"/>
</g>
</svg>
