<svg width="27" height="27" viewBox="0 0 27 27" fill="none" xmlns="http://www.w3.org/2000/svg">
<rect x="4" y="9" width="19" height="13" fill="#07C160"/>
<rect x="4" y="6" width="7" height="3" rx="1.5" fill="#07C160"/>
<path d="M6 7.41296L18.0977 2.11447L22.1096 11.2745L10.0118 16.5729L6 7.41296Z" fill="#07C160"/>
<path d="M21.9471 9.09142H5.5397L5.43542 8.70905C5.19209 7.87477 5.60923 6.98836 6.39136 6.64074L16.8719 1.98271C17.2891 1.79152 17.7757 1.77414 18.2102 1.94795C18.6448 2.12176 18.9924 2.43461 19.1836 2.86913L21.9471 9.09142ZM6.42612 8.04858H20.3307L18.2276 3.28626C18.1581 3.11246 18.0191 2.99079 17.8452 2.92127C17.6714 2.85175 17.4803 2.85175 17.3064 2.93865L6.82588 7.59668C6.61731 7.68358 6.49564 7.85739 6.42612 8.04858Z" fill="black"/>
<path d="M21.9468 9.09142H3.59277V8.22239C3.59277 6.5886 4.91371 5.26767 6.54749 5.26767H9.48484L16.8716 1.98271C17.2888 1.79152 17.7754 1.77414 18.21 1.94795C18.6445 2.12176 18.9921 2.43461 19.1833 2.86913L21.9468 9.09142ZM4.63562 8.04858H20.3304L18.2273 3.28626C18.1578 3.11246 18.0188 2.99079 17.845 2.92127C17.6712 2.85175 17.48 2.85175 17.3062 2.93865L9.71078 6.31051H6.54749C5.55679 6.31051 4.7399 7.07526 4.63562 8.04858Z" fill="black"/>
<path d="M22.0163 22.6484H4.98323C4.21848 22.6484 3.59277 22.0227 3.59277 21.2579V8.04858H22.0163C22.7811 8.04858 23.4068 8.67429 23.4068 9.43904V21.2579C23.4068 22.0227 22.7811 22.6484 22.0163 22.6484ZM4.63562 9.09143V21.2579C4.63562 21.4491 4.79204 21.6055 4.98323 21.6055H22.0163C22.2075 21.6055 22.3639 21.4491 22.3639 21.2579V9.43904C22.3639 9.24785 22.2075 9.09143 22.0163 9.09143H4.63562Z" fill="black"/>
<path d="M18.9751 17.9556C18.1582 17.9556 17.4977 17.2951 17.4977 16.4782V14.3925C17.4977 13.5756 18.1582 12.9152 18.9751 12.9152C19.792 12.9152 20.4524 13.5756 20.4524 14.3925V16.4782C20.4524 17.2951 19.792 17.9556 18.9751 17.9556ZM18.9751 13.958C18.7318 13.958 18.5406 14.1492 18.5406 14.3925V16.4782C18.5406 16.7215 18.7318 16.9127 18.9751 16.9127C19.2184 16.9127 19.4096 16.7215 19.4096 16.4782V14.3925C19.4096 14.1492 19.2184 13.958 18.9751 13.958ZM9.16211 8.11322L18.9012 3.96619L19.3097 4.9256L9.57073 9.07264L9.16211 8.11322Z" fill="black"/>
</svg>
