<svg width="28" height="28" viewBox="0 0 28 28" fill="none" xmlns="http://www.w3.org/2000/svg">
<path d="M22.9634 7.69452C22.4739 6.53788 21.7739 5.49882 20.8825 4.60741C19.9911 3.716 18.9521 3.016 17.7954 2.52655C16.5978 2.01796 15.3235 1.76093 14.0138 1.76093C12.7013 1.76093 11.4298 2.01796 10.2321 2.52382C9.07549 3.01327 8.03643 3.71327 7.14502 4.60467C6.25361 5.49608 5.55361 6.53514 5.06416 7.69178C4.5583 8.88944 4.30127 10.1609 4.30127 11.4734C4.30127 13.6965 5.8708 16.8383 8.96338 20.8113C11.2192 23.7152 13.5106 26.0312 13.5353 26.0531C13.661 26.1816 13.836 26.2527 14.0138 26.2527C14.1942 26.2527 14.3665 26.1816 14.4923 26.0531C14.5142 26.0312 16.8056 23.7125 19.0642 20.814C22.1595 16.8437 23.729 13.7019 23.729 11.4762C23.729 10.1664 23.472 8.89217 22.9634 7.69452ZM13.9646 15.2004C11.9985 15.2004 10.3989 13.6008 10.3989 11.6348C10.3989 9.66874 11.9985 8.06913 13.9646 8.06913C15.9306 8.06913 17.5302 9.66874 17.5302 11.6348C17.5302 13.6008 15.9306 15.2004 13.9646 15.2004Z" fill="#07C160"/>
</svg>
