<svg width="15" height="15" viewBox="0 0 15 15" fill="none" xmlns="http://www.w3.org/2000/svg">
<g opacity="0.5" clip-path="url(#clip0_1456_134)">
<path d="M6.32812 7.5C6.32812 7.8108 6.45159 8.10887 6.67136 8.32864C6.89113 8.54841 7.1892 8.67188 7.5 8.67188C7.8108 8.67188 8.10887 8.54841 8.32864 8.32864C8.54841 8.10887 8.67188 7.8108 8.67188 7.5C8.67188 7.1892 8.54841 6.89113 8.32864 6.67136C8.10887 6.45159 7.8108 6.32812 7.5 6.32812C7.1892 6.32812 6.89113 6.45159 6.67136 6.67136C6.45159 6.89113 6.32812 7.1892 6.32812 7.5Z" fill="black"/>
<path d="M14.0625 7.03125H13.5698C13.3411 4.04531 10.9547 1.65891 7.96875 1.43016V0.9375C7.96875 0.81318 7.91936 0.693951 7.83146 0.606044C7.74355 0.518136 7.62432 0.46875 7.5 0.46875C7.37568 0.46875 7.25645 0.518136 7.16854 0.606044C7.08064 0.693951 7.03125 0.81318 7.03125 0.9375V1.43016C4.04531 1.65891 1.65891 4.04531 1.43016 7.03125H0.9375C0.81318 7.03125 0.693951 7.08064 0.606044 7.16854C0.518136 7.25645 0.46875 7.37568 0.46875 7.5C0.46875 7.62432 0.518136 7.74355 0.606044 7.83146C0.693951 7.91936 0.81318 7.96875 0.9375 7.96875H1.43016C1.65891 10.9547 4.04531 13.3411 7.03125 13.5698V14.0625C7.03125 14.1868 7.08064 14.306 7.16854 14.394C7.25645 14.4819 7.37568 14.5312 7.5 14.5312C7.62432 14.5312 7.74355 14.4819 7.83146 14.394C7.91936 14.306 7.96875 14.1868 7.96875 14.0625V13.5698C10.9547 13.3411 13.3411 10.9547 13.5698 7.96875H14.0625C14.1868 7.96875 14.306 7.91936 14.394 7.83146C14.4819 7.74355 14.5312 7.62432 14.5312 7.5C14.5312 7.37568 14.4819 7.25645 14.394 7.16854C14.306 7.08064 14.1868 7.03125 14.0625 7.03125ZM7.96875 12.6323V11.7188C7.96875 11.5944 7.91936 11.4752 7.83146 11.3873C7.74355 11.2994 7.62432 11.25 7.5 11.25C7.37568 11.25 7.25645 11.2994 7.16854 11.3873C7.08064 11.4752 7.03125 11.5944 7.03125 11.7188V12.6323C4.56187 12.4087 2.59125 10.4381 2.36766 7.96875H3.28125C3.40557 7.96875 3.5248 7.91936 3.61271 7.83146C3.70061 7.74355 3.75 7.62432 3.75 7.5C3.75 7.37568 3.70061 7.25645 3.61271 7.16854C3.5248 7.08064 3.40557 7.03125 3.28125 7.03125H2.36766C2.59125 4.56187 4.56187 2.59125 7.03125 2.36766V3.28125C7.03125 3.40557 7.08064 3.5248 7.16854 3.61271C7.25645 3.70061 7.37568 3.75 7.5 3.75C7.62432 3.75 7.74355 3.70061 7.83146 3.61271C7.91936 3.5248 7.96875 3.40557 7.96875 3.28125V2.36766C10.4381 2.59172 12.4087 4.56187 12.6323 7.03125H11.7188C11.5944 7.03125 11.4752 7.08064 11.3873 7.16854C11.2994 7.25645 11.25 7.37568 11.25 7.5C11.25 7.62432 11.2994 7.74355 11.3873 7.83146C11.4752 7.91936 11.5944 7.96875 11.7188 7.96875H12.6323C12.4087 10.4381 10.4381 12.4087 7.96875 12.6323Z" fill="black"/>
</g>
<defs>
<clipPath id="clip0_1456_134">
<rect width="15" height="15" fill="white"/>
</clipPath>
</defs>
</svg>
