<svg width="18" height="18" viewBox="0 0 18 18" fill="none" xmlns="http://www.w3.org/2000/svg">
<g clip-path="url(#clip0_903_610)">
<path d="M9 0C11.3869 0 13.6761 0.948212 15.364 2.63604C17.0518 4.32387 18 6.61305 18 9C18 11.3869 17.0518 13.6761 15.364 15.364C13.6761 17.0518 11.3869 18 9 18C6.61305 18 4.32387 17.0518 2.63604 15.364C0.948212 13.6761 0 11.3869 0 9C0 6.61305 0.948212 4.32387 2.63604 2.63604C4.32387 0.948212 6.61305 0 9 0ZM9.45257 2.76943V4.73657L9.44357 4.82786C9.41891 4.93566 9.35574 5.03074 9.26592 5.09525C9.1761 5.15976 9.06582 5.18927 8.95579 5.17822C8.84576 5.16717 8.74355 5.11632 8.66836 5.03524C8.59317 4.95415 8.55016 4.84841 8.54743 4.73786V2.76814L8.26714 2.79386C6.82439 2.96262 5.48575 3.62957 4.48211 4.67969C3.47848 5.7298 2.87276 7.09723 2.76943 8.54614H4.70571L4.79571 8.55514C4.90351 8.57981 4.9986 8.64298 5.06311 8.73279C5.12762 8.82261 5.15712 8.93289 5.14607 9.04292C5.13502 9.15295 5.08418 9.25516 5.0031 9.33035C4.92201 9.40555 4.81626 9.44855 4.70571 9.45129H2.76943L2.79514 9.73029C2.96363 11.1733 3.63046 12.5122 4.6806 13.5161C5.73073 14.52 7.09832 15.1259 8.54743 15.2293V13.2943L8.55643 13.2043C8.5787 13.0943 8.64105 12.9965 8.73137 12.9299C8.8217 12.8632 8.93355 12.8326 9.04522 12.8438C9.1569 12.855 9.26042 12.9073 9.33569 12.9906C9.41096 13.0738 9.45262 13.1821 9.45257 13.2943V15.2306L9.73157 15.2049C11.1745 15.0361 12.5133 14.3692 13.5171 13.3191C14.521 12.269 15.127 10.9016 15.2306 9.45257H13.2634L13.1721 9.44357C13.0643 9.41891 12.9693 9.35574 12.9047 9.26592C12.8402 9.1761 12.8107 9.06582 12.8218 8.95579C12.8328 8.84576 12.8837 8.74355 12.9648 8.66836C13.0458 8.59317 13.1516 8.55016 13.2621 8.54743H15.2306L15.2049 8.26714C15.0359 6.82448 14.3688 5.48598 13.3188 4.48239C12.2687 3.4788 10.9014 2.873 9.45257 2.76943ZM9 7.06629C9.51285 7.06629 10.0047 7.27002 10.3673 7.63266C10.73 7.9953 10.9337 8.48715 10.9337 9C10.9337 9.51285 10.73 10.0047 10.3673 10.3673C10.0047 10.73 9.51285 10.9337 9 10.9337C8.48715 10.9337 7.9953 10.73 7.63266 10.3673C7.27002 10.0047 7.06629 9.51285 7.06629 9C7.06629 8.48715 7.27002 7.9953 7.63266 7.63266C7.9953 7.27002 8.48715 7.06629 9 7.06629Z" fill="#07C160"/>
</g>
<defs>
<clipPath id="clip0_903_610">
<rect width="18" height="18" fill="white"/>
</clipPath>
</defs>
</svg>
