<svg width="18" height="18" viewBox="0 0 18 18" fill="none" xmlns="http://www.w3.org/2000/svg">
<g clip-path="url(#clip0_903_524)">
<path d="M4.29528 11.7091C3.61563 11.9584 2.46735 12.6912 2.46735 13.8497C2.46735 14.5824 2.79011 15.0537 3.0477 15.4338C3.24632 15.7257 3.35804 15.899 3.35804 16.121C3.35804 16.5649 2.8708 16.7747 2.85528 16.7807C2.77953 16.8103 2.71048 16.8542 2.65212 16.91C2.59376 16.9658 2.54723 17.0323 2.51521 17.1058C2.4832 17.1793 2.46633 17.2582 2.46557 17.3381C2.46481 17.418 2.48019 17.4972 2.5108 17.5713C2.5568 17.6844 2.63641 17.7814 2.73933 17.8498C2.84225 17.9181 2.96373 17.9545 3.08804 17.9544C3.16563 17.9544 3.24322 17.9392 3.3177 17.9118C3.79253 17.7264 4.59942 17.1395 4.59942 16.124C4.59942 15.522 4.3108 15.0993 4.07804 14.7618C3.87011 14.4578 3.70563 14.2176 3.70563 13.8527C3.70563 13.348 4.46597 12.9497 4.73287 12.8493C4.88637 12.7925 5.01052 12.6782 5.07803 12.5317C5.14554 12.3851 5.15088 12.2183 5.09287 12.0679C5.06481 11.9929 5.02186 11.924 4.96651 11.8653C4.91115 11.8066 4.84448 11.7591 4.77034 11.7258C4.69619 11.6924 4.61604 11.6738 4.53451 11.6709C4.45298 11.6681 4.37167 11.6811 4.29528 11.7091ZM9.82563 11.7091C9.14597 11.9584 7.9946 12.6912 7.9946 13.8497C7.9946 14.5824 8.31735 15.0537 8.57494 15.4338C8.77356 15.7257 8.88529 15.899 8.88529 16.121C8.88529 16.5649 8.39804 16.7747 8.38253 16.7807C8.30677 16.8103 8.23772 16.8542 8.17936 16.91C8.121 16.9658 8.07447 17.0323 8.04246 17.1058C8.01044 17.1793 7.99357 17.2582 7.99281 17.3381C7.99205 17.418 8.00743 17.4972 8.03804 17.5713C8.08404 17.6844 8.16365 17.7814 8.26657 17.8498C8.36949 17.9181 8.49097 17.9545 8.61528 17.9544C8.69287 17.9544 8.77046 17.9392 8.84494 17.9118C9.31977 17.7264 10.1267 17.1395 10.1267 16.124C10.1267 15.522 9.83804 15.0993 9.60529 14.7618C9.39735 14.4578 9.23287 14.2176 9.23287 13.8527C9.23287 13.348 9.99011 12.9497 10.257 12.8493C10.4104 12.7922 10.5346 12.6781 10.6026 12.5318C10.6705 12.3854 10.6769 12.2188 10.6201 12.0679C10.5927 11.9927 10.5503 11.9237 10.4953 11.8648C10.4403 11.8059 10.3738 11.7584 10.2998 11.725C10.2258 11.6915 10.1458 11.6729 10.0644 11.6702C9.98293 11.6675 9.90177 11.6807 9.82563 11.7091ZM15.3591 11.7091C14.6794 11.9584 13.5311 12.6912 13.5311 13.8497C13.5311 14.5824 13.8539 15.0537 14.1115 15.4338C14.3101 15.7257 14.4218 15.899 14.4218 16.121C14.4218 16.5649 13.9346 16.7747 13.9191 16.7807C13.8433 16.8103 13.7743 16.8542 13.7159 16.91C13.6576 16.9658 13.611 17.0323 13.579 17.1058C13.547 17.1793 13.5301 17.2582 13.5294 17.3381C13.5286 17.418 13.544 17.4972 13.5746 17.5713C13.6206 17.6844 13.7002 17.7814 13.8031 17.8498C13.906 17.9181 14.0275 17.9545 14.1518 17.9544C14.2294 17.9544 14.307 17.9392 14.3815 17.9118C14.8563 17.7264 15.6632 17.1395 15.6632 16.124C15.6632 15.522 15.3746 15.0993 15.1418 14.7618C14.9339 14.4578 14.7694 14.2176 14.7694 13.8527C14.7694 13.348 15.5298 12.9497 15.7967 12.8493C15.9502 12.7925 16.0743 12.6782 16.1418 12.5317C16.2093 12.3851 16.2147 12.2183 16.1567 12.0679C16.1286 11.9929 16.0857 11.924 16.0303 11.8653C15.9749 11.8066 15.9083 11.7591 15.8341 11.7258C15.76 11.6924 15.6798 11.6738 15.5983 11.6709C15.5168 11.6681 15.4355 11.6811 15.3591 11.7091ZM16.796 0.042572H1.25701C0.933536 0.042572 0.623312 0.168466 0.394582 0.39256C0.165853 0.616653 0.0373535 0.920589 0.0373535 1.2375V6.90811C0.0373535 7.22503 0.165853 7.52896 0.394582 7.75306C0.623312 7.97715 0.933536 8.10304 1.25701 8.10304H1.85597V8.69899C1.85597 9.69325 2.68149 10.502 3.69632 10.502H14.3598C15.3746 10.502 16.2001 9.69325 16.2001 8.69899V8.10304H16.7991C17.1226 8.10304 17.4328 7.97715 17.6615 7.75306C17.8902 7.52896 18.0187 7.22503 18.0187 6.90811V1.23446C18.0168 0.917871 17.8872 0.614861 17.6581 0.391563C17.4291 0.168265 17.1191 0.0428075 16.796 0.042572ZM14.9556 8.69595C14.9556 9.01825 14.6887 9.28277 14.3567 9.28277H3.69632C3.36735 9.28277 3.09735 9.02129 3.09735 8.69595V8.1H14.9556V8.69595ZM16.4918 2.72737H13.4443V1.23446H16.4918V2.72737Z" fill="#07C160"/>
</g>
<defs>
<clipPath id="clip0_903_524">
<rect width="18" height="18" fill="white"/>
</clipPath>
</defs>
</svg>
