<svg width="20" height="16" viewBox="0 0 20 16" fill="none" xmlns="http://www.w3.org/2000/svg">
<g clip-path="url(#clip0_903_630)">
<path opacity="0.01" d="M-1.52173 -2.8718H21.5217V18.8718H-1.52173V-2.8718Z" fill="#202425"/>
<path d="M0.0144043 1.47692C0.0144043 1.09247 0.176257 0.723761 0.464356 0.451914C0.752456 0.180066 1.1432 0.0273438 1.55064 0.0273438H18.4492C18.8566 0.0273438 19.2474 0.180066 19.5355 0.451914C19.8236 0.723761 19.9854 1.09247 19.9854 1.47692V4.01367C19.9854 4.10978 19.945 4.20196 19.8729 4.26992C19.8009 4.33788 19.7032 4.37606 19.6014 4.37606H0.398462C0.296604 4.37606 0.198917 4.33788 0.126892 4.26992C0.0548674 4.20196 0.0144043 4.10978 0.0144043 4.01367V1.47692Z" fill="#07C160"/>
<path d="M0.0144043 5.46325C0.0144043 5.36714 0.0548674 5.27497 0.126892 5.207C0.198917 5.13904 0.296604 5.10086 0.398462 5.10086H19.6014C19.7032 5.10086 19.8009 5.13904 19.8729 5.207C19.945 5.27497 19.9854 5.36714 19.9854 5.46325V14.5231C19.9854 14.9075 19.8236 15.2762 19.5355 15.5481C19.2474 15.8199 18.8566 15.9727 18.4492 15.9727H1.55064C1.1432 15.9727 0.752456 15.8199 0.464356 15.5481C0.176257 15.2762 0.0144043 14.9075 0.0144043 14.5231V5.46325Z" fill="#07C160"/>
<path d="M10.7681 12.3487C10.7681 12.2535 10.7879 12.1593 10.8265 12.0714C10.8651 11.9834 10.9217 11.9035 10.993 11.8362C11.0644 11.7689 11.149 11.7155 11.2422 11.6791C11.3354 11.6427 11.4353 11.6239 11.5362 11.6239H16.1449C16.3486 11.6239 16.544 11.7003 16.688 11.8362C16.8321 11.9721 16.913 12.1565 16.913 12.3487C16.913 12.5409 16.8321 12.7253 16.688 12.8612C16.544 12.9971 16.3486 13.0735 16.1449 13.0735H11.5362C11.4353 13.0735 11.3354 13.0548 11.2422 13.0183C11.149 12.9819 11.0644 12.9285 10.993 12.8612C10.9217 12.7939 10.8651 12.714 10.8265 12.6261C10.7879 12.5381 10.7681 12.4439 10.7681 12.3487Z" fill="white"/>
</g>
<defs>
<clipPath id="clip0_903_630">
<rect width="20" height="16" fill="white"/>
</clipPath>
</defs>
</svg>
