<svg width="25" height="25" viewBox="0 0 25 25" fill="none" xmlns="http://www.w3.org/2000/svg">
<g clip-path="url(#clip0_903_477)">
<path opacity="0.01" d="M0 0H25V25H0V0Z" fill="#202425"/>
<path d="M1.04921 9.315C1.02085 9.20928 1.01359 9.09902 1.02786 8.9905C1.04212 8.88198 1.07762 8.77734 1.13233 8.68254C1.18704 8.58775 1.25989 8.50466 1.34672 8.43802C1.43355 8.37138 1.53265 8.3225 1.63837 8.29417L20.18 2.71583C20.2858 2.68748 20.396 2.68022 20.5045 2.69448C20.6131 2.70875 20.7177 2.74425 20.8125 2.79896C20.9073 2.85367 20.9904 2.92652 21.057 3.01335C21.1237 3.10017 21.1725 3.19928 21.2009 3.305C22.445 7.94833 23.1109 10.4308 24.22 14.5742C24.2484 14.6799 24.2557 14.7901 24.2414 14.8987C24.2271 15.0072 24.1916 15.1118 24.1369 15.2066C24.0822 15.3014 24.0094 15.3845 23.9225 15.4511C23.8357 15.5178 23.7366 15.5667 23.6309 15.595L5.08921 21.1733C4.98349 21.2017 4.87323 21.2089 4.76471 21.1947C4.65619 21.1804 4.55155 21.1449 4.45675 21.0902C4.36195 21.0355 4.27886 20.9626 4.21222 20.8758C4.14559 20.789 4.0967 20.6899 4.06837 20.5842L3.30171 17.7208C4.40671 17.0842 4.98587 15.7283 4.62837 14.395C4.27171 13.0617 3.09171 12.1758 1.81587 12.1775L1.04921 9.315Z" fill="#FFAA44"/>
<path d="M0.833252 8.33333C0.833252 8.2239 0.854807 8.11553 0.896686 8.01443C0.938565 7.91333 0.999948 7.82146 1.07733 7.74408C1.15471 7.6667 1.24658 7.60531 1.34768 7.56343C1.44879 7.52155 1.55715 7.5 1.66659 7.5H23.3333C23.4427 7.5 23.5511 7.52155 23.6522 7.56343C23.7533 7.60531 23.8451 7.6667 23.9225 7.74408C23.9999 7.82146 24.0613 7.91333 24.1032 8.01443C24.145 8.11553 24.1666 8.2239 24.1666 8.33333V11.7717C23.4514 11.957 22.818 12.3746 22.3658 12.9589C21.9136 13.5433 21.6683 14.2612 21.6683 15C21.6683 15.7388 21.9136 16.4567 22.3658 17.0411C22.818 17.6254 23.4514 18.043 24.1666 18.2283V21.6667C24.1666 21.7761 24.145 21.8845 24.1032 21.9856C24.0613 22.0867 23.9999 22.1785 23.9225 22.2559C23.8451 22.3333 23.7533 22.3947 23.6522 22.4366C23.5511 22.4784 23.4427 22.5 23.3333 22.5H1.66659C1.55715 22.5 1.44879 22.4784 1.34768 22.4366C1.24658 22.3947 1.15471 22.3333 1.07733 22.2559C0.999948 22.1785 0.938565 22.0867 0.896686 21.9856C0.854807 21.8845 0.833252 21.7761 0.833252 21.6667V18.2283C1.54845 18.043 2.18185 17.6254 2.63402 17.0411C3.0862 16.4567 3.33154 15.7388 3.33154 15C3.33154 14.2612 3.0862 13.5433 2.63402 12.9589C2.18185 12.3746 1.54845 11.957 0.833252 11.7717V8.33333Z" fill="#FF4D4D"/>
<path d="M7.5 10.8333C7.5 10.6123 7.5878 10.4004 7.74408 10.2441C7.90036 10.0878 8.11232 10 8.33333 10C8.55435 10 8.76631 10.0878 8.92259 10.2441C9.07887 10.4004 9.16667 10.6123 9.16667 10.8333V19.1667C9.16667 19.3877 9.07887 19.5996 8.92259 19.7559C8.76631 19.9122 8.55435 20 8.33333 20C8.11232 20 7.90036 19.9122 7.74408 19.7559C7.5878 19.5996 7.5 19.3877 7.5 19.1667V10.8333Z" fill="white"/>
</g>
<defs>
<clipPath id="clip0_903_477">
<rect width="25" height="25" fill="white"/>
</clipPath>
</defs>
</svg>
