<svg width="25" height="25" viewBox="0 0 25 25" fill="none" xmlns="http://www.w3.org/2000/svg">
<path d="M4.49714 10.0613L17.163 22.7272H4.546C3.94324 22.7272 3.36516 22.4878 2.93894 22.0616C2.51272 21.6354 2.27327 21.0573 2.27327 20.4545L2.27271 12.2858L4.49714 10.0613ZM13.8835 2.27271C13.267 2.85159 12.7758 3.55077 12.4402 4.32701C12.1046 5.10326 11.9318 5.94009 11.9324 6.78577C11.9324 8.43691 12.5784 9.93691 13.6346 11.05L13.7636 11.1818L17.7795 15.1761C17.9841 15.3795 18.3079 15.3949 18.5312 15.2227L18.5846 15.1761L22.6005 11.1801C22.6437 11.1375 22.6858 11.0943 22.7278 11.05V20.4545C22.7278 20.753 22.669 21.0485 22.5548 21.3243C22.4406 21.6 22.2732 21.8505 22.0622 22.0616C21.8511 22.2726 21.6006 22.44 21.3248 22.5542C21.0491 22.6685 20.7535 22.7272 20.4551 22.7272H19.5744L5.70282 8.85566L12.2858 2.27271H13.8841H13.8835ZM18.1824 2.27271C20.6915 2.27271 22.7278 4.41305 22.7278 7.05452C22.7278 8.37555 22.2193 9.57043 21.3954 10.4358L18.475 13.5096C18.4375 13.5497 18.3922 13.5817 18.3419 13.6035C18.2915 13.6254 18.2372 13.6366 18.1824 13.6366C18.1275 13.6366 18.0732 13.6254 18.0229 13.6035C17.9725 13.5817 17.9272 13.5497 17.8898 13.5096L14.9687 10.4369C14.1449 9.57157 13.6363 8.37668 13.6363 7.05566C13.6363 4.41418 15.6727 2.27271 18.1818 2.27271H18.1824ZM9.87498 2.27271L2.27271 9.87441V4.54543C2.27271 3.94267 2.51215 3.36459 2.93837 2.93837C3.36459 2.51215 3.94267 2.27271 4.54543 2.27271H9.87498ZM18.1818 4.54543C17.579 4.54543 17.001 4.78488 16.5747 5.2111C16.1485 5.63732 15.9091 6.21539 15.9091 6.81816C15.9091 7.42092 16.1485 7.999 16.5747 8.42522C17.001 8.85144 17.579 9.09089 18.1818 9.09089C18.7846 9.09089 19.3626 8.85144 19.7889 8.42522C20.2151 7.999 20.4545 7.42092 20.4545 6.81816C20.4545 6.21539 20.2151 5.63732 19.7889 5.2111C19.3626 4.78488 18.7846 4.54543 18.1818 4.54543Z" fill="#07C160"/>
</svg>
