<svg width="18" height="18" viewBox="0 0 18 18" fill="none" xmlns="http://www.w3.org/2000/svg">
<path d="M6.37305 2.1322C6.91781 2.1322 7.42 2.42756 7.68457 2.90369L8.60254 4.55701C8.84252 4.98957 8.85403 5.51284 8.63281 5.95544L7.87598 7.46814C7.91024 7.57804 7.95932 7.72142 8.0293 7.88513C8.20141 8.28772 8.48645 8.79639 8.93652 9.24646C9.38642 9.69625 9.89305 9.97992 10.2939 10.1508C10.4567 10.2201 10.5997 10.2673 10.709 10.3011L12.2217 9.54529C12.6647 9.32373 13.1892 9.33587 13.6221 9.57654L15.2793 10.4974C15.7551 10.762 16.0498 11.2643 16.0498 11.809V13.7113C16.0497 15.149 14.6875 16.2683 13.2422 15.7806C11.341 15.1391 8.26992 13.8836 6.28418 11.8978C4.29843 9.912 3.04284 6.8409 2.40137 4.93982C1.91389 3.49458 3.03402 2.1322 4.47168 2.1322H6.37305Z" stroke="#07C160" stroke-width="1.5" stroke-linejoin="round"/>
</svg>
