<svg width="17" height="13" viewBox="0 0 17 13" fill="none" xmlns="http://www.w3.org/2000/svg">
<g clip-path="url(#clip0_1016_32)">
<path d="M14.62 0.0235596H2.47716C1.83321 0.0240469 1.21579 0.272326 0.760451 0.713882C0.305114 1.15544 0.0490865 1.75418 0.048584 2.37863V10.6214C0.0490865 11.2458 0.305114 11.8446 0.760451 12.2861C1.21579 12.7277 1.83321 12.976 2.47716 12.9765H14.62C15.264 12.976 15.8814 12.7277 16.3367 12.2861C16.7921 11.8446 17.0481 11.2458 17.0486 10.6214V2.37863C17.0481 1.75418 16.7921 1.15544 16.3367 0.713882C15.8814 0.272326 15.264 0.0240469 14.62 0.0235596ZM15.8343 10.6214C15.8338 10.9335 15.7057 11.2328 15.4781 11.4535C15.2505 11.6742 14.9419 11.7984 14.62 11.7989H2.47716C2.15526 11.7984 1.84669 11.6742 1.61908 11.4535C1.39147 11.2328 1.26337 10.9335 1.26287 10.6214V2.37863C1.26337 2.06648 1.39147 1.76725 1.61908 1.54653C1.84669 1.3258 2.15526 1.20158 2.47716 1.2011H14.62C14.9419 1.20158 15.2505 1.3258 15.4781 1.54653C15.7057 1.76725 15.8338 2.06648 15.8343 2.37863V10.6214Z" fill="#07C160"/>
<path d="M12.0718 5.96273C12.308 5.65645 12.4516 5.29247 12.4865 4.91155C12.5215 4.53062 12.4465 4.14777 12.2699 3.80584C12.0932 3.46391 11.822 3.17639 11.4864 2.97545C11.1509 2.77451 10.7643 2.66809 10.3699 2.66809C9.97554 2.66809 9.58895 2.77451 9.2534 2.97545C8.91786 3.17639 8.64659 3.46391 8.46996 3.80584C8.29333 4.14777 8.2183 4.53062 8.25328 4.91155C8.28826 5.29247 8.43186 5.65645 8.66801 5.96273C7.91118 6.28424 7.26723 6.81243 6.81475 7.48286C6.36227 8.15329 6.12084 8.93696 6.11991 9.73821C6.11991 9.89436 6.18387 10.0441 6.29774 10.1545C6.4116 10.2649 6.56603 10.327 6.72705 10.327C6.88808 10.327 7.0425 10.2649 7.15637 10.1545C7.27023 10.0441 7.33419 9.89436 7.33419 9.73821C7.33419 8.95746 7.65403 8.20868 8.22333 7.6566C8.79264 7.10452 9.56479 6.79437 10.3699 6.79437C11.175 6.79437 11.9472 7.10452 12.5165 7.6566C13.0858 8.20868 13.4056 8.95746 13.4056 9.73821C13.4056 9.89436 13.4696 10.0441 13.5835 10.1545C13.6973 10.2649 13.8517 10.327 14.0128 10.327C14.1738 10.327 14.3282 10.2649 14.4421 10.1545C14.5559 10.0441 14.6199 9.89436 14.6199 9.73821C14.619 8.93696 14.3775 8.15329 13.9251 7.48286C13.4726 6.81243 12.8286 6.28424 12.0718 5.96273ZM9.45919 4.73368C9.45919 4.55901 9.51261 4.38826 9.61268 4.24303C9.71275 4.0978 9.85498 3.9846 10.0214 3.91776C10.1878 3.85091 10.3709 3.83342 10.5476 3.8675C10.7242 3.90158 10.8865 3.98569 11.0139 4.1092C11.1412 4.23271 11.228 4.39007 11.2631 4.56139C11.2983 4.7327 11.2802 4.91027 11.2113 5.07165C11.1424 5.23302 11.0256 5.37095 10.8759 5.468C10.7261 5.56504 10.55 5.61683 10.3699 5.61683C10.1284 5.61683 9.89673 5.52379 9.72594 5.35816C9.55514 5.19254 9.45919 4.96791 9.45919 4.73368ZM3.08419 4.73368H6.72705C6.88808 4.73368 7.0425 4.67165 7.15637 4.56124C7.27023 4.45082 7.33419 4.30106 7.33419 4.14491C7.33419 3.98876 7.27023 3.83901 7.15637 3.72859C7.0425 3.61818 6.88808 3.55615 6.72705 3.55615H3.08419C2.92317 3.55615 2.76874 3.61818 2.65488 3.72859C2.54102 3.83901 2.47705 3.98876 2.47705 4.14491C2.47705 4.30106 2.54102 4.45082 2.65488 4.56124C2.76874 4.67165 2.92317 4.73368 3.08419 4.73368ZM5.51277 5.91122H3.08419C2.92317 5.91122 2.76874 5.97325 2.65488 6.08366C2.54102 6.19408 2.47705 6.34384 2.47705 6.49999C2.47705 6.65614 2.54102 6.80589 2.65488 6.91631C2.76874 7.02672 2.92317 7.08875 3.08419 7.08875H5.51277C5.67379 7.08875 5.82822 7.02672 5.94208 6.91631C6.05594 6.80589 6.11991 6.65614 6.11991 6.49999C6.11991 6.34384 6.05594 6.19408 5.94208 6.08366C5.82822 5.97325 5.67379 5.91122 5.51277 5.91122ZM4.29848 8.26629H3.08419C2.92317 8.26629 2.76874 8.32832 2.65488 8.43874C2.54102 8.54915 2.47705 8.69891 2.47705 8.85506C2.47705 9.01121 2.54102 9.16097 2.65488 9.27138C2.76874 9.3818 2.92317 9.44383 3.08419 9.44383H4.29848C4.4595 9.44383 4.61393 9.3818 4.72779 9.27138C4.84166 9.16097 4.90562 9.01121 4.90562 8.85506C4.90562 8.69891 4.84166 8.54915 4.72779 8.43874C4.61393 8.32832 4.4595 8.26629 4.29848 8.26629Z" fill="#07C160"/>
</g>
<defs>
<clipPath id="clip0_1016_32">
<rect width="17" height="13" fill="white"/>
</clipPath>
</defs>
</svg>
