<svg width="18" height="18" viewBox="0 0 18 18" fill="none" xmlns="http://www.w3.org/2000/svg">
<g clip-path="url(#clip0_903_509)">
<path d="M16.4738 1.68517L8.99811 0.289093L1.66571 1.68517L1.01221 1.78293V10.8086C1.01221 11.3499 1.15007 11.8882 1.4274 12.4233C1.70322 12.9601 2.0642 13.4783 2.51053 13.9819C2.95679 14.4848 3.46455 14.9614 4.03278 15.4103C4.60184 15.86 5.1804 16.2605 5.77027 16.6116C6.36 16.9635 6.92827 17.2561 7.47577 17.4886C8.0233 17.7212 8.50386 17.8806 8.91835 17.9676L9.09363 18L9.28498 17.9676C9.689 17.8806 10.1592 17.7212 10.6956 17.4886C11.232 17.2561 11.7843 16.9635 12.3533 16.6116C12.9217 16.2605 13.4819 15.86 14.035 15.4103C14.5873 14.9615 15.079 14.4848 15.5094 13.9819C15.9398 13.4783 16.2874 12.9601 16.5535 12.4233C16.8189 11.8882 16.952 11.3499 16.952 10.8086V1.78292L16.4738 1.68517ZM15.3452 10.9865C15.3452 11.403 15.2464 11.8142 15.0472 12.2185C14.8487 12.6236 14.5833 13.0131 14.2502 13.3875C13.9163 13.7625 13.5345 14.1143 13.1018 14.4416C12.6689 14.7689 12.2195 15.0661 11.7516 15.3341C11.2847 15.602 10.8112 15.8339 10.3322 16.0302C9.8524 16.2265 9.40849 16.3721 9.00036 16.4676V8.36207H2.6189V2.66773L8.91201 1.5781L9.00044 1.59573V8.36206H15.3452V10.9864L15.3452 10.9865Z" fill="#07C160"/>
</g>
<defs>
<clipPath id="clip0_903_509">
<rect width="18" height="18" fill="white"/>
</clipPath>
</defs>
</svg>
